<?xml version="1.0" encoding="UTF-8"?>
<svg width="49px" height="57px" viewBox="0 0 49 57" version="1.1" xmlns="http://www.w3.org/2000/svg" xmlns:xlink="http://www.w3.org/1999/xlink">
    <title>icon-number-6</title>
    <g id="icon-number-6" stroke="none" fill="none" fill-rule="evenodd">
        <polygon id="Path" fill="#EB6D13" points="24.3707094 0 48.7414188 14.0353566 48.7414188 42.1060699 24.3707094 56.1414265 0 42.1060699 0 14.0353566"></polygon>
        <g id="6" stroke-width="1" transform="translate(11, 7)" fill="#FBF8F2">
            <path d="M1.907,24.345 C1.907,23.5576667 2.00233333,22.7984167 2.193,22.06725 C2.38366667,21.3360833 2.67675,20.607 3.07225,19.88 C3.46775,19.153 3.971,18.4144167 4.582,17.66425 C5.193,16.9140833 5.9165,16.1155 6.7525,15.2685 L12.363,9.92 L19.1975,9.92 L19.1975,9.984 L12.6305,16.075 C12.1941667,16.5256667 11.8029167,16.9290833 11.45675,17.28525 C11.1105833,17.6414167 10.7865833,17.9833333 10.48475,18.311 C10.1829167,18.6386667 9.87433333,19.0043333 9.559,19.408 L9.1045,19.0265 C9.95883333,18.2681667 10.9331667,17.72075 12.0275,17.38425 C13.1218333,17.04775 14.2735,16.8795 15.4825,16.8795 C16.7831667,16.8795 17.9656667,17.0506667 19.03,17.393 C20.0943333,17.7353333 21.01075,18.2268333 21.77925,18.8675 C22.54775,19.5081667 23.1389167,20.2800833 23.55275,21.18325 C23.9665833,22.0864167 24.1735,23.102 24.1735,24.23 C24.1735,25.5046667 23.9113333,26.6451667 23.387,27.6515 C22.8626667,28.6578333 22.1088333,29.519 21.1255,30.235 C20.1421667,30.951 18.9529167,31.4983333 17.55775,31.877 C16.1625833,32.2556667 14.5941667,32.445 12.8525,32.445 C11.0945,32.445 9.53291667,32.2538333 8.16775,31.8715 C6.80258333,31.4891667 5.65925,30.944 4.73775,30.236 C3.81625,29.528 3.11408333,28.6754167 2.63125,27.67825 C2.14841667,26.6810833 1.907,25.57 1.907,24.345 Z M7.592,24.5295 C7.592,25.2225 7.79508333,25.8338333 8.20125,26.3635 C8.60741667,26.8931667 9.217,27.3080833 10.03,27.60825 C10.843,27.9084167 11.849,28.0585 13.048,28.0585 C14.2706667,28.0585 15.2901667,27.9045833 16.1065,27.59675 C16.9228333,27.2889167 17.5323333,26.866 17.935,26.328 C18.3376667,25.79 18.539,25.167 18.539,24.459 C18.539,23.737 18.3415833,23.1110833 17.94675,22.58125 C17.5519167,22.0514167 16.9600833,21.6346667 16.17125,21.331 C15.3824167,21.0273333 14.4041667,20.8755 13.2365,20.8755 C12.0535,20.8755 11.0396667,21.0333333 10.195,21.349 C9.35033333,21.6646667 8.70533333,22.0931667 8.26,22.6345 C7.81466667,23.1758333 7.592,23.8075 7.592,24.5295 Z" id="Shape" fill-rule="nonzero"></path>
        </g>
    </g>
</svg>