<svg xmlns="http://www.w3.org/2000/svg" viewBox="0 0 64 64">
  <path fill="#f2800f" fill-rule="evenodd" d="M32.04 3a28.96 28.96 0 0 0-10.59 55.94c-.25-2.29-.48-5.8.1-8.3l3.41-14.4s-.87-1.74-.87-4.3c0-4.03 2.34-7.04 5.25-7.04 2.48 0 3.68 1.86 3.68 4.08 0 2.48-1.58 6.2-2.4 9.64-.7 2.89 1.45 5.24 4.3 5.24 5.15 0 9.13-5.43 9.13-13.26 0-6.92-5-11.77-12.14-11.77-8.26 0-13.1 6.2-13.1 12.56 0 2.5.95 5.18 2.15 6.63.24.29.28.54.21.83l-.8 3.3c-.14.54-.43.65-.98.4-3.62-1.67-5.9-6.96-5.9-11.23 0-9.13 6.66-17.53 19.2-17.53 10.07 0 17.9 7.17 17.9 16.73 0 10-6.32 18.03-15.1 18.03-2.94 0-5.7-1.52-6.68-3.33l-1.82 6.88c-.65 2.53-2.43 5.69-3.63 7.6A29.02 29.02 0 0 0 61 32.03c0-16-13.03-28.96-29.04-28.96z"/>
</svg>
