<?xml version="1.0" encoding="UTF-8"?>
<svg width="49px" height="57px" viewBox="0 0 49 57" version="1.1" xmlns="http://www.w3.org/2000/svg" xmlns:xlink="http://www.w3.org/1999/xlink">
    <title>icon-number-9</title>
    <g id="icon-number-9" stroke="none" fill="none" fill-rule="evenodd">
        <polygon id="Path" fill="#EB6D13" points="24.3707094 0 48.7414188 14.0353566 48.7414188 42.1060699 24.3707094 56.1414265 0 42.1060699 0 14.0353566"></polygon>
        <g id="9" stroke-width="1" transform="translate(11, 7)" fill="#FBF8F2">
            <path d="M6.903,31.936 L13.4805,25.845 C13.9175,25.3866667 14.3071667,24.9813333 14.6495,24.629 C14.9918333,24.2766667 15.319,23.9315 15.631,23.5935 C15.943,23.2555 16.24,22.895 16.522,22.512 L16.996,22.8935 C16.1623333,23.6318333 15.1980833,24.17425 14.10325,24.52075 C13.0084167,24.86725 11.8438333,25.0405 10.6095,25.0405 C9.30883333,25.0405 8.12633333,24.8693333 7.062,24.527 C5.99766667,24.1846667 5.07941667,23.6931667 4.30725,23.0525 C3.53508333,22.4118333 2.94208333,21.6399167 2.52825,20.73675 C2.11441667,19.8335833 1.9075,18.818 1.9075,17.69 C1.9075,16.4153333 2.16966667,15.2748333 2.694,14.2685 C3.21833333,13.2621667 3.97541667,12.401 4.96525,11.685 C5.95508333,10.969 7.1475,10.4216667 8.5425,10.043 C9.9375,9.66433333 11.506,9.475 13.248,9.475 C15.0186667,9.475 16.582,9.66616667 17.938,10.0485 C19.294,10.4308333 20.4359167,10.976 21.36375,11.684 C22.2915833,12.392 22.9938333,13.2445833 23.4705,14.24175 C23.9471667,15.2389167 24.1855,16.35 24.1855,17.575 C24.1855,18.3623333 24.0900833,19.1215833 23.89925,19.85275 C23.7084167,20.5839167 23.41525,21.313 23.01975,22.04 C22.62425,22.767 22.1223333,23.5055833 21.514,24.25575 C20.9056667,25.0059167 20.1835,25.8045 19.3475,26.6515 L13.737,32 L6.903,32 L6.903,31.936 Z M18.519,17.3905 C18.519,16.6968333 18.3156667,16.0853333 17.909,15.556 C17.5023333,15.0266667 16.89275,14.6119167 16.08025,14.31175 C15.26775,14.0115833 14.2585,13.8615 13.0525,13.8615 C11.8368333,13.8615 10.8205833,14.0154167 10.00375,14.32325 C9.18691667,14.6310833 8.5775,15.0536667 8.1755,15.591 C7.7735,16.1283333 7.5725,16.7516667 7.5725,17.461 C7.5725,18.162 7.76966667,18.7826667 8.164,19.323 C8.55833333,19.8633333 9.15008333,20.2853333 9.93925,20.589 C10.7284167,20.8926667 11.7068333,21.0445 12.8745,21.0445 C14.0651667,21.0445 15.0806667,20.8868333 15.921,20.5715 C16.7613333,20.2561667 17.4044167,19.8224167 17.85025,19.27025 C18.2960833,18.7180833 18.519,18.0915 18.519,17.3905 Z" id="Shape" fill-rule="nonzero"></path>
        </g>
    </g>
</svg>