<?xml version="1.0" encoding="UTF-8"?>
<svg width="71px" height="40px" viewBox="0 0 71 40" version="1.1" xmlns="http://www.w3.org/2000/svg" xmlns:xlink="http://www.w3.org/1999/xlink">
    <title>icon-blockquote</title>
    <g id="icon-blockquote" stroke="none" fill="none" fill-rule="evenodd" stroke-width="1">
        <g id="“" fill="#E4CEA3">
            <path d="M0,25.0793651 C0,20.7054674 0.943870015,16.5079365 2.83161004,12.4867725 C4.71935007,8.46560847 7.27129493,4.30335097 10.4874446,0 L34.3988183,0 L34.3988183,0.211640212 C30.9030034,2.4691358 27.8266864,5.0617284 25.1698671,7.98941799 C22.5130478,10.9171076 20.5204333,13.8271605 19.1920236,16.7195767 L13.7385524,15.978836 C15.1368784,15.4850088 16.2031019,15.1322751 16.937223,14.9206349 C17.6713442,14.7089947 18.562777,14.6031746 19.6115214,14.6031746 C22.0585918,14.6031746 24.2959133,15.0970018 26.323486,16.0846561 C28.3510586,17.0723104 29.9940916,18.4832451 31.2525849,20.3174603 C32.5110783,22.1516755 33.140325,24.3386243 33.140325,26.8783069 C33.140325,30.617284 31.6546036,33.7389771 28.683161,36.2433862 C25.7117184,38.7477954 21.6740522,40 16.5701625,40 C11.3963565,40 7.34121123,38.659612 4.40472674,35.978836 C1.46824225,33.29806 0,29.664903 0,25.0793651 Z M36.6011817,25.0793651 C36.6011817,20.7054674 37.5450517,16.5079365 39.4327917,12.4867725 C41.3205318,8.46560847 43.8724766,4.30335097 47.0886263,0 L71,0 L71,0.211640212 C67.5041851,2.4691358 64.427868,5.0617284 61.7710487,7.98941799 C59.1142294,10.9171076 57.121615,13.8271605 55.7932053,16.7195767 L50.3397341,15.978836 C51.7380601,15.4850088 52.8042836,15.1322751 53.5384047,14.9206349 C54.2725258,14.7089947 55.1639586,14.6031746 56.2127031,14.6031746 C58.6597735,14.6031746 60.897095,15.0970018 62.9246677,16.0846561 C64.9522403,17.0723104 66.5952733,18.4832451 67.8537666,20.3174603 C69.11226,22.1516755 69.7415066,24.3386243 69.7415066,26.8783069 C69.7415066,30.617284 68.2557853,33.7389771 65.2843427,36.2433862 C62.3129,38.7477954 58.2752339,40 53.1713442,40 C47.9975382,40 43.9423929,38.659612 41.0059084,35.978836 C38.0694239,33.29806 36.6011817,29.664903 36.6011817,25.0793651 Z" id="Shape" fill-rule="nonzero"></path>
        </g>
    </g>
</svg>