<svg xmlns="http://www.w3.org/2000/svg" viewBox="0 0 64 64">
  <path fill="#f2800f" fill-rule="evenodd" d="M49.8 6.07c-.27-1.92-1.99-3.1-3.82-3.07-6.99.13-12.68.9-16.6 4.1-3.87 3.17-5.86 8.6-5.95 17.59H16.9c-1.76 0-3.44 1.1-3.71 2.99a21 21 0 0 0 0 5.77 3.96 3.96 0 0 0 4.02 3.33h6.2v20.1a3.83 3.83 0 0 0 3.28 3.91Q28.1 61 30 61c1.37 0 2.7-.1 3.8-.24a4 4 0 0 0 3.44-4.05V36.78h8.63c1.88 0 3.66-1.24 3.94-3.22.3-2.2.18-4.22-.03-5.72-.27-1.94-2-3.15-3.85-3.15h-8.68q0-2.6.32-4.34c.24-1.3.63-2.25 1.2-2.97 1.15-1.4 3.19-2.07 7.08-2.25 1.87-.1 3.67-1.32 3.95-3.32.31-2.27.2-4.27-.01-5.74"/>
</svg>
