<svg xmlns="http://www.w3.org/2000/svg" viewBox="0 0 64 64">
  <path fill="#f2800f" fill-rule="evenodd" d="M17.64 4.33C21.37 4.14 26.12 4 32 4s10.63.14 14.36.33a13.84 13.84 0 0 1 13.31 13.3c.19 3.74.33 8.5.33 14.37 0 5.88-.14 10.63-.33 14.36a13.84 13.84 0 0 1-13.3 13.31c-3.74.19-8.5.33-14.37.33-5.88 0-10.63-.14-14.36-.33a13.84 13.84 0 0 1-13.31-13.3C4.14 42.62 4 37.86 4 32c0-5.88.14-10.63.33-14.36a13.84 13.84 0 0 1 13.3-13.31m28.05 10.25a2.5 2.5 0 0 1 2.49-2.5h1.24a2.49 2.49 0 1 1 0 4.99h-1.24a2.5 2.5 0 0 1-2.5-2.5M32 22.04a9.96 9.96 0 1 0 0 19.92 9.96 9.96 0 0 0 0-19.92M17.07 32a14.93 14.93 0 1 1 29.86 0 14.93 14.93 0 0 1-29.86 0"/>
</svg>
