<?xml version="1.0" encoding="UTF-8"?>
<svg width="49px" height="57px" viewBox="0 0 49 57" version="1.1" xmlns="http://www.w3.org/2000/svg" xmlns:xlink="http://www.w3.org/1999/xlink">
    <title>icon-number-3</title>
    <g id="icon-number-3" stroke="none" fill="none" fill-rule="evenodd">
        <polygon id="Path" fill="#EB6D13" points="24.3707094 0 48.7414188 14.0353566 48.7414188 42.1060699 24.3707094 56.1414265 0 42.1060699 0 14.0353566"></polygon>
        <g id="3" stroke-width="1" transform="translate(11, 7)" fill="#FBF8F2">
            <path d="M2.749,26.1505 L2.813,26.1505 C3.56566667,26.4315 4.42358333,26.6881667 5.38675,26.9205 C6.34991667,27.1528333 7.3475,27.3365 8.3795,27.4715 C9.4115,27.6065 10.4011667,27.674 11.3485,27.674 C12.7998333,27.674 13.9911667,27.5424167 14.9225,27.27925 C15.8538333,27.0160833 16.5400833,26.6295833 16.98125,26.11975 C17.4224167,25.6099167 17.643,25.0078333 17.643,24.3135 C17.643,23.6688333 17.4705833,23.133 17.12575,22.706 C16.7809167,22.279 16.2471667,21.9543333 15.5245,21.732 C14.8018333,21.5096667 13.8645,21.3985 12.7125,21.3985 C11.7628333,21.3985 10.815,21.4683333 9.869,21.608 C8.923,21.7476667 8.01133333,21.9475 7.134,22.2075 L7.048,22.2075 L7.048,20.7305 L15.0235,13.0275 L15.897,14.441 L2.8005,14.441 L2.8005,9.92 L22.845,9.92 L22.845,11.2105 L14.1625,19.785 L11.8045,18.3995 C12.4855,18.1991667 13.1649167,18.0383333 13.84275,17.917 C14.5205833,17.7956667 15.1966667,17.735 15.871,17.735 C17.4896667,17.735 18.8755,18.0190833 20.0285,18.58725 C21.1815,19.1554167 22.0694167,19.94 22.69225,20.941 C23.3150833,21.942 23.6265,23.099 23.6265,24.412 C23.6265,26.115 23.1688333,27.5679167 22.2535,28.77075 C21.3381667,29.9735833 20.0156667,30.8866667 18.286,31.51 C16.5563333,32.1333333 14.4765,32.445 12.0465,32.445 C10.3591667,32.445 8.73841667,32.3286667 7.18425,32.096 C5.63008333,31.8633333 4.15166667,31.4965 2.749,30.9955 L2.749,26.1505 Z" id="Path" fill-rule="nonzero"></path>
        </g>
    </g>
</svg>