<svg xmlns="http://www.w3.org/2000/svg" viewBox="0 0 64 64"><path fill="#f2800f" fill-rule="evenodd" d="M32.501 9.333c-6.752 0-12.226 5.474-12.226 12.227v1.232h24.453V21.56c0-6.753-5.474-12.227-12.227-12.227M13.941 21.56v1.232h-3.718c-3.482 0-6.408 2.832-6.214 6.44.295 5.479 1.106 14.23 2.917 21.893.947 4.005 3.98 7.227 8.278 7.864C18.913 59.54 24.529 60 32.5 60s13.587-.461 17.297-1.01c4.297-.638 7.33-3.86 8.277-7.865 1.81-7.663 2.623-16.414 2.917-21.893.194-3.608-2.732-6.44-6.214-6.44h-3.715V21.56c0-10.25-8.31-18.56-18.56-18.56-10.251 0-18.56 8.31-18.56 18.56m9.725 12.231a2.64 2.64 0 0 1 2.639 2.639v9.601a2.639 2.639 0 1 1-5.278 0V36.43a2.64 2.64 0 0 1 2.639-2.639m17.671 0a2.64 2.64 0 0 1 2.639 2.639v9.601a2.639 2.639 0 1 1-5.278 0V36.43a2.64 2.64 0 0 1 2.639-2.639"/></svg>