<svg xmlns="http://www.w3.org/2000/svg" viewBox="0 0 64 64"><path fill="#f2800f" fill-rule="evenodd" d="M4 32.5C4 16.76 16.76 4 32.5 4S61 16.76 61 32.5 48.24 61 32.5 61a28.35 28.35 0 0 1-13.83-3.575L5.036 59.964l2.54-13.634A28.4 28.4 0 0 1 4 32.5m15.926-13.87c1.695-1.696 3.957-1.846 5.177-1.787 1.127.052 2.01.705 2.55 1.461l2.466 3.457a3.886 3.886 0 0 1-.415 5.005l-1.746 1.744c.578 1.41 1.736 3.68 3.296 5.236 1.56 1.557 3.827 2.72 5.233 3.298l1.75-1.746a3.886 3.886 0 0 1 5.002-.414l3.46 2.464c.753.541 1.409 1.425 1.46 2.549.057 1.22-.093 3.482-1.787 5.18-2.765 2.761-7.102 2.79-11.048 1.707-4.016-1.104-8.11-3.472-10.874-6.234-2.76-2.762-5.13-6.856-6.234-10.874-1.083-3.946-1.054-8.283 1.71-11.045"/></svg>