<svg xmlns="http://www.w3.org/2000/svg" viewBox="0 0 64 64">
  <path fill="#f2800f" fill-rule="evenodd" d="M11.21 10.53C15.41 10.27 22.2 10 32 10s16.6.27 20.79.53a8 8 0 0 1 7.62 7.2c.3 3.1.59 7.63.59 13.77s-.28 10.67-.59 13.78a8 8 0 0 1-7.62 7.2c-4.2.25-10.99.52-20.79.52s-16.6-.27-20.79-.53a8 8 0 0 1-7.62-7.2C3.29 42.18 3 37.65 3 31.5s.28-10.67.59-13.78a8 8 0 0 1 7.62-7.2M24.93 22.3c.94-.57 2.12-.7 3.3-.24 1.43.55 3.36 1.41 5.87 2.75a66 66 0 0 1 5.68 3.34 4 4 0 0 1 1.9 3.34c0 1.28-.65 2.52-1.9 3.34q-2.08 1.42-5.68 3.35a55 55 0 0 1-5.88 2.74 3.7 3.7 0 0 1-3.29-.24 3.9 3.9 0 0 1-1.74-2.8c-.24-1.65-.45-3.8-.45-6.39s.2-4.74.45-6.38a3.9 3.9 0 0 1 1.74-2.8"/>
</svg>
