<?xml version="1.0" encoding="UTF-8"?>
<svg width="49px" height="57px" viewBox="0 0 49 57" version="1.1" xmlns="http://www.w3.org/2000/svg" xmlns:xlink="http://www.w3.org/1999/xlink">
    <title>icon-number-5</title>
    <g id="icon-number-5" stroke="none" fill="none" fill-rule="evenodd">
        <polygon id="Path" fill="#EB6D13" points="24.3707094 0 48.7414188 14.0353566 48.7414188 42.1060699 24.3707094 56.1414265 0 42.1060699 0 14.0353566"></polygon>
        <g id="5" stroke-width="1" transform="translate(11, 7)" fill="#FBF8F2">
            <path d="M2.8435,26.212 L2.9075,26.212 C3.4985,26.4446667 4.14333333,26.65525 4.842,26.84375 C5.54066667,27.03225 6.26683333,27.1953333 7.0205,27.333 C7.77416667,27.4706667 8.53175,27.57725 9.29325,27.65275 C10.05475,27.72825 10.8006667,27.766 11.531,27.766 C12.8963333,27.766 14.0303333,27.63875 14.933,27.38425 C15.8356667,27.12975 16.517,26.74925 16.977,26.24275 C17.437,25.73625 17.667,25.1065 17.667,24.3535 C17.667,23.6031667 17.4366667,23.0053333 16.976,22.56 C16.5153333,22.1146667 15.8721667,21.78775 15.0465,21.57925 C14.2208333,21.37075 13.2658333,21.2665 12.1815,21.2665 C11.1811667,21.2665 10.1495,21.3404167 9.0865,21.48825 C8.0235,21.6360833 6.99333333,21.842 5.996,22.106 C4.99866667,22.37 4.085,22.683 3.255,23.045 L3.191,22.9925 L4.4055,9.92 L22.3275,9.92 L22.3275,14.373 L7.6895,14.373 L8.9235,13.0945 L8.2255,19.953 L6.3285,18.9325 C7.3395,18.4385 8.50825,18.0439167 9.83475,17.74875 C11.16125,17.4535833 12.6188333,17.306 14.2075,17.306 C16.2001667,17.306 17.9011667,17.5835833 19.3105,18.13875 C20.7198333,18.6939167 21.801,19.5019167 22.554,20.56275 C23.307,21.6235833 23.6835,22.9256667 23.6835,24.469 C23.6835,26.1816667 23.2158333,27.6325 22.2805,28.8215 C21.3451667,30.0105 19.9983333,30.9116667 18.24,31.525 C16.4816667,32.1383333 14.3618333,32.445 11.8805,32.445 C10.2761667,32.445 8.72675,32.32425 7.23225,32.08275 C5.73775,31.84125 4.27483333,31.4743333 2.8435,30.982 L2.8435,26.212 Z" id="Path" fill-rule="nonzero"></path>
        </g>
    </g>
</svg>