<?xml version="1.0" encoding="UTF-8"?>
<svg width="49px" height="57px" viewBox="0 0 49 57" version="1.1" xmlns="http://www.w3.org/2000/svg" xmlns:xlink="http://www.w3.org/1999/xlink">
    <title>icon-number-8</title>
    <g id="icon-number-8" stroke="none" fill="none" fill-rule="evenodd">
        <polygon id="Path" fill="#EB6D13" points="24.3707094 0 48.7414188 14.0353566 48.7414188 42.1060699 24.3707094 56.1414265 0 42.1060699 0 14.0353566"></polygon>
        <g id="8" stroke-width="1" transform="translate(11, 7)" fill="#FBF8F2">
            <path d="M1.763,25.4815 C1.763,24.4181667 1.99925,23.4694167 2.47175,22.63525 C2.94425,21.8010833 3.63466667,21.1086667 4.543,20.558 C5.45133333,20.0073333 6.545,19.6441667 7.824,19.4685 L7.824,20.44 C6.207,20.033 5.021,19.3825 4.266,18.4885 C3.511,17.5945 3.1335,16.5806667 3.1335,15.447 C3.1335,14.1743333 3.54875,13.0955 4.37925,12.2105 C5.20975,11.3255 6.37,10.6483333 7.86,10.179 C9.35,9.70966667 11.0766667,9.475 13.04,9.475 C15.0166667,9.475 16.7466667,9.70966667 18.23,10.179 C19.7133333,10.6483333 20.8720833,11.3255 21.70625,12.2105 C22.5404167,13.0955 22.9575,14.1743333 22.9575,15.447 C22.9575,16.5806667 22.5833333,17.5945 21.835,18.4885 C21.0866667,19.3825 19.8973333,20.033 18.267,20.44 L18.267,19.4685 C19.5656667,19.6441667 20.66425,20.0073333 21.56275,20.558 C22.46125,21.1086667 23.1499167,21.8010833 23.62875,22.63525 C24.1075833,23.4694167 24.347,24.4181667 24.347,25.4815 C24.347,26.6475 24.0819167,27.6660833 23.55175,28.53725 C23.0215833,29.4084167 22.2586667,30.1350833 21.263,30.71725 C20.2673333,31.2994167 19.0753333,31.7329167 17.687,32.01775 C16.2986667,32.3025833 14.7496667,32.445 13.04,32.445 C11.3436667,32.445 9.80308333,32.3025833 8.41825,32.01775 C7.03341667,31.7329167 5.84308333,31.2975 4.84725,30.7115 C3.85141667,30.1255 3.08841667,29.3988333 2.55825,28.5315 C2.02808333,27.6641667 1.763,26.6475 1.763,25.4815 Z M7.4575,25.1515 C7.4575,25.8385 7.66675,26.4201667 8.08525,26.8965 C8.50375,27.3728333 9.1275,27.7341667 9.9565,27.9805 C10.7855,28.2268333 11.8133333,28.35 13.04,28.35 C14.2796667,28.35 15.3104167,28.2268333 16.13225,27.9805 C16.9540833,27.7341667 17.5745833,27.3728333 17.99375,26.8965 C18.4129167,26.4201667 18.6225,25.8385 18.6225,25.1515 C18.6225,24.4558333 18.4129167,23.86825 17.99375,23.38875 C17.5745833,22.90925 16.9540833,22.5464167 16.13225,22.30025 C15.3104167,22.0540833 14.2796667,21.931 13.04,21.931 C11.8133333,21.931 10.7855,22.0540833 9.9565,22.30025 C9.1275,22.5464167 8.50375,22.90925 8.08525,23.38875 C7.66675,23.86825 7.4575,24.4558333 7.4575,25.1515 Z M8.449,15.8335 C8.449,16.3555 8.61216667,16.8039167 8.9385,17.17875 C9.26483333,17.5535833 9.76966667,17.8423333 10.453,18.045 C11.1363333,18.2476667 11.9986667,18.349 13.04,18.349 C14.1013333,18.349 14.9705,18.2476667 15.6475,18.045 C16.3245,17.8423333 16.8260833,17.5535833 17.15225,17.17875 C17.4784167,16.8039167 17.6415,16.3555 17.6415,15.8335 C17.6415,15.3185 17.4706667,14.87575 17.129,14.50525 C16.7873333,14.13475 16.2779167,13.8481667 15.60075,13.6455 C14.9235833,13.4428333 14.07,13.3415 13.04,13.3415 C12.023,13.3415 11.1726667,13.4428333 10.489,13.6455 C9.80533333,13.8481667 9.29441667,14.13475 8.95625,14.50525 C8.61808333,14.87575 8.449,15.3185 8.449,15.8335 Z" id="Shape" fill-rule="nonzero"></path>
        </g>
    </g>
</svg>