<?xml version="1.0" encoding="UTF-8"?>
<svg width="49px" height="57px" viewBox="0 0 49 57" version="1.1" xmlns="http://www.w3.org/2000/svg" xmlns:xlink="http://www.w3.org/1999/xlink">
    <title>icon-number-2</title>
    <g id="icon-number-2" stroke="none" fill="none" fill-rule="evenodd">
        <polygon id="Path" fill="#EB6D13" points="24.3707094 0 48.7414188 14.0353566 48.7414188 42.1060699 24.3707094 56.1414265 0 42.1060699 0 14.0353566"></polygon>
        <g id="2" stroke-width="1" transform="translate(11, 7)" fill="#FBF8F2">
            <path d="M3.0335,30.6475 L12.3045,22.651 C13.4348333,21.705 14.2939167,20.9189167 14.88175,20.29275 C15.4695833,19.6665833 15.8688333,19.11575 16.0795,18.64025 C16.2901667,18.16475 16.3955,17.6965 16.3955,17.2355 C16.3955,16.2705 15.9800833,15.5626667 15.14925,15.112 C14.3184167,14.6613333 13.1355,14.436 11.6005,14.436 C10.6981667,14.436 9.76191667,14.5203333 8.79175,14.689 C7.82158333,14.8576667 6.87191667,15.0745833 5.94275,15.33975 C5.01358333,15.6049167 4.16366667,15.8906667 3.393,16.197 L3.329,16.197 L3.329,11.2595 C4.30566667,10.8441667 5.31666667,10.5066667 6.362,10.247 C7.40733333,9.98733333 8.45433333,9.79375 9.503,9.66625 C10.5516667,9.53875 11.5826667,9.475 12.596,9.475 C14.5826667,9.475 16.3106667,9.7255 17.78,10.2265 C19.2493333,10.7275 20.3909167,11.4809167 21.20475,12.48675 C22.0185833,13.4925833 22.4255,14.7595 22.4255,16.2875 C22.4255,17.0325 22.2873333,17.7851667 22.011,18.5455 C21.7346667,19.3058333 21.2588333,20.1186667 20.5835,20.984 C19.9081667,21.8493333 18.9745,22.8135 17.7825,23.8765 L11.346,29.835 L10.7435,27.4575 L23.462,27.4575 L23.462,32 L3.0335,32 L3.0335,30.6475 Z" id="Path" fill-rule="nonzero"></path>
        </g>
    </g>
</svg>