<svg xmlns="http://www.w3.org/2000/svg" viewBox="0 0 64 64"><path fill="#f2800f" fill-rule="evenodd" d="M24.609 4.1a28.87 28.87 0 0 1 15.782 0l1.754.498v5.247c1.665.729 3.23 1.64 4.673 2.708l4.537-2.626 1.308 1.273q.15.145.297.294a29 29 0 0 1 7.594 13.405L61 26.67l-4.537 2.626a24.5 24.5 0 0 1 0 5.408L61 37.329l-.446 1.772A29 29 0 0 1 52.663 52.8l-1.308 1.273-4.537-2.626a24 24 0 0 1-4.673 2.708v5.247l-1.754.499a28.86 28.86 0 0 1-15.782 0l-1.754-.498v-5.248a24 24 0 0 1-4.672-2.708l-4.538 2.626-1.307-1.273q-.15-.145-.298-.294a29 29 0 0 1-4.517-5.867l-.007-.011-.153-.266a29 29 0 0 1-2.917-7.26L4 37.33l4.538-2.626a24.5 24.5 0 0 1 0-5.408L4 26.67l.446-1.771a29 29 0 0 1 2.919-7.264l.006-.011.15-.26a29 29 0 0 1 4.817-6.164l1.307-1.273 4.538 2.626a24 24 0 0 1 4.672-2.708V4.598zm15.128 21.86c0-4.005-3.24-7.252-7.236-7.252-3.997 0-7.236 3.247-7.236 7.253 0 4.005 3.24 7.252 7.236 7.252s7.236-3.247 7.236-7.252m7.23 13.674v2.905A19.51 19.51 0 0 1 32.5 48.917c-5.74 0-10.9-2.46-14.467-6.376v-2.907l.158-.063a38.5 38.5 0 0 1 14.31-2.738c5.054 0 9.885.972 14.31 2.738z"/></svg>