<svg xmlns="http://www.w3.org/2000/svg" viewBox="0 0 64 64">
  <g fill="#f2800f" fill-rule="evenodd">
    <path fill-rule="nonzero" d="M23.06 4.97c-.9.32-1.15 1.25-.56 1.97.27.32.4.39 1.14.56q1.75.43 2.95 1.73c.51.58 1.15 1.54 1.05 1.63l-.54.42a8 8 0 0 0-2.7 3.98 5 5 0 0 0-.26 1.8 7 7 0 0 0 .27 2.49c.03.12-.05.2-.34.35-.22.11-.67.39-1.03.6l-.63.4h-2.38a21 21 0 0 0-5.14.45c-4.84.99-8.96 3.82-10.5 7.22-.66 1.43-.9 2.73-.65 3.48.2.64.8 1.23 1.58 1.62.96.47 1.43.58 2.8.62 1.95.06 3.3-.29 5.66-1.46 1.28-.64 1.37-.67 1.33-.49-.16.65-.37 2.21-.44 3.27a17.7 17.7 0 0 0 8.1 15.99 18 18 0 0 0 5 2.16c.28.07.47.2.88.63.66.69 1.1 1.53 1.46 2.8.16.55.34 1.07.4 1.18.3.46.92.63 1.4.39.11-.07.87-.88 1.67-1.82a26 26 0 0 1 4.04-3.99c4.99-4.3 6.76-6.14 8.54-8.88 2.26-3.43 3.23-6.87 2.98-10.58-.04-.6-.1-1.2-.13-1.32-.05-.2-.05-.22.1-.1.22.21 1.87 1.01 2.85 1.42 2.68 1.08 5.14 1.17 7 .25 1.5-.75 1.97-1.9 1.51-3.7a9.5 9.5 0 0 0-2.34-4.14 15 15 0 0 0-4.56-3.19 18 18 0 0 0-5.46-1.62c-.98-.15-1.5-.18-3.62-.19h-2.46l-.51-.34a17 17 0 0 0-1.1-.63q-.6-.31-.53-.43c.24-.63.31-1.15.3-2.32a5 5 0 0 0-.21-1.94 8 8 0 0 0-2.76-4c-.3-.23-.55-.44-.55-.47 0-.14.84-1.3 1.22-1.69.8-.8 1.38-1.14 2.65-1.5.46-.14.94-.33 1.06-.41.29-.24.55-.71.55-1.01 0-.91-.84-1.44-1.97-1.24-2 .36-4.05 2.13-5.06 4.4l-.31.65a2 2 0 0 1-.5-.1 10 10 0 0 0-4.26 0c-.6.13-.6.13-.6.02 0-.19-.74-1.62-1.07-2.1a10 10 0 0 0-2.1-2c-1.22-.8-2.43-1.1-3.22-.82m11.32 16.49a13.6 13.6 0 0 1 6.18 2.43c.97.7 2.28 2.01 2.96 2.97.64.92 1.46 2.56 1.8 3.6 1.1 3.48.72 7.25-.97 9.64a9 9 0 0 1-3.04 2.54c-1.71.79-3.79.94-4.92.37-.76-.38-1.14-.87-1.4-1.76l-.12-.48-.2.36a5.6 5.6 0 0 1-3.19 2.1c-.69.17-2.07.17-2.72 0-2.92-.76-4.6-3.8-4.05-7.4.18-1.17.4-1.87.94-2.96.45-.93.53-1.05 1.28-1.8.56-.55.99-.9 1.4-1.14a7 7 0 0 1 4.7-.79c1.06.2 1.73.58 2.11 1.23l.22.38.04-.56c.02-.3.07-.61.1-.67.17-.26.6-.33 1.78-.33s1.43.05 1.63.36c.11.16.06.7-.5 4.85-.35 2.68-.54 4.3-.5 4.5.21 1.32 2.25 1.3 3.46-.02.85-.93 1.17-1.84 1.23-3.57a9.6 9.6 0 0 0-2.47-7.14 10.4 10.4 0 0 0-5.6-3.04c-1.13-.2-2.97-.18-4.06.05-1.62.34-3.17 1-4.44 1.87a14 14 0 0 0-2.68 2.62 14 14 0 0 0-1.65 3.22 12 12 0 0 0-.52 4.58 10.7 10.7 0 0 0 5.73 8.8c3.44 1.78 7.23 1.79 11.25.03 1.08-.47 1.26-.51 1.63-.36.22.1.32.21.51.63.13.28.32.75.42 1.05.3.92.14 1.2-.98 1.73a19 19 0 0 1-4.94 1.57 21 21 0 0 1-5.08 0c-4-.67-7.3-2.76-9.59-6.08a16 16 0 0 1-2.3-5.37 15.7 15.7 0 0 1 3.57-13.13 15.4 15.4 0 0 1 9.2-4.9c.86-.12 2.85-.1 3.78.02"/>
    <path d="M30.74 32.6a2.6 2.6 0 0 0-1.7 1.9c-.09.45-.04 1.26.1 1.58.4.9 1.5 1.25 2.7.88.87-.27 1.5-1.04 1.74-2.12q.34-1.59-.93-2.19c-.25-.12-.38-.14-.93-.15-.56-.02-.68 0-.98.1"/>
  </g>
</svg>
