<svg xmlns="http://www.w3.org/2000/svg" viewBox="0 0 800 444">
  <path d="M222.89 387.52h5.48v39.39h-5.48zm28.75 0h5.48v39.39h-5.48zm3.08 21.77H225v-4.65h29.73zm40.62-2.08q0-4.7 1.64-8.47 1.64-3.75 4.53-6.39a20 20 0 0 1 6.64-4.04q3.76-1.41 8.01-1.41t8.02 1.41 6.64 4.04a19 19 0 0 1 4.52 6.4q1.64 3.75 1.64 8.46 0 4.7-1.64 8.46a19 19 0 0 1-4.52 6.4 20 20 0 0 1-6.64 4.04q-3.75 1.41-8.02 1.41-4.25 0-8.01-1.41-3.77-1.43-6.64-4.04a19 19 0 0 1-4.53-6.4 21 21 0 0 1-1.64-8.46m5.65 0q0 3.45 1.18 6.26a14.3 14.3 0 0 0 8.1 7.93q2.75 1.08 5.9 1.08t5.88-1.08a14.3 14.3 0 0 0 8.1-7.92 16 16 0 0 0 1.19-6.27 16 16 0 0 0-1.18-6.27 14.4 14.4 0 0 0-8.1-7.92 16 16 0 0 0-5.9-1.08q-3.15 0-5.89 1.08a14.4 14.4 0 0 0-8.1 7.92 16 16 0 0 0-1.18 6.27m74.22-19.7h3.71l25.55 31.27-1.34.38v-31.64h5.26v39.39h-3.72l-25.54-31.27 1.33-.38v31.65h-5.25zm73.24 0h5.47v39.4h-5.47zm1.44 34.76h25v4.64h-25zm-.07-34.75h24.66v4.63h-24.66zm-.38 17.08H472v4.56h-22.55zm77.46 5.95-16.05-22.88v-.15h6.4l13.09 18.92h-1.07l13.09-18.92h6.15v.15l-16.13 22.88v16.36h-5.48zm-507-62.16h19.02q3.8 0 6.6-.9a8.7 8.7 0 0 0 4.36-2.93q1.57-2.03 1.57-5.33 0-4.6-3.13-6.78-3.12-2.17-9.18-2.17H21.95l-.05-5.83h16.08q5.4 0 7.91-2.15t2.5-6.24q0-2.92-1.29-4.66a7 7 0 0 0-3.7-2.5q-2.43-.75-5.8-.75H20.34v-5.93h18.48q8.46 0 12.78 3.38 4.3 3.37 4.31 9.7 0 4.78-2.65 8.2-2.66 3.4-7.5 4.2l.5-1.27q5.95.55 9.3 3.85t3.35 9.08q0 4.66-2.22 8.02a14 14 0 0 1-6.5 5.15q-4.3 1.8-10.53 1.79H19.9zm-2.02-46.17h7.15v52.1h-7.15zm55.75 0h7.25v52.1h-7.25zm1.84 45.97h31.65v6.13H75.47zm42.2 5.98 25.58-52.22h4.17l25.53 52.22v.15h-7.92l-6.75-13.97-.1-.3-14.28-29.81h2.68l-14.32 29.66-.05.25-6.87 14.17h-7.67zm11.56-17.2h31.83l.3 5.89h-32.42zm50.97-8.7q0-6.23 2.12-11.2a24 24 0 0 1 5.9-8.45 27 27 0 0 1 8.88-5.34 32 32 0 0 1 11.03-1.88q4.94 0 8.76.92t7.14 2.5v6.7h-.15a27 27 0 0 0-4.66-1.92q-2.46-.75-5.07-1.14a38 38 0 0 0-5.47-.38q-4.62 0-8.46 1.42a19 19 0 0 0-6.66 4.1 18 18 0 0 0-4.36 6.37 22 22 0 0 0-1.54 8.3q0 4.56 1.54 8.29a18 18 0 0 0 4.36 6.38 19 19 0 0 0 6.66 4.1q3.84 1.42 8.46 1.42 2.85 0 5.47-.38a32 32 0 0 0 9.78-3.06h.15v6.67a38 38 0 0 1-7.2 2.52q-3.81.93-8.75.93-5.93 0-11.03-1.88a27 27 0 0 1-8.88-5.34 24 24 0 0 1-5.9-8.46 28 28 0 0 1-2.12-11.19m59.6-26.05h7.24v52.1h-7.25zm6.7 23.8 29.59-23.8h9.6v.15l-31.98 25.68.03-2.96 32.37 29.08v.15h-10.15L246.5 327.7zm78.3-23.8h5.21l24.78 40.64-2.35.02 24.55-40.66h5.21v52.1h-6.94V314.8l1.44.35-21.34 35.22h-3.72l-21.36-35.22 1.47-.35v39.52h-6.95zm72.67 26.05q0-6.23 2.17-11.2a25 25 0 0 1 5.98-8.45 27 27 0 0 1 8.78-5.34 30 30 0 0 1 10.6-1.88q5.64 0 10.61 1.88a27 27 0 0 1 8.78 5.34 25 25 0 0 1 5.98 8.45 28 28 0 0 1 2.17 11.2q0 6.2-2.17 11.19a25 25 0 0 1-5.98 8.46 27 27 0 0 1-8.78 5.34 30 30 0 0 1-10.6 1.88q-5.64 0-10.6-1.88a27 27 0 0 1-8.8-5.34 25 25 0 0 1-5.97-8.46 28 28 0 0 1-2.17-11.19m7.47 0q0 4.56 1.56 8.29a19 19 0 0 0 10.72 10.48q3.61 1.42 7.79 1.42 4.16 0 7.79-1.42a19 19 0 0 0 10.72-10.48 21 21 0 0 0 1.56-8.29q0-4.6-1.57-8.3a19 19 0 0 0-10.71-10.47 21 21 0 0 0-7.8-1.42q-4.16 0-7.78 1.42a19 19 0 0 0-10.72 10.47 21 21 0 0 0-1.56 8.3m62.05 4.12v-30.17h7.24v30.07q0 5.25 1.92 8.87a12.7 12.7 0 0 0 5.56 5.46 19 19 0 0 0 8.6 1.84q5.04 0 8.63-1.84a12.7 12.7 0 0 0 5.52-5.46q1.92-3.6 1.92-8.87v-30.07h7.05v30.17q0 7.7-3 12.75t-8.23 7.53a28 28 0 0 1-12 2.47q-6.74 0-11.97-2.47a18.6 18.6 0 0 1-8.24-7.53q-3-5.06-3-12.75m63.32-30.17h4.9l33.8 41.36-1.77.5v-41.86h6.95v52.1h-4.91l-33.79-41.36 1.76-.5v41.86h-6.94zm77.7.75h7.25v51.35H608zm-19.84-.75h46.93v6.13h-46.93zm49.62 51.95 25.58-52.22h4.16l25.53 52.22v.15h-7.91l-6.75-13.97-.1-.3-14.29-29.81h2.68l-14.32 29.66-.04.25-6.88 14.17h-7.66zm11.56-17.2h31.83l.3 5.89h-32.43zm57.56-34.75h7.24v52.1h-7.24zm24.94 0h4.91l33.79 41.36-1.76.5v-41.86h6.95v52.1h-4.92l-33.78-41.36 1.76-.5v41.86h-6.95zM462.03 131.77 469.81 95l-36.6-45.15L418.1 68.6l22.07 27.3h-14.69l-62.85-77.7-32.1 39.8 41.81 51.73h-14.68L323.19 67.1 270.84 132zm9.25 11.42c-11.56 52.62-25.77 81.61-48.38 97.75-28.48 20.34-73.28 18.91-106.94 18.91 7.75-36.63 18.49-86.1 50.81-109.18a78 78 0 0 1 12.78-7.38l-132.63.16L362.62 0l48.12 59.52 22.45-27.84 39.82 49.13a31 31 0 0 1 9.97-14.5 37 37 0 0 1 16.57-7.4 48 48 0 0 1 18.48.34c9.94 2.1 19.45 7.32 25.99 15.4 6.54 8.1 9.67 18.51 9.67 28.69 0 6.28-1.2 12.55-3.53 18.19a37 37 0 0 1-10.64 14.7 31 31 0 0 1-20.01 6.96zm-28.46 53.7c6.34-13.86 11.76-31.44 16.75-53.68-22.57.14-41.15 1.06-56.57 4.43zm-56.1 47.07-39.78-49.41c-6.38 13.9-11.82 31.53-16.83 53.85 22.6-.14 41.19-1.06 56.62-4.44m11.97-3.36a70 70 0 0 0 17.58-8.98c7.96-5.68 14.8-13.36 20.81-23.64L391.02 151a70 70 0 0 0-17.63 9c-7.91 5.65-14.71 13.26-20.7 23.46zm84.5-153.74-9.5 44.9h45.8c5.13 0 9.43-1.66 12.81-4.4a25.5 25.5 0 0 0 7.3-10.18 37 37 0 0 0 2.62-13.84c0-7.74-2.29-15.55-7.08-21.47-4.8-5.95-11.96-9.82-19.5-11.42-4.74-1-9.58-1.11-14.06-.28-4.3.8-8.27 2.46-11.42 5.02a20 20 0 0 0-6.97 11.67"/>
</svg>
