<?xml version="1.0" encoding="UTF-8"?>
<svg width="250px" height="250px" viewBox="0 0 250 250" version="1.1" xmlns="http://www.w3.org/2000/svg" xmlns:xlink="http://www.w3.org/1999/xlink">
    <title>logo-dash@1x</title>
    <g id="logo-dash" stroke="none" fill="none" fill-rule="evenodd" stroke-width="1">
        <g id="Group" transform="translate(5, 5)">
            <circle id="Oval-2" fill="#EB6D13" cx="120" cy="120" r="120"></circle>
            <path d="M31.5889843,142.766578 L35.658001,142.766578 C36.6823913,142.766578 37.5683288,142.593001 38.3158135,142.245846 C39.0632983,141.898692 39.6437861,141.387475 40.057277,140.712195 C40.4707678,140.036916 40.6775132,139.206021 40.6775132,138.219512 C40.6775132,137.233003 40.4707678,136.401131 40.057277,135.723895 C39.6437861,135.046659 39.0614309,134.535442 38.3102114,134.190244 C37.5589919,133.845046 36.6749218,133.672447 35.658001,133.672447 L31.5889843,133.672447 L31.5889843,132.243902 L35.7492358,132.243902 C37.0846779,132.243902 38.2494327,132.47439 39.2435003,132.935366 C40.2375679,133.396341 41.0106179,134.071665 41.5626504,134.961338 C42.1146829,135.85101 42.3906992,136.937068 42.3906992,138.219512 C42.3906992,139.501956 42.1165503,140.588014 41.5682526,141.477687 C41.0199548,142.367359 40.2488166,143.042683 39.2548379,143.503659 C38.2608593,143.964634 37.0923252,144.195122 35.7492358,144.195122 L31.5889843,144.195122 L31.5889843,142.766578 Z M31.1792282,132.243902 L32.8297236,132.243902 L32.8297236,144.195122 L31.1792282,144.195122 L31.1792282,132.243902 Z M44.4280076,132.243902 L46.0897073,132.243902 L46.0897073,144.195122 L44.4280076,144.195122 L44.4280076,132.243902 Z M48.3378804,142.08952 L48.3720268,142.08952 C48.9525146,142.362691 49.606008,142.57326 50.332507,142.721227 C51.0590059,142.869195 51.7447783,142.943178 52.389824,142.943178 C53.5015364,142.943178 54.3021081,142.766756 54.791539,142.41391 C55.2809699,142.061065 55.5256853,141.55456 55.5256853,140.894398 C55.5256853,140.382203 55.3416596,139.981917 54.9736083,139.69354 C54.605557,139.405164 54.0003931,139.17561 53.1581167,139.004878 L51.4393286,138.646341 C50.4718489,138.433816 49.6950197,138.072434 49.1088408,137.562195 C48.5226619,137.051956 48.2295725,136.328214 48.2295725,135.390968 C48.2295725,134.715689 48.4126645,134.128576 48.7788484,133.62963 C49.1450324,133.130685 49.6695877,132.743693 50.3525146,132.468655 C51.0354414,132.193617 51.8606447,132.056098 52.8281243,132.056098 C53.6021081,132.056098 54.3286515,132.131015 55.0077547,132.28085 C55.6868578,132.430685 56.2540517,132.596659 56.7093362,132.778773 L56.7093362,134.258537 L56.6751899,134.258537 C56.2047885,134.065041 55.6338154,133.889552 54.9622707,133.732069 C54.290726,133.574587 53.590726,133.495846 52.8622707,133.495846 C51.9136426,133.495846 51.1813637,133.666578 50.6654338,134.008041 C50.1495039,134.349505 49.891539,134.81048 49.891539,135.390968 C49.891539,135.895694 50.064138,136.289355 50.4093362,136.571951 C50.7545344,136.854548 51.3008759,137.075521 52.0483606,137.23487 L53.8124993,137.61048 C54.5676314,137.766095 55.1936922,137.977642 55.6906815,138.245122 C56.1876708,138.512602 56.5613687,138.857844 56.8117752,139.28085 C57.0621817,139.703855 57.187385,140.234057 57.187385,140.871456 C57.187385,141.599911 57.007183,142.225927 56.6467791,142.749505 C56.2863751,143.273082 55.7504821,143.676213 55.0390999,143.958899 C54.3277178,144.241584 53.4446259,144.382927 52.389824,144.382927 C51.6878677,144.382927 50.9717282,144.311789 50.2414056,144.169512 C49.5110829,144.027236 48.8765745,143.829027 48.3378804,143.574886 L48.3378804,142.08952 Z M59.2760015,132.243902 L60.9377012,132.243902 L60.9377012,144.195122 L59.2760015,144.195122 L59.2760015,132.243902 Z M59.7143018,142.78952 L67.3003917,142.78952 L67.3003917,144.195122 L59.7143018,144.195122 L59.7143018,142.78952 Z M59.6913597,132.243902 L67.1752774,132.243902 L67.1752774,133.649505 L59.6913597,133.649505 L59.6913597,132.243902 Z M59.5777164,137.428544 L66.418189,137.428544 L66.418189,138.811471 L59.5777164,138.811471 L59.5777164,137.428544 Z M68.6490816,144.160976 L74.5166502,132.181212 L75.4727477,132.181212 L81.3288453,144.160976 L81.3288453,144.195122 L79.5134871,144.195122 L77.9654307,140.990968 L77.9427554,140.922675 L74.6647066,134.082203 L75.2793407,134.082203 L71.995423,140.888529 L71.9842188,140.945617 L70.4076182,144.195122 L68.6490816,144.195122 L68.6490816,144.160976 Z M71.3012919,140.217073 L78.6027401,140.217073 L78.6710328,141.565854 L71.2329993,141.565854 L71.3012919,140.217073 Z M82.6948063,142.08952 L82.7289526,142.08952 C83.3094404,142.362691 83.9629338,142.57326 84.6894328,142.721227 C85.4159318,142.869195 86.1017041,142.943178 86.7467499,142.943178 C87.8584623,142.943178 88.6590339,142.766756 89.1484648,142.41391 C89.6378957,142.061065 89.8826112,141.55456 89.8826112,140.894398 C89.8826112,140.382203 89.6985855,139.981917 89.3305342,139.69354 C88.9624829,139.405164 88.357319,139.17561 87.5150426,139.004878 L85.7962545,138.646341 C84.8287748,138.433816 84.0519455,138.072434 83.4657666,137.562195 C82.8795878,137.051956 82.5864984,136.328214 82.5864984,135.390968 C82.5864984,134.715689 82.7695903,134.128576 83.1357743,133.62963 C83.5019582,133.130685 84.0265136,132.743693 84.7094404,132.468655 C85.3923673,132.193617 86.2175705,132.056098 87.1850502,132.056098 C87.9590339,132.056098 88.6855774,132.131015 89.3646805,132.28085 C90.0437837,132.430685 90.6109775,132.596659 91.0662621,132.778773 L91.0662621,134.258537 L91.0321157,134.258537 C90.5617143,134.065041 89.9907412,133.889552 89.3191965,133.732069 C88.6476518,133.574587 87.9476518,133.495846 87.2191965,133.495846 C86.2705685,133.495846 85.5382895,133.666578 85.0223596,134.008041 C84.5064298,134.349505 84.2484648,134.81048 84.2484648,135.390968 C84.2484648,135.895694 84.4210639,136.289355 84.7662621,136.571951 C85.1114602,136.854548 85.6578017,137.075521 86.4052865,137.23487 L88.1694252,137.61048 C88.9245573,137.766095 89.550618,137.977642 90.0476073,138.245122 C90.5445967,138.512602 90.9182946,138.857844 91.1687011,139.28085 C91.4191076,139.703855 91.5443109,140.234057 91.5443109,140.871456 C91.5443109,141.599911 91.3641089,142.225927 91.0037049,142.749505 C90.6433009,143.273082 90.1074079,143.676213 89.3960258,143.958899 C88.6846437,144.241584 87.8015517,144.382927 86.7467499,144.382927 C86.0447936,144.382927 85.3286541,144.311789 84.5983314,144.169512 C83.8680088,144.027236 83.2335004,143.829027 82.6948063,143.574886 L82.6948063,142.08952 Z M93.6329274,132.243902 L95.294627,132.243902 L95.294627,144.195122 L93.6329274,144.195122 L93.6329274,132.243902 Z M94.0712277,142.78952 L101.657318,142.78952 L101.657318,144.195122 L94.0712277,144.195122 L94.0712277,142.78952 Z M94.0482856,132.243902 L101.532203,132.243902 L101.532203,133.649505 L94.0482856,133.649505 L94.0482856,132.243902 Z M93.9346423,137.428544 L100.775115,137.428544 L100.775115,138.811471 L93.9346423,138.811471 L93.9346423,137.428544 Z M107.046651,144.160976 L112.914219,132.181212 L113.870317,132.181212 L119.726415,144.160976 L119.726415,144.195122 L117.911056,144.195122 L116.363,140.990968 L116.340325,140.922675 L113.062276,134.082203 L113.67691,134.082203 L110.392992,140.888529 L110.381788,140.945617 L108.805187,144.195122 L107.046651,144.195122 L107.046651,144.160976 Z M109.698861,140.217073 L117.000309,140.217073 L117.068602,141.565854 L109.630569,141.565854 L109.698861,140.217073 Z M121.092376,142.08952 L121.126522,142.08952 C121.70701,142.362691 122.360503,142.57326 123.087002,142.721227 C123.813501,142.869195 124.499273,142.943178 125.144319,142.943178 C126.256032,142.943178 127.056603,142.766756 127.546034,142.41391 C128.035465,142.061065 128.28018,141.55456 128.28018,140.894398 C128.28018,140.382203 128.096155,139.981917 127.728103,139.69354 C127.360052,139.405164 126.754888,139.17561 125.912612,139.004878 L124.193824,138.646341 C123.226344,138.433816 122.449515,138.072434 121.863336,137.562195 C121.277157,137.051956 120.984068,136.328214 120.984068,135.390968 C120.984068,134.715689 121.16716,134.128576 121.533344,133.62963 C121.899528,133.130685 122.424083,132.743693 123.10701,132.468655 C123.789937,132.193617 124.61514,132.056098 125.582619,132.056098 C126.356603,132.056098 127.083147,132.131015 127.76225,132.28085 C128.441353,132.430685 129.008547,132.596659 129.463831,132.778773 L129.463831,134.258537 L129.429685,134.258537 C128.959284,134.065041 128.388311,133.889552 127.716766,133.732069 C127.045221,133.574587 126.345221,133.495846 125.616766,133.495846 C124.668138,133.495846 123.935859,133.666578 123.419929,134.008041 C122.903999,134.349505 122.646034,134.81048 122.646034,135.390968 C122.646034,135.895694 122.818633,136.289355 123.163831,136.571951 C123.50903,136.854548 124.055371,137.075521 124.802856,137.23487 L126.566994,137.61048 C127.322127,137.766095 127.948187,137.977642 128.445177,138.245122 C128.942166,138.512602 129.315864,138.857844 129.56627,139.28085 C129.816677,139.703855 129.94188,140.234057 129.94188,140.871456 C129.94188,141.599911 129.761678,142.225927 129.401274,142.749505 C129.04087,143.273082 128.504977,143.676213 127.793595,143.958899 C127.082213,144.241584 126.199121,144.382927 125.144319,144.382927 C124.442363,144.382927 123.726223,144.311789 122.995901,144.169512 C122.265578,144.027236 121.63107,143.829027 121.092376,143.574886 L121.092376,142.08952 Z M131.683431,142.08952 L131.717577,142.08952 C132.298065,142.362691 132.951559,142.57326 133.678058,142.721227 C134.404557,142.869195 135.090329,142.943178 135.735375,142.943178 C136.847087,142.943178 137.647659,142.766756 138.13709,142.41391 C138.626521,142.061065 138.871236,141.55456 138.871236,140.894398 C138.871236,140.382203 138.68721,139.981917 138.319159,139.69354 C137.951108,139.405164 137.345944,139.17561 136.503667,139.004878 L134.784879,138.646341 C133.8174,138.433816 133.04057,138.072434 132.454391,137.562195 C131.868213,137.051956 131.575123,136.328214 131.575123,135.390968 C131.575123,134.715689 131.758215,134.128576 132.124399,133.62963 C132.490583,133.130685 133.015138,132.743693 133.698065,132.468655 C134.380992,132.193617 135.206195,132.056098 136.173675,132.056098 C136.947659,132.056098 137.674202,132.131015 138.353305,132.28085 C139.032409,132.430685 139.599602,132.596659 140.054887,132.778773 L140.054887,134.258537 L140.020741,134.258537 C139.550339,134.065041 138.979366,133.889552 138.307821,133.732069 C137.636277,133.574587 136.936277,133.495846 136.207821,133.495846 C135.259193,133.495846 134.526914,133.666578 134.010984,134.008041 C133.495055,134.349505 133.23709,134.81048 133.23709,135.390968 C133.23709,135.895694 133.409689,136.289355 133.754887,136.571951 C134.100085,136.854548 134.646427,137.075521 135.393911,137.23487 L137.15805,137.61048 C137.913182,137.766095 138.539243,137.977642 139.036232,138.245122 C139.533222,138.512602 139.906919,138.857844 140.157326,139.28085 C140.407732,139.703855 140.532936,140.234057 140.532936,140.871456 C140.532936,141.599911 140.352734,142.225927 139.99233,142.749505 C139.631926,143.273082 139.096033,143.676213 138.384651,143.958899 C137.673269,144.241584 136.790177,144.382927 135.735375,144.382927 C135.033418,144.382927 134.317279,144.311789 133.586956,144.169512 C132.856634,144.027236 132.222125,143.829027 131.683431,143.574886 L131.683431,142.08952 Z M142.433747,139.164139 L142.433747,132.243902 L144.095447,132.243902 L144.095447,139.141463 C144.095447,139.945859 144.242481,140.624073 144.536548,141.176105 C144.830616,141.728138 145.255578,142.145452 145.811434,142.428049 C146.36729,142.710645 147.024563,142.851944 147.783252,142.851944 C148.553501,142.851944 149.213708,142.710645 149.763873,142.428049 C150.314038,142.145452 150.73611,141.728138 151.030089,141.176105 C151.324067,140.624073 151.471057,139.945859 151.471057,139.141463 L151.471057,132.243902 L153.087406,132.243902 L153.087406,139.164139 C153.087406,140.340409 152.857852,141.315536 152.398743,142.08952 C151.939635,142.863504 151.310773,143.439234 150.512158,143.816711 C149.713543,144.194188 148.796349,144.382927 147.760577,144.382927 C146.728539,144.382927 145.812279,144.194188 145.011796,143.816711 C144.211313,143.439234 143.581518,142.863504 143.12241,142.08952 C142.663301,141.315536 142.433747,140.340409 142.433747,139.164139 Z M155.494729,132.243902 L157.145225,132.243902 L157.145225,144.195122 L155.494729,144.195122 L155.494729,132.243902 Z M156.723997,138.339024 L159.364737,138.339024 C160.002135,138.339024 160.550344,138.262195 161.009363,138.108537 C161.468383,137.954878 161.823096,137.706383 162.073502,137.363053 C162.323909,137.019722 162.449112,136.567238 162.449112,136.005602 C162.449112,135.159591 162.176919,134.559229 161.632534,134.204516 C161.088149,133.849803 160.332216,133.672447 159.364737,133.672447 L156.718395,133.672447 L156.718395,132.243902 L159.694729,132.243902 C160.63571,132.243902 161.440061,132.381421 162.107782,132.65646 C162.775503,132.931498 163.290543,133.344099 163.652904,133.894264 C164.015264,134.44443 164.196444,135.133092 164.196444,135.960252 C164.196444,136.631796 164.056035,137.21513 163.775217,137.710252 C163.494399,138.205373 163.104561,138.604681 162.605705,138.908175 C162.106848,139.211668 161.531073,139.418458 160.87838,139.528544 L161.236917,139.0617 L165.425712,144.160976 L165.425712,144.195122 L163.41668,144.195122 L159.563746,139.471456 L160.08181,139.767569 L156.723997,139.767569 L156.723997,138.339024 Z M166.455631,144.160976 L172.323199,132.181212 L173.279297,132.181212 L179.135395,144.160976 L179.135395,144.195122 L177.320036,144.195122 L175.77198,140.990968 L175.749305,140.922675 L172.471256,134.082203 L173.08589,134.082203 L169.801972,140.888529 L169.790768,140.945617 L168.214167,144.195122 L166.455631,144.195122 L166.455631,144.160976 Z M169.107841,140.217073 L176.409289,140.217073 L176.477582,141.565854 L169.039548,141.565854 L169.107841,140.217073 Z M180.848421,132.243902 L181.97525,132.243902 L189.72647,141.730716 L189.322316,141.844627 L189.322316,132.243902 L190.91599,132.243902 L190.91599,144.195122 L189.78916,144.195122 L182.037941,134.708308 L182.441828,134.594398 L182.441828,144.195122 L180.848421,144.195122 L180.848421,132.243902 Z M192.953216,138.219512 C192.953216,137.267149 193.115411,136.410645 193.439801,135.65 C193.764191,134.889355 194.215697,134.24342 194.794317,133.712195 C195.372938,133.180971 196.052085,132.772148 196.83176,132.485728 C197.611435,132.199308 198.454689,132.056098 199.361524,132.056098 C200.116478,132.056098 200.786111,132.126302 201.370422,132.266711 C201.954734,132.40712 202.501031,132.598704 203.009313,132.841463 L203.009313,134.378049 L202.975167,134.378049 C202.637616,134.19967 202.281036,134.052636 201.905426,133.936947 C201.529816,133.821259 201.141846,133.734026 200.741516,133.675248 C200.341186,133.61647 199.922893,133.587081 199.486638,133.587081 C198.780947,133.587081 198.134078,133.696145 197.546032,133.914272 C196.957986,134.1324 196.448636,134.445408 196.017983,134.853296 C195.58733,135.261185 195.254403,135.748704 195.019203,136.315854 C194.784002,136.883003 194.666402,137.517556 194.666402,138.219512 C194.666402,138.917556 194.784002,139.551131 195.019203,140.120236 C195.254403,140.689342 195.58733,141.177839 196.017983,141.585728 C196.448636,141.993617 196.957986,142.306625 197.546032,142.524752 C198.134078,142.74288 198.780947,142.851944 199.486638,142.851944 C199.922893,142.851944 200.341186,142.822555 200.741516,142.763777 C201.141846,142.704999 201.529816,142.615854 201.905426,142.496341 C202.281036,142.376829 202.64144,142.231707 202.986638,142.060976 L203.020784,142.060976 L203.020784,143.591959 C202.504854,143.834718 201.954734,144.027236 201.370422,144.169512 C200.786111,144.311789 200.116478,144.382927 199.361524,144.382927 C198.454689,144.382927 197.611435,144.239717 196.83176,143.953296 C196.052085,143.666876 195.372938,143.258054 194.794317,142.726829 C194.215697,142.195605 193.764191,141.548692 193.439801,140.78609 C193.115411,140.023488 192.953216,139.167962 192.953216,138.219512 Z M205.160611,132.243902 L206.822311,132.243902 L206.822311,144.195122 L205.160611,144.195122 L205.160611,132.243902 Z M205.598911,142.78952 L213.185001,142.78952 L213.185001,144.195122 L205.598911,144.195122 L205.598911,142.78952 Z M205.575969,132.243902 L213.059887,132.243902 L213.059887,133.649505 L205.575969,133.649505 L205.575969,132.243902 Z M205.462326,137.428544 L212.302798,137.428544 L212.302798,138.811471 L205.462326,138.811471 L205.462326,137.428544 Z M67.3260963,164.284642 L67.3602427,164.284642 C67.9407305,164.557813 68.5942239,164.768382 69.3207228,164.916349 C70.0472218,165.064317 70.7329942,165.1383 71.3780399,165.1383 C72.4897523,165.1383 73.290324,164.961878 73.7797549,164.609032 C74.2691858,164.256186 74.5139012,163.749682 74.5139012,163.08952 C74.5139012,162.577325 74.3298755,162.177039 73.9618242,161.888662 C73.5937729,161.600286 72.988609,161.370732 72.1463326,161.2 L70.4275445,160.841463 C69.4600648,160.628938 68.6832356,160.267556 68.0970567,159.757317 C67.5108778,159.247078 67.2177884,158.523336 67.2177884,157.58609 C67.2177884,156.91081 67.4008804,156.323698 67.7670643,155.824752 C68.1332483,155.325807 68.6578036,154.938815 69.3407305,154.663777 C70.0236573,154.388739 70.8488606,154.25122 71.8163402,154.25122 C72.590324,154.25122 73.3168674,154.326137 73.9959706,154.475972 C74.6750737,154.625807 75.2422676,154.791781 75.6975521,154.973895 L75.6975521,156.453659 L75.6634058,156.453659 C75.1930044,156.260163 74.6220313,156.084674 73.9504866,155.927191 C73.2789419,155.769709 72.5789419,155.690968 71.8504866,155.690968 C70.9018585,155.690968 70.1695796,155.8617 69.6536497,156.203163 C69.1377198,156.544627 68.8797549,157.005602 68.8797549,157.58609 C68.8797549,158.090816 69.0523539,158.484477 69.3975521,158.767073 C69.7427503,159.04967 70.2890918,159.270643 71.0365765,159.429992 L72.8007152,159.805602 C73.5558473,159.961217 74.1819081,160.172764 74.6788974,160.440244 C75.1758867,160.707724 75.5495846,161.052966 75.7999911,161.475972 C76.0503976,161.898977 76.1756009,162.429179 76.1756009,163.066578 C76.1756009,163.795033 75.9953989,164.421049 75.634995,164.944627 C75.274591,165.468204 74.738698,165.871335 74.0273158,166.154021 C73.3159337,166.436706 72.4328418,166.578049 71.3780399,166.578049 C70.6760836,166.578049 69.9599441,166.506911 69.2296215,166.364634 C68.4992988,166.222358 67.8647904,166.024149 67.3260963,165.770008 L67.3260963,164.284642 Z M77.7064049,160.414634 C77.7064049,159.462271 77.8686,158.605767 78.1929903,157.845122 C78.5173805,157.084477 78.9688858,156.438542 79.5475063,155.907317 C80.1261267,155.376092 80.8052743,154.96727 81.5849491,154.68085 C82.3646239,154.39443 83.2078785,154.25122 84.1147128,154.25122 C84.8696671,154.25122 85.5393,154.321424 86.1236115,154.461833 C86.7079229,154.602242 87.2542199,154.793826 87.7625025,155.036585 L87.7625025,156.573171 L87.7283561,156.573171 C87.3908053,156.394792 87.034225,156.247758 86.6586153,156.132069 C86.2830055,156.016381 85.8950355,155.929148 85.4947052,155.87037 C85.0943749,155.811592 84.6760822,155.782203 84.2398272,155.782203 C83.5341361,155.782203 82.8872674,155.891267 82.2992212,156.109394 C81.711175,156.327522 81.2018254,156.64053 80.7711724,157.048418 C80.3405195,157.456307 80.0075926,157.943826 79.7723919,158.510976 C79.5371912,159.078125 79.4195909,159.712678 79.4195909,160.414634 C79.4195909,161.112678 79.5371912,161.746253 79.7723919,162.315358 C80.0075926,162.884464 80.3405195,163.372961 80.7711724,163.78085 C81.2018254,164.188739 81.711175,164.501747 82.2992212,164.719874 C82.8872674,164.938002 83.5341361,165.047066 84.2398272,165.047066 C84.6760822,165.047066 85.0943749,165.017677 85.4947052,164.958899 C85.8950355,164.900121 86.2830055,164.810976 86.6586153,164.691463 C87.034225,164.571951 87.394629,164.426829 87.7398272,164.256098 L87.7739735,164.256098 L87.7739735,165.787081 C87.2580436,166.02984 86.7079229,166.222358 86.1236115,166.364634 C85.5393,166.506911 84.8696671,166.578049 84.1147128,166.578049 C83.2078785,166.578049 82.3646239,166.434839 81.5849491,166.148418 C80.8052743,165.861998 80.1261267,165.453176 79.5475063,164.921951 C78.9688858,164.390727 78.5173805,163.743814 78.1929903,162.981212 C77.8686,162.21861 77.7064049,161.363084 77.7064049,160.414634 Z M89.9138001,154.439024 L91.5754998,154.439024 L91.5754998,166.390244 L89.9138001,166.390244 L89.9138001,154.439024 Z M98.6381904,154.439024 L100.29989,154.439024 L100.29989,166.390244 L98.6381904,166.390244 L98.6381904,154.439024 Z M99.5716126,161.046341 L90.5511096,161.046341 L90.5511096,159.63487 L99.5716126,159.63487 L99.5716126,161.046341 Z M102.895112,154.439024 L104.556812,154.439024 L104.556812,166.390244 L102.895112,166.390244 L102.895112,154.439024 Z M103.333412,164.984642 L110.919502,164.984642 L110.919502,166.390244 L103.333412,166.390244 L103.333412,164.984642 Z M103.31047,154.439024 L110.794388,154.439024 L110.794388,155.844627 L103.31047,155.844627 L103.31047,154.439024 Z M103.196827,159.623666 L110.0373,159.623666 L110.0373,161.006593 L103.196827,161.006593 L103.196827,159.623666 Z M113.150395,154.439024 L114.345517,154.439024 L120.030883,163.760976 L119.490143,163.766578 L125.12429,154.439024 L126.319412,154.439024 L126.319412,166.390244 L124.726005,166.390244 L124.726005,157.32439 L125.055997,157.404154 L120.161866,165.485366 L119.308207,165.485366 L114.408207,157.404154 L114.743802,157.32439 L114.743802,166.390244 L113.150395,166.390244 L113.150395,154.439024 Z M128.914636,154.439024 L130.576335,154.439024 L130.576335,166.390244 L128.914636,166.390244 L128.914636,154.439024 Z M129.352936,164.984642 L136.939026,164.984642 L136.939026,166.390244 L129.352936,166.390244 L129.352936,164.984642 Z M129.329994,154.439024 L136.813912,154.439024 L136.813912,155.844627 L129.329994,155.844627 L129.329994,154.439024 Z M129.216351,159.623666 L136.056823,159.623666 L136.056823,161.006593 L129.216351,161.006593 L129.216351,159.623666 Z M143.210562,154.439024 L144.872262,154.439024 L144.872262,166.390244 L143.210562,166.390244 L143.210562,154.439024 Z M143.631789,154.439024 L150.95031,154.439024 L150.95031,155.844627 L143.631789,155.844627 L143.631789,154.439024 Z M143.517879,160.067569 L150.164945,160.067569 L150.164945,161.450495 L143.517879,161.450495 L143.517879,160.067569 Z M152.407221,160.414634 C152.407221,159.462271 152.573239,158.605767 152.905277,157.845122 C153.237315,157.084477 153.694511,156.438542 154.276866,155.907317 C154.859221,155.376092 155.530766,154.96727 156.2915,154.68085 C157.052235,154.39443 157.863166,154.25122 158.724294,154.25122 C159.5856,154.25122 160.39662,154.39443 161.157354,154.68085 C161.918088,154.96727 162.589633,155.376092 163.171988,155.907317 C163.754343,156.438542 164.211495,157.084477 164.543444,157.845122 C164.875393,158.605767 165.041367,159.462271 165.041367,160.414634 C165.041367,161.363084 164.875393,162.21861 164.543444,162.981212 C164.211495,163.743814 163.754343,164.390727 163.171988,164.921951 C162.589633,165.453176 161.918088,165.861998 161.157354,166.148418 C160.39662,166.434839 159.5856,166.578049 158.724294,166.578049 C157.863166,166.578049 157.052235,166.434839 156.2915,166.148418 C155.530766,165.861998 154.859221,165.453176 154.276866,164.921951 C153.694511,164.390727 153.237315,163.743814 152.905277,162.981212 C152.573239,162.21861 152.407221,161.363084 152.407221,160.414634 Z M154.120407,160.414634 C154.120407,161.112678 154.239919,161.746253 154.478943,162.315358 C154.717968,162.884464 155.048983,163.372961 155.471988,163.78085 C155.894994,164.188739 156.383447,164.501747 156.937346,164.719874 C157.491246,164.938002 158.086895,165.047066 158.724294,165.047066 C159.361692,165.047066 159.957386,164.938002 160.511375,164.719874 C161.065363,164.501747 161.553861,164.188739 161.976866,163.78085 C162.399872,163.372961 162.730887,162.884464 162.969911,162.315358 C163.208936,161.746253 163.328448,161.112678 163.328448,160.414634 C163.328448,159.712678 163.208936,159.078125 162.969911,158.510976 C162.730887,157.943826 162.399872,157.456307 161.976866,157.048418 C161.553861,156.64053 161.065363,156.327522 160.511375,156.109394 C159.957386,155.891267 159.361692,155.782203 158.724294,155.782203 C158.086895,155.782203 157.491246,155.891267 156.937346,156.109394 C156.383447,156.327522 155.894994,156.64053 155.471988,157.048418 C155.048983,157.456307 154.717968,157.943826 154.478943,158.510976 C154.239919,159.078125 154.120407,159.712678 154.120407,160.414634 Z M167.078856,154.439024 L168.729351,154.439024 L168.729351,166.390244 L167.078856,166.390244 L167.078856,154.439024 Z M168.308124,160.534146 L170.948863,160.534146 C171.586262,160.534146 172.134471,160.457317 172.59349,160.303659 C173.052509,160.15 173.407222,159.901505 173.657629,159.558175 C173.908035,159.214844 174.033238,158.76236 174.033238,158.200724 C174.033238,157.354713 173.761046,156.754351 173.216661,156.399638 C172.672275,156.044925 171.916343,155.867569 170.948863,155.867569 L168.302522,155.867569 L168.302522,154.439024 L171.278856,154.439024 C172.219836,154.439024 173.024187,154.576543 173.691908,154.851582 C174.359629,155.12662 174.87467,155.539221 175.23703,156.089386 C175.599391,156.639552 175.780571,157.328214 175.780571,158.155373 C175.780571,158.826918 175.640162,159.410252 175.359344,159.905373 C175.078525,160.400495 174.688688,160.799803 174.189831,161.103296 C173.690975,161.40679 173.1152,161.61358 172.462507,161.723666 L172.821043,161.256822 L177.009839,166.356098 L177.009839,166.390244 L175.000807,166.390244 L171.147872,161.666578 L171.665937,161.962691 L168.308124,161.962691 L168.308124,160.534146 Z M70.9483554,176.634146 L72.6100551,176.634146 L72.6100551,188.585366 L70.9483554,188.585366 L70.9483554,176.634146 Z M79.6727456,176.634146 L81.3344453,176.634146 L81.3344453,188.585366 L79.6727456,188.585366 L79.6727456,176.634146 Z M80.6061679,183.241463 L71.5856649,183.241463 L71.5856649,181.829992 L80.6061679,181.829992 L80.6061679,183.241463 Z M83.3718548,182.609756 C83.3718548,181.657393 83.5378736,180.800889 83.8699112,180.040244 C84.2019488,179.279599 84.6591452,178.633664 85.2415004,178.102439 C85.8238556,177.571214 86.4954003,177.162392 87.2561346,176.875972 C88.0168688,176.589552 88.8278,176.446341 89.688928,176.446341 C90.5502339,176.446341 91.361254,176.589552 92.1219882,176.875972 C92.8827225,177.162392 93.5542672,177.571214 94.1366224,178.102439 C94.7189775,178.633664 95.1761295,179.279599 95.5080782,180.040244 C95.8400268,180.800889 96.0060012,181.657393 96.0060012,182.609756 C96.0060012,183.558206 95.8400268,184.413732 95.5080782,185.176334 C95.1761295,185.938935 94.7189775,186.585849 94.1366224,187.117073 C93.5542672,187.648298 92.8827225,188.05712 92.1219882,188.34354 C91.361254,188.629961 90.5502339,188.773171 89.688928,188.773171 C88.8278,188.773171 88.0168688,188.629961 87.2561346,188.34354 C86.4954003,188.05712 85.8238556,187.648298 85.2415004,187.117073 C84.6591452,186.585849 84.2019488,185.938935 83.8699112,185.176334 C83.5378736,184.413732 83.3718548,183.558206 83.3718548,182.609756 Z M85.0850408,182.609756 C85.0850408,183.3078 85.204553,183.941374 85.4435774,184.51048 C85.6826018,185.079586 86.0136168,185.568083 86.4366224,185.975972 C86.8596279,186.383861 87.3480807,186.696869 87.9019806,186.914996 C88.4558805,187.133124 89.0515296,187.242188 89.688928,187.242188 C90.3263264,187.242188 90.92202,187.133124 91.4760088,186.914996 C92.0299976,186.696869 92.5184948,186.383861 92.9415004,185.975972 C93.364506,185.568083 93.695521,185.079586 93.9345454,184.51048 C94.1735698,183.941374 94.293082,183.3078 94.293082,182.609756 C94.293082,181.9078 94.1735698,181.273247 93.9345454,180.706098 C93.695521,180.138948 93.364506,179.651429 92.9415004,179.24354 C92.5184948,178.835652 92.0299976,178.522644 91.4760088,178.304516 C90.92202,178.086388 90.3263264,177.977325 89.688928,177.977325 C89.0515296,177.977325 88.4558805,178.086388 87.9019806,178.304516 C87.3480807,178.522644 86.8596279,178.835652 86.4366224,179.24354 C86.0136168,179.651429 85.6826018,180.138948 85.4435774,180.706098 C85.204553,181.273247 85.0850408,181.9078 85.0850408,182.609756 Z M98.0434899,176.634146 L99.1703191,176.634146 L106.921539,186.12096 L106.517385,186.23487 L106.517385,176.634146 L108.111058,176.634146 L108.111058,188.585366 L106.984229,188.585366 L99.2330097,179.098552 L99.6368969,178.984642 L99.6368969,188.585366 L98.0434899,188.585366 L98.0434899,176.634146 Z M110.706097,176.634146 L112.367797,176.634146 L112.367797,188.585366 L110.706097,188.585366 L110.706097,176.634146 Z M111.144397,187.179764 L118.730487,187.179764 L118.730487,188.585366 L111.144397,188.585366 L111.144397,187.179764 Z M111.121455,176.634146 L118.605373,176.634146 L118.605373,178.039748 L111.121455,178.039748 L111.121455,176.634146 Z M111.007812,181.818788 L117.848285,181.818788 L117.848285,183.201715 L111.007812,183.201715 L111.007812,181.818788 Z M124.9509,183.622675 L120.079177,176.679764 L120.079177,176.634146 L122.019916,176.634146 L125.992363,182.376334 L125.667973,182.376334 L129.640153,176.634146 L131.506997,176.634146 L131.506997,176.679764 L126.612599,183.622675 L126.612599,188.585366 L124.9509,188.585366 L124.9509,183.622675 Z M133.680915,187.225114 L138.046045,187.225114 C138.626532,187.225114 139.131125,187.155888 139.559821,187.017435 C139.988518,186.878982 140.322378,186.655164 140.561403,186.345979 C140.800427,186.036795 140.919939,185.62984 140.919939,185.125114 C140.919939,184.419423 140.680915,183.900603 140.202866,183.568655 C139.724817,183.236706 139.02295,183.070732 138.097264,183.070732 L134.153362,183.070732 L134.141891,181.733422 L137.829695,181.733422 C138.656855,181.733422 139.262019,181.569315 139.645187,181.241101 C140.028355,180.912887 140.219939,180.435772 140.219939,179.809756 C140.219939,179.362119 140.12128,179.005494 139.92396,178.739882 C139.72664,178.47427 139.443021,178.283619 139.073102,178.167931 C138.703184,178.052242 138.260259,177.994398 137.74433,177.994398 L133.783354,177.994398 L133.783354,176.634146 L138.023102,176.634146 C139.316929,176.634146 140.293923,176.892156 140.954086,177.408175 C141.614248,177.924193 141.94433,178.665943 141.94433,179.633422 C141.94433,180.365612 141.741363,180.992562 141.335431,181.514272 C140.929499,182.035982 140.356614,182.357482 139.616776,182.478773 L139.73042,182.188529 C140.640989,182.272116 141.352371,182.566184 141.864566,183.070732 C142.376761,183.575279 142.632859,184.269588 142.632859,185.153659 C142.632859,185.866997 142.463105,186.480697 142.123598,186.99476 C141.784091,187.508822 141.286123,187.902439 140.629695,188.17561 C139.973268,188.44878 139.168961,188.585366 138.216776,188.585366 L133.680915,188.585366 L133.680915,187.225114 Z M133.219939,176.634146 L134.858964,176.634146 L134.858964,188.585366 L133.219939,188.585366 L133.219939,176.634146 Z M144.545145,176.634146 L146.206845,176.634146 L146.206845,188.585366 L144.545145,188.585366 L144.545145,176.634146 Z M144.983446,187.179764 L152.569536,187.179764 L152.569536,188.585366 L144.983446,188.585366 L144.983446,187.179764 Z M144.960504,176.634146 L152.444421,176.634146 L152.444421,178.039748 L144.960504,178.039748 L144.960504,176.634146 Z M144.84686,181.818788 L151.687333,181.818788 L151.687333,183.201715 L144.84686,183.201715 L144.84686,181.818788 Z M154.800428,176.634146 L156.462128,176.634146 L156.462128,188.585366 L154.800428,188.585366 L154.800428,176.634146 Z M155.238729,187.179764 L162.824818,187.179764 L162.824818,188.585366 L155.238729,188.585366 L155.238729,187.179764 Z M155.215786,176.634146 L162.699704,176.634146 L162.699704,178.039748 L155.215786,178.039748 L155.215786,176.634146 Z M155.102143,181.818788 L161.942616,181.818788 L161.942616,183.201715 L155.102143,183.201715 L155.102143,181.818788 Z M164.708645,186.479764 L164.742792,186.479764 C165.32328,186.752934 165.976773,186.963504 166.703272,187.111471 C167.429771,187.259439 168.115543,187.333422 168.760589,187.333422 C169.872301,187.333422 170.672873,187.156999 171.162304,186.804154 C171.651735,186.451308 171.89645,185.944804 171.89645,185.284642 C171.89645,184.772447 171.712425,184.372161 171.344373,184.083784 C170.976322,183.795408 170.371158,183.565854 169.528882,183.395122 L167.810094,183.036585 C166.842614,182.82406 166.065785,182.462678 165.479606,181.952439 C164.893427,181.4422 164.600338,180.718458 164.600338,179.781212 C164.600338,179.105932 164.78343,178.51882 165.149613,178.019874 C165.515797,177.520929 166.040353,177.133937 166.72328,176.858899 C167.406206,176.583861 168.23141,176.446341 169.198889,176.446341 C169.972873,176.446341 170.699417,176.521259 171.37852,176.671094 C172.057623,176.820929 172.624817,176.986903 173.080101,177.169017 L173.080101,178.64878 L173.045955,178.64878 C172.575554,178.455285 172.00458,178.279795 171.333036,178.122313 C170.661491,177.964831 169.961491,177.88609 169.233036,177.88609 C168.284408,177.88609 167.552129,178.056822 167.036199,178.398285 C166.520269,178.739748 166.262304,179.200724 166.262304,179.781212 C166.262304,180.285938 166.434903,180.679599 166.780101,180.962195 C167.125299,181.244792 167.671641,181.465765 168.419126,181.625114 L170.183264,182.000724 C170.938396,182.156339 171.564457,182.367886 172.061447,182.635366 C172.558436,182.902846 172.932134,183.248088 173.18254,183.671094 C173.432947,184.094099 173.55815,184.624301 173.55815,185.2617 C173.55815,185.990155 173.377948,186.616171 173.017544,187.139748 C172.65714,187.663326 172.121247,188.066457 171.409865,188.349143 C170.698483,188.631828 169.815391,188.773171 168.760589,188.773171 C168.058633,188.773171 167.342493,188.702033 166.612171,188.559756 C165.881848,188.41748 165.24734,188.219271 164.708645,187.96513 L164.708645,186.479764 Z M67.76,110.08 L67.76,56.16 L67.6,56.16 C63.12,57.76 56.72,59.84 51.2,61.52 L51.2,61.68 C56.64,62.24 58,63.92 58,69.76 L58,79.76 C55.04,77.92 50.88,76.72 46.64,76.72 C34.32,76.72 26.08,86.16 26.08,100.32 C26.08,112.56 33.36,120.8 44.24,120.8 C49.28,120.8 54.8,117.92 58,113.36 L58,120.8 L58.16,120.8 C63.2,119.6 69.84,118.32 74.64,117.52 L74.64,117.36 C69.12,117.04 67.76,115.52 67.76,110.08 Z M48.4,117.92 C41.52,117.92 36.72,110.24 36.72,98.72 C36.72,86.32 41.6,78 48.8,78 C52.56,78 56.16,80.56 58,85.44 L58,112.08 C55.52,115.6 51.76,117.92 48.4,117.92 Z M123.12,110.56 C121.52,114.24 119.76,116.16 117.92,116.16 C116.4,116.16 115.92,115.36 115.92,113.04 L115.92,89.2 C115.92,81.36 111.04,76.72 102.8,76.72 C93.2,76.72 81.36,82.8 81.36,91.68 C81.36,94.64 83.2,96.32 86.08,96.32 C87.68,96.32 89.52,95.76 90.88,94.88 L90.88,80.56 C92.88,79.36 95.68,78.4 98.16,78.4 C103.2,78.4 106.16,81.6 106.16,87.04 L106.16,96.48 L90.24,102.32 C82,105.44 78.96,108.32 78.96,112.56 C78.96,117.52 83.28,120.8 90.16,120.8 C96.16,120.8 101.76,117.92 106.16,113.52 L106.16,115.52 C106.48,118.8 109.12,120.8 113.28,120.8 C117.68,120.8 121.36,117.12 123.28,110.72 L123.12,110.56 Z M95.44,117.36 C91.76,117.36 89.36,114.88 89.36,110.96 C89.36,106.72 92.48,102.64 99.68,99.76 L106.16,97.36 L106.16,112.56 C102.48,115.44 99.04,117.36 95.44,117.36 Z M145.6,120.8 C156.88,120.8 163.76,115.68 163.76,107.76 C163.76,100.16 155.52,97.12 148,94.4 C141.6,92.24 135.84,89.68 135.84,84.8 C135.84,80.48 139.36,77.68 144.64,77.68 C152,77.68 159.2,83.44 162.08,92.24 L162.24,92.16 L158.96,77.12 L158.8,77.12 C157.68,78.64 156.88,79.04 155.68,79.04 C153.28,79.04 149.92,76.72 144.4,76.72 C134.72,76.72 128.32,81.76 128.32,89.52 C128.32,97.28 136.48,100.08 143.84,102.56 C150,104.64 155.52,106.96 155.52,111.92 C155.52,116.88 152.08,119.84 145.36,119.84 C137.92,119.84 130.64,114 127.04,104.72 L126.88,104.8 L130.16,120.4 L130.32,120.4 C131.52,118.56 132.48,118 133.6,118 C135.84,118 139.04,120.8 145.6,120.8 Z M213.76,112.4 L213.76,89.2 C213.76,81.36 209.36,76.72 201.84,76.72 C195.92,76.72 190,79.6 185.04,84 L185.04,56.16 L184.88,56.16 C180.4,57.76 174,59.84 168.48,61.52 L168.48,61.68 C173.92,62.24 175.28,63.92 175.28,69.76 L175.28,112.4 C175.28,118 173.92,119.52 168.48,119.84 L168.48,120 L191.52,120 L191.52,119.84 C186.32,119.52 185.04,118 185.04,112.4 L185.04,84.96 C188.8,82.08 192.32,80.08 196,80.08 C201.2,80.08 204,83.2 204,88.96 L204,112.4 C204,118 202.72,119.52 197.52,119.84 L197.52,120 L220.56,120 L220.56,119.84 C215.04,119.52 213.76,118 213.76,112.4 Z" id="Combined-Shape" fill="#FBF8F2" fill-rule="nonzero"></path>
        </g>
    </g>
</svg>