<svg xmlns="http://www.w3.org/2000/svg" viewBox="0 0 489 57"><g fill="none" fill-rule="evenodd"><path fill="#120805" fill-rule="nonzero" d="M83.303 34.38h12.555q.957 0 1.556-.237t.888-.686.29-1.066q-.001-.64-.296-1.076-.296-.435-.915-.67-.618-.235-1.582-.235h-9.244v-4.955h8.383q.897 0 1.431-.237.534-.236.774-.669.24-.432.24-.972 0-.57-.263-.958-.261-.389-.802-.594-.54-.204-1.422-.205H83.354V16.2H97.17q2.77 0 4.762.698 1.994.698 3.079 2.093t1.085 3.511q0 2.09-1.218 3.594-1.217 1.503-3.353 2.108l.319-1.091q2.783.513 4.212 2 1.429 1.49 1.429 3.92 0 2.23-1.175 3.79t-3.3 2.368-4.984.809H83.303zM81.572 16.2h8.462V40h-8.462zm28.016 12.471V16.2h8.663v12.074q0 1.618.605 2.706.603 1.089 1.797 1.634 1.192.544 2.92.544 1.76 0 2.938-.544 1.179-.546 1.787-1.634t.608-2.706V16.2h8.346v12.471q0 3.164-1.023 5.422t-2.878 3.664q-1.854 1.405-4.378 2.065t-5.553.659q-3.023 0-5.55-.66-2.526-.658-4.38-2.064-1.855-1.408-2.878-3.664-1.024-2.259-1.024-5.422m30.034 9.685 13.34-16.335.563.943h-13.481V16.2h25.86v1.644L152.77 34.188l-.603-.952h14.195V40h-26.74zm28.67 0 13.34-16.335.563.943h-13.482V16.2h25.86v1.644L181.44 34.188l-.602-.952h14.194V40h-26.74zM205.877 16.2h6.324l13.15 12.558-1.07.59V16.2h8.232V40h-6.324l-13.147-12.547 1.067-.594V40h-8.232zm29.944 0h8.591V40h-8.591zm1.689 17.87h20.53V40h-20.53zm-.007-17.87h20.341v5.93h-20.34zm-.394 9.101h19.239v5.375H237.11zM259.5 16.2h9.809l5.705 14.242-3.008-.007 6.263-14.235h5.333l6.217 14.235-2.962.007 5.738-14.242h9.514v.068L292.19 40h-6.025l-6.624-14.675h2.558L275.441 40h-6.025L259.5 16.268zm43.538 16.15h.068a24 24 0 0 0 1.964.51q1.14.249 2.49.463 1.349.213 2.829.335t2.993.123q1.464 0 2.335-.178.87-.178 1.262-.534a1.14 1.14 0 0 0 .392-.879q0-.472-.298-.774-.297-.303-1.016-.523t-2.043-.402l-3.652-.49q-2.705-.421-4.415-1.317T303.43 26.4q-.807-1.389-.807-3.246 0-2.276 1.391-3.938 1.392-1.665 4.185-2.58 2.794-.918 7.002-.918 2.25 0 4.218.188 1.967.187 3.62.488 1.651.3 2.931.653V23.8h-.068q-1.028-.342-2.615-.657a41 41 0 0 0-3.504-.527 37 37 0 0 0-4-.212q-1.425 0-2.29.163-.868.162-1.261.488a1.06 1.06 0 0 0-.395.855q0 .447.3.754t1.017.502 1.926.391l3.565.49q2.862.449 4.606 1.298 1.744.85 2.544 2.177.798 1.329.799 3.258 0 2.258-1.302 3.999-1.303 1.74-4.071 2.721-2.769.98-7.164.98-2.422 0-4.46-.178a36 36 0 0 1-3.668-.492 26 26 0 0 1-2.891-.714zm26.14-16.15h8.663V40h-8.663zm1.343 16.962h20.035V40H330.52zM352.98 16.2h8.592V40h-8.592zm1.69 17.87h20.53V40h-20.53zm-.007-17.87h20.34v5.93h-20.34zm-.394 9.101h19.238v5.375H354.27zm31.82-8.761h8.648V40h-8.648zm-9.177-.34h27.002v6.838h-27.002zm37.97.34h8.648V40h-8.648zm-9.177-.34h27.002v6.838h-27.002zm29.263 0h8.592V40h-8.592zm1.69 17.87h20.53V40h-20.53zm-.007-17.87h20.34v5.93h-20.34zm-.394 9.101h19.238v5.375h-19.238zm23.69-9.101h8.555V40h-8.555zm7.368 11.263h5.248q1.269 0 2.113-.253.843-.252 1.27-.822.425-.57.425-1.505 0-.962-.421-1.517-.423-.556-1.26-.802-.84-.246-2.095-.246h-5.28V16.2h6.746q3.46 0 5.958.892 2.496.892 3.852 2.701t1.356 4.567q0 1.927-.852 3.519-.851 1.592-2.47 2.667t-3.928 1.456l2.64-1.605 7.446 9.535V40h-10.186l-5.447-7.626 1.96.877h-7.075z"/><path fill="#eb6d13" d="m24.371 0 24.37 14.035v28.071l-24.37 14.035L0 42.106V14.035z"/><path fill="#fff" fill-rule="nonzero" d="M24 11c9.389 0 17 7.611 17 17v2.55a5.95 5.95 0 0 1-10.876 3.339A8.47 8.47 0 0 1 24 36.5a8.5 8.5 0 1 1 8.5-8.5v2.55a2.55 2.55 0 0 0 5.1 0V28c0-7.511-6.089-13.6-13.6-13.6S10.4 20.489 10.4 28 16.489 41.6 24 41.6h6.8a1.7 1.7 0 1 1 0 3.4H24c-9.389 0-17-7.611-17-17s7.611-17 17-17m0 11.9a5.1 5.1 0 1 0 0 10.2 5.1 5.1 0 0 0 0-10.2"/></g></svg>