<svg xmlns="http://www.w3.org/2000/svg" viewBox="0 0 250 86"><g fill="none" fill-rule="evenodd"><path fill="#eb6d13" d="m207.248 0 37.025 21.376v42.753l-37.025 21.376-37.025-21.376V21.376z"/><path fill="#fbf8f2" fill-rule="nonzero" d="m226.484 74.405-22.238-5.798q-8.138-2.802-13.206-6.436-5.07-3.636-7.437-8.404-2.367-4.77-2.367-11.039 0-5.603 2.067-10.07 2.068-4.47 5.703-7.604 3.634-3.135 8.37-4.77 4.736-1.633 10.071-1.633 5.47 0 10.172 1.634 4.701 1.634 8.203 4.569t5.47 6.836 1.967 8.437q0 3.668-1.267 7.07a18.3 18.3 0 0 1-3.768 6.103q-2.502 2.701-6.237 4.268-3.735 1.568-8.67 1.568-1.001 0-2.101-.067-1.1-.066-2.168-.133l6.47-1.734 26.554 8.197zm-11.9-31.677q0-1.6-.534-2.934a6.4 6.4 0 0 0-1.5-2.268 6.7 6.7 0 0 0-2.268-1.434q-1.3-.5-2.835-.5-1.533 0-2.834.5a6.7 6.7 0 0 0-2.268 1.434 6.4 6.4 0 0 0-1.5 2.268q-.534 1.334-.534 2.934 0 1.602.533 2.935a6.4 6.4 0 0 0 1.501 2.268q.967.933 2.268 1.434t2.834.5 2.835-.5a6.7 6.7 0 0 0 2.268-1.434 6.4 6.4 0 0 0 1.5-2.268q.534-1.334.534-2.935"/><path fill="#120805" fill-rule="nonzero" d="M0 22.086h16.43V64.5H0zm26.338 0h16.43V64.5h-16.43zm9.544 27.812H6.102V36.386h29.78zM47.601 22.086h16.431V64.5H47.601zM66.932 22.086h17.88l9.001 22.54h-3.745l9.001-22.54h16.793v.122L97.136 64.5H85.658L66.932 22.208zM118.761 22.086h16.31V64.5h-16.31zm4.169 30.66h28.512V64.5H122.93zm0-30.66h28.21v11.755h-28.21zM121.6 37.84h27.365v10.664h-27.364z"/></g></svg>