<svg xmlns="http://www.w3.org/2000/svg" viewBox="0 0 668 56"><g fill="none" fill-rule="evenodd"><path fill="#eb6d13" d="M10.76.687C16.25.357 25.152 0 38 0s21.75.356 27.24.687c5.207.313 9.473 4.108 9.992 9.373.4 4.046.768 9.945.768 17.94s-.368 13.894-.768 17.94c-.52 5.265-4.785 9.06-9.992 9.373-5.49.33-14.392.687-27.24.687s-21.75-.356-27.24-.687C5.553 55 1.287 51.205.768 45.94.368 41.894 0 35.995 0 28s.368-13.894.768-17.94C1.288 4.795 5.553 1 10.76.687m17.98 15.35c1.226-.754 2.769-.907 4.31-.317 1.884.722 4.407 1.84 7.707 3.575 3.156 1.659 5.597 3.131 7.443 4.353 1.63 1.077 2.492 2.693 2.492 4.353 0 1.661-.863 3.276-2.492 4.354-1.846 1.221-4.287 2.694-7.443 4.353-3.3 1.735-5.823 2.853-7.707 3.575-1.541.59-3.084.436-4.31-.318-1.219-.75-2.057-2.054-2.29-3.648a58 58 0 0 1-.578-8.316c0-3.366.267-6.177.579-8.316.232-1.593 1.07-2.897 2.29-3.648"/><path fill="#120805" fill-rule="nonzero" d="M107.099 34.446q0-3.363 1.221-6.41a15.8 15.8 0 0 1 3.619-5.412q2.397-2.366 5.93-3.726 3.535-1.36 8.167-1.36 3.716 0 6.826.948t5.38 2.717 3.52 4.245 1.248 5.557q0 2.8-.938 4.907-.937 2.106-2.796 3.276t-4.63 1.17a9.8 9.8 0 0 1-3.231-.519q-1.5-.519-2.41-1.563-.909-1.044-.908-2.599 0-.414.038-.782.04-.367.04-.555l-1.286-.111.638-5.919.724 1.544q-.679-.195-1.377-.308a8.3 8.3 0 0 0-1.322-.113q-.867 0-1.513.29-.647.29-1.062.77-.415.478-.627 1.055a3.3 3.3 0 0 0-.212 1.135q0 .948.513 1.418t1.428.47q.959 0 2.017-.588 1.059-.589 2.124-1.772l1.48 3.132q-1.135 1.775-2.561 2.895t-2.942 1.65-2.955.53q-1.82 0-3.205-.765t-2.164-2.209-.78-3.455q0-2.043.726-3.842a9.3 9.3 0 0 1 2.115-3.166q1.388-1.365 3.431-2.14 2.043-.774 4.65-.774 1.534 0 3.058.25 1.523.251 2.882.634 1.358.384 2.337.783l-.694 6.233q-.047.411-.077.746-.03.334-.031.684 0 .942.498 1.444.5.503 1.46.503.767 0 1.365-.442.599-.442.954-1.422.356-.98.356-2.577 0-2.715-1.363-4.764t-4.029-3.198q-2.666-1.15-6.584-1.15-3.565 0-6.197 1.034-2.63 1.033-4.36 2.807a11.55 11.55 0 0 0-2.58 4.033 13.3 13.3 0 0 0-.848 4.717q0 1.987.603 3.534a7 7 0 0 0 1.77 2.626q1.168 1.08 2.841 1.642 1.673.564 3.778.563 1.01 0 2.12-.138 1.11-.136 2.187-.393 1.075-.255 1.92-.592h.067v4.161q-.886.363-2.023.646a20.4 20.4 0 0 1-4.816.594q-3.327 0-5.86-.905-2.534-.906-4.227-2.574a10.8 10.8 0 0 1-2.559-3.98q-.864-2.31-.864-5.12m40.036-.066h12.555q.957 0 1.556-.237.597-.237.887-.686.29-.448.29-1.066 0-.64-.296-1.076-.295-.435-.914-.67t-1.582-.235h-9.244v-4.955h8.383q.897 0 1.43-.237.535-.236.775-.669.24-.432.24-.972 0-.57-.263-.958-.262-.389-.802-.594t-1.422-.205h-11.542V16.2h13.816q2.77 0 4.762.698 1.994.698 3.078 2.093 1.086 1.395 1.085 3.511 0 2.09-1.217 3.594-1.218 1.503-3.353 2.108l.318-1.091q2.783.513 4.212 2 1.43 1.49 1.43 3.92 0 2.23-1.175 3.79t-3.3 2.368-4.984.809h-14.723zm-1.732-18.18h8.463V40h-8.463zm28.25 0h8.662V40h-8.663zm1.342 16.962h20.035V40h-20.035zm21.155 6.77L209.284 16.2h6.08l13.127 23.732V40h-9.653l-2.619-5.313.211-.617-5.247-10.174h1.897l-5.246 10.144.21.624L205.396 40h-9.245zm9.446-8.491h13.366l.04 5.316h-13.45zm21.401-3.341q0-2.938 1.17-5.245a11 11 0 0 1 3.305-3.895q2.133-1.589 5.041-2.414 2.909-.827 6.385-.827 3.09 0 5.54.427 2.45.428 4.31 1.094v6.799h-.072q-.975-.364-2.377-.666a32 32 0 0 0-2.957-.487 26 26 0 0 0-3.023-.186q-1.966 0-3.508.355t-2.614 1.05q-1.071.693-1.637 1.697t-.566 2.298q0 1.281.566 2.282.566 1 1.637 1.698 1.071.697 2.61 1.059 1.54.36 3.5.361 1.471 0 3.03-.18 1.56-.18 2.964-.48 1.404-.301 2.383-.649h.068v6.757q-1.88.673-4.329 1.102-2.45.43-5.525.43-3.485 0-6.392-.826-2.91-.826-5.04-2.412a11 11 0 0 1-3.3-3.895q-1.17-2.31-1.169-5.247m28.756-11.9h8.663V40h-8.663zm7.891 10.244L274.432 16.2h10.606v.068l-13.924 12.604.063-3.703 14.033 14.763V40h-11.16l-10.406-11.733zM289.786 16.2h6.708l10.382 13.895h-.975L316.236 16.2h6.696V40h-8.316V28.556l1.226.077-7.605 10.14h-3.775l-7.586-10.135 1.226-.078V40h-8.316zm35.61 11.9q0-2.901 1.165-5.201a11.3 11.3 0 0 1 3.245-3.9q2.081-1.6 4.867-2.44t6.025-.84q3.24 0 6.026.84T351.59 19a11.3 11.3 0 0 1 3.246 3.9Q356 25.199 356 28.1q0 2.896-1.164 5.2a11.3 11.3 0 0 1-3.246 3.901q-2.081 1.6-4.866 2.44-2.786.84-6.026.84-3.238 0-6.025-.84t-4.867-2.44a11.3 11.3 0 0 1-3.245-3.901q-1.165-2.304-1.165-5.2m8.997 0q0 1.088.429 2 .428.909 1.243 1.572.816.661 1.98 1.019t2.653.357q1.488 0 2.653-.357t1.98-1.02a4.45 4.45 0 0 0 1.244-1.572 4.6 4.6 0 0 0 .429-1.999q0-1.088-.429-2a4.45 4.45 0 0 0-1.244-1.572q-.814-.661-1.98-1.019-1.164-.357-2.653-.357-1.488 0-2.653.357-1.164.357-1.98 1.02a4.45 4.45 0 0 0-1.243 1.572 4.6 4.6 0 0 0-.43 1.999m23.84.571V16.2h8.663v12.074q0 1.618.604 2.706.604 1.089 1.798 1.634 1.192.544 2.92.544 1.76 0 2.938-.544 1.178-.546 1.787-1.634.608-1.087.608-2.706V16.2h8.346v12.471q0 3.164-1.023 5.422t-2.878 3.664q-1.854 1.405-4.378 2.065t-5.553.659q-3.023 0-5.55-.66-2.527-.658-4.38-2.064-1.855-1.408-2.879-3.664-1.023-2.259-1.023-5.422m30.74-12.471h6.324l13.15 12.558-1.07.59V16.2h8.231V40h-6.324l-13.146-12.547 1.067-.594V40h-8.232zm38.074.34h8.648V40h-8.648zm-9.177-.34h27.002v6.838H417.87zm23.529 23.732L454.533 16.2h6.08l13.126 23.732V40h-9.653l-2.618-5.313.21-.617-5.246-10.174h1.897l-5.246 10.144.21.624-2.65 5.336H441.4zm9.445-8.491h13.367l.04 5.316H450.8zM475.743 16.2h8.663V40h-8.663zm11.97 0h6.324l13.15 12.558-1.07.59V16.2h8.232V40h-6.324l-13.147-12.547 1.067-.594V40h-8.232zm32.359 0h8.663V40h-8.663zm18.923 0h8.663V40h-8.663zm4.947 15.186H523.05V24.62h20.89zm6.181-3.286q0-2.901 1.165-5.201a11.3 11.3 0 0 1 3.245-3.9q2.081-1.6 4.867-2.44t6.025-.84q3.24 0 6.025.84 2.787.84 4.867 2.44a11.3 11.3 0 0 1 3.246 3.9q1.164 2.3 1.164 5.201 0 2.896-1.164 5.2a11.3 11.3 0 0 1-3.246 3.901q-2.081 1.6-4.867 2.44t-6.025.84q-3.24 0-6.025-.84-2.787-.84-4.867-2.44a11.3 11.3 0 0 1-3.245-3.901q-1.165-2.304-1.165-5.2m8.997 0q0 1.088.429 2 .428.909 1.243 1.572.816.661 1.98 1.019t2.653.357q1.488 0 2.653-.357t1.98-1.02a4.45 4.45 0 0 0 1.244-1.572 4.6 4.6 0 0 0 .429-1.999q0-1.088-.429-2a4.45 4.45 0 0 0-1.244-1.572q-.814-.661-1.98-1.019-1.164-.357-2.653-.357-1.488 0-2.653.357-1.164.357-1.98 1.02a4.45 4.45 0 0 0-1.243 1.572 4.6 4.6 0 0 0-.43 1.999m24.072-11.9h6.324l13.15 12.558-1.07.59V16.2h8.231V40h-6.324l-13.146-12.547 1.067-.594V40h-8.232zm29.943 0h8.592V40h-8.592zm1.69 17.87h20.53V40h-20.53zm-.007-17.87h20.34v5.93h-20.34zm-.394 9.101h19.238v5.375h-19.238zm33.407 5.711-11.018-14.744V16.2h9.853l6.117 8.735h-.829l6.216-8.735h9.36v.068l-11.032 14.744V40h-8.667z"/></g></svg>