<svg xmlns="http://www.w3.org/2000/svg" viewBox="0 0 391 95"><g fill="none" fill-rule="evenodd"><path fill="#eb6d13" d="m194.871 0 24.37 14.035v28.071l-24.37 14.035L170.5 42.106V14.035z"/><path fill="#fff" fill-rule="nonzero" d="m203.079 28.358.961-4.518-4.517-5.532-1.867 2.3 2.732 3.355h-1.826l-7.758-9.544-3.968 4.888L192 25.661h-1.813l-4.256-5.231-6.453 7.956zm1.153 1.41c-1.428 6.464-3.185 10.024-5.986 11.996-3.515 2.506-9.048 2.328-13.208 2.328.96-4.505 2.279-10.571 6.274-13.42a9.6 9.6 0 0 1 1.58-.89l-16.38.014 14.279-17.61 5.958 7.313 2.774-3.423 4.915 6.025a3.9 3.9 0 0 1 1.236-1.78 4.57 4.57 0 0 1 2.046-.904 5.91 5.91 0 0 1 5.492 1.93 5.88 5.88 0 0 1 .755 5.752 4.5 4.5 0 0 1-1.305 1.807 3.85 3.85 0 0 1-2.47.863zm-3.515 6.587c.91-2.12 1.6-4.327 2.06-6.586-2.787.013-5.08.137-6.989.547zm-6.933 5.778-4.916-6.066a33.8 33.8 0 0 0-2.087 6.614c2.801-.014 5.094-.137 7.003-.548m1.483-.41a8.7 8.7 0 0 0 2.169-1.096q1.455-1.026 2.567-2.903l-5.684-6.997a8.7 8.7 0 0 0-2.197 1.096 9.2 9.2 0 0 0-2.54 2.875zm10.434-18.87-1.18 5.492h5.643a2.48 2.48 0 0 0 1.592-.548 3.03 3.03 0 0 0 .893-1.233q.33-.794.33-1.697c0-.959-.275-1.917-.88-2.643a4.51 4.51 0 0 0-4.146-1.438q-.796.137-1.4.616a2.46 2.46 0 0 0-.865 1.438"/><path fill="#120805" fill-rule="nonzero" d="m5.954 78.068 1.496 2.516-7.31 3.638H.072v-6.834L11.02 71.54h3.06V95H5.954zm25.959.884 1.564.136-8.33 8.806-.408-2.448h19.244v5.712H17.225v-2.584L34.497 71.54h5.44V95h-8.024zm24.358 9.575h11.158q1.715 0 3.026-.334 1.312-.334 2.207-1.013a4.3 4.3 0 0 0 1.347-1.695q.453-1.017.453-2.37 0-1.368-.455-2.393a4.27 4.27 0 0 0-1.352-1.702q-.9-.678-2.21-1.013t-3.016-.334H56.27V71.2h12.02q3.4 0 6.184.764t4.796 2.267a10.15 10.15 0 0 1 3.1 3.732q1.088 2.229 1.088 5.137 0 2.904-1.08 5.133a10.14 10.14 0 0 1-3.08 3.734q-2 1.505-4.79 2.269-2.786.764-6.207.764H56.271zM54.801 71.2h8.59V95h-8.59zm27.164 23.732L95.099 71.2h6.079l13.127 23.732V95h-9.653l-2.618-5.313.21-.617-5.246-10.174h1.897L93.649 89.04l.21.624L91.21 95h-9.244zm9.445-8.491h13.367l.04 5.316h-13.45zm28.847-.429L109.24 71.268V71.2h9.853l6.117 8.735h-.828l6.216-8.735h9.359v.068l-11.032 14.744V95h-8.667zm31.649 3.368h12.555q.956 0 1.555-.237t.888-.686q.29-.448.29-1.066-.001-.64-.296-1.076-.296-.435-.915-.67t-1.582-.235h-9.244v-4.955h8.383q.897 0 1.431-.237.534-.236.774-.669.24-.432.24-.972 0-.57-.262-.958-.263-.389-.803-.594t-1.422-.205h-11.542V71.2h13.816q2.77 0 4.763.698t3.078 2.093 1.085 3.511q0 2.09-1.218 3.594-1.217 1.503-3.353 2.108l.319-1.091q2.782.513 4.212 2 1.43 1.49 1.429 3.92 0 2.23-1.175 3.79t-3.3 2.368-4.983.809h-14.723zm-1.732-18.18h8.462V95h-8.462zm28.248 0h8.592V95h-8.592zm1.69 17.87h20.53V95h-20.53zm-.007-17.87h20.341v5.93h-20.341zm-.394 9.101h19.238v5.374h-19.238zm23.69-9.101h8.591V95h-8.591zm1.69 17.87h20.529V95h-20.53zm-.008-17.87h20.341v5.93h-20.34zm-.393 9.101h19.238v5.374H204.69zm23.69-9.101h8.662V95h-8.663zm7.89 10.244L247.06 71.2h10.605v.068L243.74 83.872l.063-3.703 14.034 14.763V95h-11.16l-10.406-11.733zM259.998 71.2h8.592V95h-8.592zm1.69 17.87h20.53V95h-20.53zm-.007-17.87h20.34v5.93h-20.34zm-.394 9.101h19.238v5.374h-19.238zm23.69-9.101h8.591V95h-8.591zm1.69 17.87h20.529V95h-20.53zm-.008-17.87H307v5.93h-20.34zm-.393 9.101h19.238v5.374h-19.238zm23.69-9.101h8.652V95h-8.653zm5.74 11.905h6.712q1.46 0 2.38-.329.923-.33 1.37-.981.45-.653.45-1.633 0-1.008-.45-1.658-.447-.65-1.37-.98-.92-.33-2.38-.329H315.7V71.2h7.961q3.42 0 6.106.955 2.685.956 4.232 2.943 1.546 1.986 1.546 5.064 0 3.077-1.55 5.052-1.548 1.975-4.232 2.928-2.682.951-6.102.952h-7.966zM337.848 71.2h8.591V95h-8.591zm1.69 17.87h20.529V95h-20.53zm-.007-17.87h20.34v5.93h-20.34zm-.394 9.101h19.238v5.374h-19.238zm23.69-9.101h8.555V95h-8.556zm7.367 11.263h5.25q1.268 0 2.111-.253.844-.252 1.27-.822t.426-1.505q0-.962-.422-1.517-.42-.556-1.26-.802-.838-.246-2.095-.246h-5.28V71.2h6.747q3.46 0 5.957.892t3.853 2.701q1.356 1.81 1.356 4.567 0 1.927-.852 3.519-.852 1.591-2.47 2.667-1.62 1.075-3.928 1.455l2.64-1.604 7.446 9.535V95h-10.186l-5.448-7.626 1.962.877h-7.077z"/></g></svg>