<svg xmlns="http://www.w3.org/2000/svg" viewBox="0 0 421 96"><g fill="none" fill-rule="evenodd"><path fill="#eb6d13" d="m209.871 0 24.37 14.035v28.071l-24.37 14.035L185.5 42.106V14.035z"/><path fill="#fff" fill-rule="nonzero" d="m218.079 28.358.961-4.518-4.517-5.532-1.867 2.3 2.732 3.355h-1.826l-7.758-9.544-3.968 4.888L207 25.661h-1.813l-4.256-5.231-6.453 7.956zm1.153 1.41c-1.428 6.464-3.185 10.024-5.986 11.996-3.515 2.506-9.048 2.328-13.208 2.328.96-4.505 2.279-10.571 6.274-13.42a9.6 9.6 0 0 1 1.58-.89l-16.38.014 14.279-17.61 5.958 7.313 2.774-3.423 4.915 6.025a3.9 3.9 0 0 1 1.236-1.78 4.57 4.57 0 0 1 2.046-.904 5.91 5.91 0 0 1 5.492 1.93 5.88 5.88 0 0 1 .755 5.752 4.5 4.5 0 0 1-1.305 1.807 3.85 3.85 0 0 1-2.47.863zm-3.515 6.587c.91-2.12 1.6-4.327 2.06-6.586-2.787.013-5.08.137-6.989.547zm-6.933 5.778-4.916-6.066a33.8 33.8 0 0 0-2.087 6.614c2.801-.014 5.094-.137 7.003-.548m1.483-.41a8.7 8.7 0 0 0 2.169-1.096q1.455-1.026 2.567-2.903l-5.684-6.997a8.7 8.7 0 0 0-2.197 1.096 9.2 9.2 0 0 0-2.54 2.875zm10.434-18.87-1.18 5.492h5.643a2.48 2.48 0 0 0 1.592-.548 3.03 3.03 0 0 0 .893-1.233q.33-.794.33-1.697c0-.959-.275-1.917-.88-2.643a4.51 4.51 0 0 0-4.146-1.438q-.796.137-1.4.616a2.46 2.46 0 0 0-.865 1.438"/><path fill="#120805" fill-rule="nonzero" d="M2.094 89.38h12.555q.957 0 1.555-.237.599-.237.888-.686.29-.448.29-1.066-.001-.64-.296-1.076-.296-.435-.914-.67t-1.583-.235H5.345v-4.955h8.384q.896 0 1.43-.237.534-.236.774-.669.24-.432.24-.972 0-.57-.262-.958-.263-.389-.803-.594t-1.422-.205H2.144V71.2H15.96q2.77 0 4.763.698t3.078 2.093 1.085 3.511q0 2.09-1.217 3.594-1.218 1.503-3.353 2.108l.318-1.091q2.783.513 4.212 2 1.43 1.49 1.43 3.92 0 2.23-1.176 3.79t-3.3 2.368-4.983.809H2.094zM.362 71.2h8.462V95H.362zm28.248 0h8.592V95H28.61zm1.69 17.87h20.53V95H30.3zm-.007-17.87h20.341v5.93H30.293zm-.394 9.101h19.238v5.374H29.9zM53.59 71.2h8.591V95H53.59zm1.69 17.87h20.529V95h-20.53zM55.27 71.2h20.341v5.93h-20.34zm-.393 9.101h19.238v5.374H54.878zm23.69-9.101h8.662V95h-8.663zm7.89 10.244L97.248 71.2h10.605v.068L93.928 83.872l.063-3.703 14.034 14.763V95h-11.16L86.46 83.267zM110.186 71.2h8.592V95h-8.592zm1.69 17.87h20.53V95h-20.53zm-.007-17.87h20.34v5.93h-20.34zm-.394 9.101h19.238v5.374h-19.238zm23.69-9.101h8.591V95h-8.591zm1.69 17.87h20.529V95h-20.53zm-.008-17.87h20.341v5.93h-20.34zm-.393 9.101h19.238v5.374h-19.238zm23.69-9.101h8.652V95h-8.653zm5.74 11.905h6.712q1.46 0 2.38-.329.923-.33 1.37-.981.45-.653.45-1.633 0-1.008-.45-1.658-.447-.65-1.37-.98-.92-.33-2.38-.329h-6.707V71.2h7.961q3.42 0 6.106.955 2.685.956 4.232 2.943 1.545 1.986 1.546 5.064 0 3.077-1.55 5.052-1.549 1.975-4.231 2.928-2.683.951-6.103.952h-7.965zM188.037 71.2h8.663V95h-8.663zm11.97 0h6.325l13.15 12.558-1.07.59V71.2h8.231V95h-6.324l-13.146-12.547 1.067-.594V95h-8.232zm29.101 12.018q0-2.974 1.179-5.303 1.178-2.33 3.352-3.927t5.181-2.433 6.675-.836q2.339 0 4.393.2 2.053.199 3.755.53 1.7.333 2.938.784v6.356h-.068a34 34 0 0 0-6.373-1.22 35 35 0 0 0-3.297-.153q-2.094 0-3.724.368-1.632.368-2.759 1.108t-1.706 1.87-.58 2.656q0 1.393.483 2.494a4.86 4.86 0 0 0 1.433 1.865q.95.764 2.37 1.155 1.418.392 3.301.392a19 19 0 0 0 3.497-.324q.9-.165 1.739-.371l-1.83 2.09v-5.003h-4.717v-4.603h12.814v12.749q-1.39.451-3.244.865a42 42 0 0 1-4.081.683q-2.228.27-4.784.27-3.714 0-6.674-.827-2.961-.83-5.025-2.404a10.5 10.5 0 0 1-3.157-3.86q-1.09-2.285-1.091-5.171m38.512 0q0-2.974 1.179-5.303 1.179-2.33 3.353-3.927t5.18-2.433 6.676-.836q2.337 0 4.392.2 2.054.199 3.755.53 1.7.333 2.938.784v6.356h-.068a34 34 0 0 0-6.373-1.22 35 35 0 0 0-3.297-.153q-2.093 0-3.724.368t-2.758 1.108-1.707 1.87-.579 2.656q0 1.393.482 2.494a4.86 4.86 0 0 0 1.433 1.865q.951.764 2.37 1.155 1.419.392 3.301.392a19 19 0 0 0 3.497-.324q.9-.165 1.739-.371l-1.83 2.09v-5.003h-4.717v-4.603h12.815v12.749q-1.392.451-3.245.865a42 42 0 0 1-4.08.683q-2.228.27-4.785.27-3.714 0-6.674-.827-2.96-.83-5.025-2.404a10.5 10.5 0 0 1-3.156-3.86q-1.092-2.285-1.092-5.171m30.913.453V71.2h8.663v12.074q0 1.618.604 2.706.605 1.089 1.797 1.633 1.194.546 2.92.545 1.761 0 2.939-.544 1.177-.546 1.786-1.634t.609-2.706V71.2h8.346v12.471q0 3.164-1.023 5.421-1.024 2.258-2.878 3.665-1.855 1.405-4.378 2.065t-5.553.659q-3.023 0-5.55-.66-2.526-.658-4.381-2.064t-2.878-3.665q-1.023-2.258-1.023-5.42m30.74-12.471h8.663V95h-8.663zm13.44 17.327h11.159q1.713 0 3.026-.334t2.207-1.013a4.3 4.3 0 0 0 1.347-1.695q.452-1.017.452-2.37 0-1.368-.454-2.393a4.27 4.27 0 0 0-1.353-1.702q-.898-.678-2.209-1.013t-3.016-.334h-11.158V71.2h12.02q3.4 0 6.183.764t4.797 2.267a10.15 10.15 0 0 1 3.1 3.732q1.087 2.229 1.087 5.137 0 2.904-1.079 5.133a10.14 10.14 0 0 1-3.08 3.734q-2.002 1.505-4.79 2.269-2.787.764-6.207.764h-12.031zm-1.47-17.327h8.592V95h-8.591zm31.123 0h8.591V95h-8.591zm1.69 17.87h20.529V95h-20.53zm-.008-17.87h20.341v5.93h-20.34zm-.393 9.101h19.238v5.374h-19.238zm23.394 7.05h.068a24 24 0 0 0 1.965.508q1.14.25 2.49.464 1.349.213 2.828.335 1.48.123 2.993.123 1.466 0 2.336-.178t1.262-.534a1.14 1.14 0 0 0 .392-.879q0-.472-.298-.774-.297-.303-1.016-.523t-2.043-.402l-3.653-.49q-2.704-.422-4.414-1.317T397.44 81.4t-.807-3.246q0-2.276 1.391-3.938 1.392-1.665 4.185-2.58 2.793-.918 7.002-.918 2.25 0 4.218.188 1.967.187 3.62.488 1.65.3 2.931.653V78.8h-.068q-1.029-.342-2.615-.657a41 41 0 0 0-3.505-.527 37 37 0 0 0-4-.212q-1.422 0-2.29.163-.867.162-1.26.488a1.06 1.06 0 0 0-.395.855q0 .448.3.754.3.307 1.016.502.717.195 1.927.391l3.565.49q2.862.449 4.606 1.298 1.744.85 2.543 2.177.8 1.329.8 3.258 0 2.258-1.303 3.998t-4.07 2.722q-2.769.98-7.164.98-2.423 0-4.46-.178a36 36 0 0 1-3.668-.492 26 26 0 0 1-2.892-.714z"/></g></svg>