<svg xmlns="http://www.w3.org/2000/svg" viewBox="0 0 661 163"><g fill="none"><path fill="#eb6d13" fill-rule="evenodd" d="M0 63h661v100H0z"/><path fill="#fbf8f2" d="M33.638 127.407h15.067q2.2 0 3.7-.52 1.503-.52 2.3-1.643.798-1.122.798-2.881 0-2.677-1.783-3.871t-5.133-1.195h-12.05v-7.055h10.701q3.128 0 4.57-1.208 1.444-1.208 1.443-3.523 0-1.577-.683-2.565-.684-.987-2.019-1.45-1.335-.46-3.337-.46H33.866v-7.451h15.17q6.789 0 10.498 2.751t3.709 7.987q0 3.642-2.021 6.334t-5.677 3.52l.544-1.555q4.593.63 7.049 3.215t2.456 6.98q0 3.74-1.815 6.452-1.815 2.713-5.245 4.15-3.43 1.44-8.298 1.439H33.638zm-2.644-33.822h9.63v41.273h-9.63zm39.941 0h9.789v41.273h-9.789zm2.513 33.494h26.55v7.779h-26.55zm-.045-33.494H99.61v7.778H73.403zm-.748 16.611h24.33v7.449h-24.33zm33.757-16.611h9.788v41.273h-9.788zm2.512 33.494h26.55v7.779h-26.55zm-.045-33.494h26.208v7.778h-26.208zm-.748 16.611h24.33v7.449h-24.33zm33.757-16.611h9.816v41.273h-9.816zm9.087 18.308 18.447-18.308h12.147v.118l-21.485 20.985.085-4.14 21.773 24.192v.118h-12.94l-18.027-20.655zm36.215-18.308h9.788v41.273h-9.788zm2.512 33.494h26.55v7.779h-26.55zm-.045-33.494h26.207v7.778h-26.207zm-.748 16.611h24.33v7.449h-24.33zm33.757-16.611h9.789v41.273h-9.789zm2.512 33.494h26.55v7.779h-26.55zm-.045-33.494h26.208v7.778h-26.208zm-.748 16.611h24.33v7.449h-24.33zm33.758-16.611h9.801v41.273h-9.801zm5.813 21.68h9.312q4.065 0 6.253-1.646 2.19-1.647 2.189-5.24 0-3.605-2.189-5.251t-6.253-1.646h-9.312v-7.897h10.428q5.123 0 9.068 1.605t6.166 4.885 2.222 8.304q0 5.027-2.245 8.3t-6.166 4.855q-3.923 1.582-9.045 1.582h-10.428zm33.043-21.68h9.788v41.273H297zm2.512 33.494h26.55v7.779h-26.55zm-.045-33.494h26.207v7.778h-26.207zm-.748 16.611h24.33v7.449h-24.33zm33.757-16.611h9.717v41.273h-9.717zm7.612 20.07h6.675q2.625 0 4.421-.569 1.797-.57 2.74-1.908.942-1.338.942-3.564 0-3.39-2.095-4.716-2.094-1.325-6.008-1.325h-6.675v-7.988h8.333q5.182 0 8.886 1.517t5.718 4.547 2.015 7.57q0 3.38-1.385 6.038-1.386 2.657-3.925 4.396-2.538 1.74-6.006 2.402l2.8-2.393 12.92 17.078v.118h-11.599l-10.734-14.683 2.438 1.297h-9.461zm46.137.566q0-4.953 1.68-8.903 1.681-3.95 4.738-6.699 3.056-2.748 7.246-4.215 4.19-1.468 9.163-1.468 3.827 0 6.917.678t5.513 1.727v8.65h-.118q-1.485-.7-3.33-1.21-1.845-.512-3.833-.806a27 27 0 0 0-4-.295q-3.141 0-5.682.867-2.54.868-4.35 2.51a11.1 11.1 0 0 0-2.785 3.957q-.975 2.313-.976 5.207 0 2.894.976 5.208a11.1 11.1 0 0 0 2.785 3.956q1.81 1.643 4.35 2.51t5.683.868q2.01 0 4-.295a29 29 0 0 0 3.832-.829q1.845-.534 3.33-1.188h.118v8.65q-2.424 1.037-5.513 1.72-3.09.685-6.917.685-4.973 0-9.163-1.467t-7.246-4.216-4.737-6.699q-1.68-3.949-1.68-8.903m39.847 0q0-4.953 1.76-8.903 1.758-3.95 4.858-6.699 3.098-2.748 7.148-4.215 4.05-1.468 8.628-1.468 4.58 0 8.63 1.468 4.048 1.467 7.147 4.215t4.858 6.7 1.759 8.902-1.76 8.903q-1.758 3.951-4.857 6.699t-7.148 4.216q-4.049 1.467-8.629 1.467t-8.628-1.467q-4.05-1.468-7.148-4.216-3.1-2.748-4.859-6.699-1.759-3.949-1.759-8.903m10.183 0q0 2.789.952 5.042.953 2.255 2.63 3.858a11.7 11.7 0 0 0 3.881 2.458q2.201.855 4.748.854 2.546 0 4.748-.854a11.7 11.7 0 0 0 3.88-2.458q1.68-1.603 2.63-3.858.953-2.254.953-5.042t-.952-5.042q-.953-2.255-2.63-3.858a11.7 11.7 0 0 0-3.881-2.457q-2.202-.855-4.748-.854-2.546 0-4.748.854a11.7 11.7 0 0 0-3.88 2.457q-1.68 1.604-2.63 3.858-.953 2.255-.953 5.042m39.816 2.527V93.585h9.814v22.847q0 3.26 1.11 5.524 1.109 2.264 3.294 3.423 2.187 1.16 5.295 1.159 3.169 0 5.325-1.159 2.156-1.158 3.265-3.423 1.11-2.264 1.11-5.524V93.585h9.473v23.163q0 6.455-2.47 10.615t-6.828 6.152-10.045 1.991-10.039-1.99q-4.35-1.994-6.827-6.153-2.477-4.16-2.477-10.615m45.625-23.163h9.716v41.273h-9.716zm7.611 20.07h6.676q2.625 0 4.42-.569 1.797-.57 2.74-1.908.942-1.338.942-3.564 0-3.39-2.094-4.716-2.096-1.325-6.008-1.325h-6.676v-7.988h8.333q5.183 0 8.886 1.517t5.719 4.547 2.015 7.57q0 3.38-1.386 6.038-1.386 2.657-3.924 4.396-2.54 1.74-6.006 2.402l2.799-2.393 12.92 17.078v.118h-11.598l-10.735-14.683 2.439 1.297h-9.462zm33.877 10.887h.118q2.83 1.152 6.398 1.87 3.57.716 7.05.716 4.225 0 5.999-1.177 1.773-1.177 1.773-3.453 0-1.879-1.42-2.83-1.42-.953-4.613-1.653l-5.067-1.146q-5.157-1.22-7.986-4.066t-2.829-7.726q0-3.669 1.985-6.391t5.796-4.236q3.812-1.514 9.356-1.514 3.996 0 7.475.698 3.479.696 5.903 1.522v8.502h-.118q-2.319-.877-5.675-1.617t-7.079-.74q-3.783 0-5.693 1.115-1.91 1.116-1.91 3.163 0 1.727 1.234 2.712t4.218 1.685l5.138 1.191q3.885.88 6.378 2.327 2.491 1.448 3.72 3.698 1.227 2.25 1.227 5.637 0 3.747-1.874 6.61t-5.726 4.465-9.79 1.602q-3.9 0-7.608-.651-3.708-.653-6.38-1.824zm37.348-30.957h9.788v41.273h-9.788zm2.512 33.494h26.55v7.779h-26.55zm-.045-33.494h26.207v7.778h-26.207zm-.748 16.611h24.33v7.449h-24.33z"/><path fill="#120805" d="M114.186 1.624h9.802v40.684h-9.802zm-13.851-.59h37.504v8.188h-37.504zm42.557 0h9.816v41.274h-9.816zm28.407 0h9.815v41.274H171.3zm5.565 24.502h-30.259v-8.162h30.259zm11.712-24.501h9.789v41.273h-9.789zm2.513 33.494h26.549v7.779h-26.55zm-.045-33.494h26.207v7.778h-26.207zm-.749 16.611h24.33v7.449h-24.33zm45.194 4.025q0-4.953 1.68-8.903 1.681-3.951 4.738-6.699 3.056-2.748 7.246-4.215 4.19-1.468 9.163-1.468 3.827 0 6.917.678t5.513 1.727v8.65h-.118q-1.485-.7-3.33-1.21-1.844-.512-3.833-.806a27 27 0 0 0-4-.295q-3.142 0-5.682.867t-4.35 2.51a11.1 11.1 0 0 0-2.785 3.957q-.975 2.313-.976 5.207 0 2.894.976 5.208a11.1 11.1 0 0 0 2.785 3.956q1.81 1.643 4.35 2.51t5.683.867q2.01 0 4-.294a29 29 0 0 0 3.832-.829q1.845-.534 3.33-1.188h.118v8.65q-2.423 1.036-5.513 1.72-3.09.685-6.917.685-4.974 0-9.163-1.467-4.19-1.468-7.246-4.216t-4.737-6.699-1.68-8.903m39.847 0q0-4.953 1.76-8.903 1.758-3.951 4.858-6.699t7.148-4.215q4.05-1.468 8.628-1.468 4.58 0 8.63 1.468 4.048 1.467 7.147 4.215t4.858 6.699 1.759 8.903-1.76 8.903q-1.758 3.951-4.857 6.699t-7.148 4.216q-4.049 1.467-8.629 1.467t-8.628-1.467q-4.05-1.468-7.148-4.216-3.1-2.748-4.859-6.699-1.76-3.95-1.759-8.903m10.183 0q0 2.789.952 5.042.953 2.255 2.63 3.858a11.7 11.7 0 0 0 3.881 2.458q2.202.854 4.748.854t4.748-.854a11.7 11.7 0 0 0 3.88-2.458q1.68-1.604 2.63-3.858.954-2.254.953-5.042 0-2.788-.952-5.042-.953-2.254-2.63-3.858a11.7 11.7 0 0 0-3.881-2.457q-2.202-.854-4.748-.854t-4.748.854a11.7 11.7 0 0 0-3.88 2.457q-1.68 1.604-2.63 3.858-.954 2.255-.953 5.042m40.34-20.636h7.296l17.744 28.241h-2.187l17.575-28.241h7.297v41.273h-9.356V17.513l1.547.347-13.686 21.855h-4.749L333.667 17.86l1.547-.347v24.795h-9.356zm55.187 0h9.802v41.273h-9.802zm5.813 21.68h9.313q4.065 0 6.253-1.646t2.188-5.24q0-3.606-2.188-5.251-2.19-1.647-6.253-1.646h-9.313V1.035h10.428q5.124 0 9.068 1.605t6.167 4.885 2.222 8.304q0 5.027-2.245 8.3t-6.167 4.855-9.045 1.582H386.86zm33.043-21.68h9.816v41.273h-9.816zm2.137 33.085h26.21v8.188h-26.21zm31.578-33.085h9.788v41.273h-9.788zm2.512 33.494h26.55v7.779h-26.55zm-.045-33.494h26.208v7.778h-26.208zm-.748 16.611h24.33v7.449h-24.33zm45.2-16.022h9.802v40.684h-9.801zm-13.85-.59h37.503v8.188h-37.504zm42.557 0h9.788v41.274h-9.788zm2.512 33.495h26.55v7.779h-26.55zm-.045-33.494h26.208v7.778H531.71zm-.748 16.611h24.33v7.449h-24.33z"/></g></svg>