<svg xmlns="http://www.w3.org/2000/svg" viewBox="0 0 716 395"><g fill="none"><path fill="#120805" d="M.422 316.35h18.229V393H.422zm4.582 0h47.612v14.519H5.004zm-1.242 34.149H47.74v14.03H3.762zm59.626-34.149h18.046V393H63.388zm14.136 37.274h12.398q4.874 0 8.21-1.057 3.337-1.058 5.087-3.543t1.75-6.62q0-6.296-3.89-8.757t-11.157-2.461H77.524V316.35H93q9.626 0 16.502 2.817 6.877 2.817 10.62 8.444t3.743 14.06q0 6.279-2.573 11.213-2.573 4.935-7.289 8.165t-11.154 4.46l5.198-4.444 23.994 31.716V393h-21.539l-19.935-27.269 4.528 2.41h-17.57zm64.445-37.274h18.179V393h-18.179zm4.666 62.205h49.306V393h-49.306zm-.084-62.205h48.671v14.445h-48.671zm-1.39 30.85h45.185v13.833h-45.184zm62.693-30.85h18.179V393h-18.18zm4.666 62.205h49.305V393H212.52zm-.084-62.205h48.67v14.445h-48.67zm-1.39 30.85h45.185v13.833h-45.184zm82.194-30.85h19.92l24.812 55.604h-6.279l24.983-55.604h19.055v.219L340.173 393h-11.459l-35.474-76.431zm91.401 0h18.229V393H384.64zm36.093 61.397h26.208q7.868 0 13.574-2.498 5.707-2.498 8.868-7.627 3.16-5.13 3.16-12.923 0-7.842-3.16-12.959t-8.91-7.627-13.532-2.51h-26.208V316.35h27.699q12.969 0 22.623 4.392t15.028 12.933 5.372 21q0 12.434-5.33 20.987-5.329 8.554-14.984 12.946T448.432 393h-27.698zm-4.007-61.397h18.12V393h-18.12zm85.378 0h18.179V393h-18.18zm4.666 62.205h49.305V393h-49.305zm-.084-62.205h48.67v14.445h-48.67zm-1.39 30.85h45.185v13.833h-45.184zm59.483 7.475q0-9.198 3.267-16.535 3.267-7.335 9.023-12.44 5.756-5.103 13.275-7.829t16.024-2.725 16.025 2.725q7.52 2.726 13.274 7.83 5.755 5.103 9.022 12.44t3.267 16.534-3.267 16.534-9.022 12.44q-5.754 5.105-13.274 7.83-7.519 2.726-16.025 2.726t-16.024-2.726-13.275-7.83q-5.756-5.102-9.023-12.44-3.267-7.335-3.267-16.534m18.911 0q0 5.178 1.768 9.364 1.77 4.187 4.886 7.165a21.7 21.7 0 0 0 7.206 4.563q4.09 1.587 8.818 1.586t8.817-1.586a21.7 21.7 0 0 0 7.206-4.563q3.118-2.979 4.886-7.165t1.768-9.364-1.768-9.364q-1.768-4.187-4.886-7.165a21.7 21.7 0 0 0-7.206-4.563q-4.089-1.587-8.817-1.586t-8.818 1.586a21.7 21.7 0 0 0-7.206 4.563q-3.117 2.979-4.886 7.165-1.768 4.186-1.768 9.364m73.384 19.168h.22q5.253 2.138 11.883 3.47t13.09 1.332q7.85 0 11.143-2.186t3.293-6.413q0-3.489-2.636-5.257t-8.569-3.068l-9.41-2.129q-9.578-2.264-14.831-7.55-5.254-5.287-5.254-14.35 0-6.813 3.687-11.869 3.688-5.055 10.765-7.866 7.078-2.811 17.373-2.811 7.423 0 13.883 1.295t10.964 2.828v15.788h-.22q-4.306-1.628-10.54-3.003t-13.145-1.375q-7.026 0-10.573 2.072t-3.548 5.874q0 3.207 2.291 5.037 2.291 1.828 7.834 3.129l9.542 2.212q7.215 1.633 11.844 4.321 4.63 2.69 6.91 6.868 2.279 4.179 2.279 10.468 0 6.96-3.48 12.276-3.48 5.318-10.635 8.293-7.155 2.976-18.182 2.976-7.242 0-14.128-1.211-6.885-1.21-11.85-3.387z"/><path fill="#eb6d13" fill-rule="evenodd" d="M284.727 0C262.234 0 244 18.641 244 41.636v145.728C244 210.359 262.234 229 284.727 229h142.546C449.766 229 468 210.359 468 187.364V41.636C468 18.641 449.766 0 427.273 0zm-5.09 114.5c0-11.18.508-21.724 1.19-30.571.9-13.165 11.152-23.637 24.03-24.545A710 710 0 0 1 356 57.718c21.962 0 38.813.77 51.143 1.666 12.878.908 23.13 11.38 24.03 24.545.671 8.847 1.19 19.392 1.19 30.571 0 11.585-.55 22.484-1.262 31.519-1.018 12.897-10.63 22.744-23.031 23.628a746 746 0 0 1-52.07 1.635c-22.176 0-39.607-.75-52.07-1.635-12.401-.884-22.013-10.731-23.031-23.628-.828-10.485-1.25-21-1.263-31.519m57.384-26.491 43.273 26.491-43.273 26.502V87.998z"/></g></svg>