<svg xmlns="http://www.w3.org/2000/svg" viewBox="0 0 797 276"><g fill="none"><path fill="#eb6d13" fill-rule="evenodd" d="M0 136h797v140H0z"/><path fill="#fbf8f2" d="M35.946 208.385v-41.649h17.646v41.08q0 5.862 1.995 9.933t5.924 6.155q3.93 2.083 9.52 2.083 5.698 0 9.574-2.083 3.877-2.083 5.872-6.155 1.995-4.071 1.994-9.932v-41.08h17.034v41.648q0 11.606-4.442 19.086t-12.277 11.061q-7.836 3.58-18.06 3.58-10.228 0-18.05-3.58-7.824-3.58-12.277-11.061t-4.453-19.086m82.034-41.649h17.648v74.21H117.98zm16.338 32.92 33.17-32.92h21.838v.212l-38.629 37.733.153-7.444 39.147 43.497v.212H166.73l-32.412-37.138zm92.666 26.523h25.374q7.616 0 13.141-2.419t8.586-7.384 3.06-12.512q0-7.59-3.06-12.546-3.06-4.954-8.627-7.384t-13.1-2.43h-25.374v-14.768H253.8q12.556 0 21.904 4.252 9.348 4.253 14.549 12.522 5.202 8.269 5.201 20.331 0 12.037-5.16 20.32-5.16 8.28-14.507 12.533-9.347 4.252-21.987 4.252h-26.816zm-3.88-59.443h17.542v74.21h-17.542zm82.66 0h17.6v74.21h-17.6zm4.518 60.225h47.736v13.985h-47.736zm-.082-60.225h47.122v13.986H310.2zm-1.345 29.868h43.746v13.393h-43.746zm60.697-29.868H387.2v74.21h-17.648zm3.841 59.49h47.127v14.72h-47.127zm56.779-59.49h17.648v74.21h-17.648zm26.274 0h19.287l24.022 53.834h-6.08l24.188-53.834h18.449v.212l-34.427 73.998h-11.093l-34.346-73.998zm88.492 0h17.6v74.21h-17.6zm4.517 60.225h47.737v13.985h-47.737zm-.08-60.225h47.121v13.986h-47.122zm-1.346 29.868h43.746v13.393H548.03zm60.697-29.868h17.47v74.21h-17.47zm13.686 36.088h12.003q4.719 0 7.95-1.024 3.23-1.023 4.924-3.43t1.694-6.41q0-6.095-3.766-8.478t-10.802-2.383h-12.003v-14.363h14.983q9.319 0 15.977 2.727 6.658 2.728 10.282 8.176t3.624 13.613q0 6.078-2.492 10.855-2.49 4.777-7.056 7.905t-10.799 4.318l5.032-4.302 23.23 30.706v.212H654.34l-19.3-26.4 4.384 2.332h-17.012zm86.812 8.384-29.21-44.26v-.212h20.205l19.667 31.2h-2.711l19.786-31.2h19.283v.212l-29.372 44.26v29.738h-17.648z"/><path fill="#120805" d="M272.996.328h17.649v74.21h-17.649zm4.437 0h46.096v14.057h-46.096zM276.23 33.39h42.578v13.583H276.23zM333.958.328h17.471v74.21h-17.47zm13.686 36.088h12.003q4.719 0 7.95-1.023 3.23-1.024 4.924-3.431t1.695-6.409q0-6.096-3.766-8.479t-10.803-2.382h-12.003V.328h14.983q9.32 0 15.977 2.728 6.66 2.727 10.282 8.175 3.624 5.448 3.624 13.613 0 6.078-2.492 10.855-2.49 4.777-7.056 7.906-4.565 3.127-10.799 4.317l5.033-4.302 23.23 30.706v.212h-20.853l-19.302-26.4 4.385 2.332h-17.012zM410.038.328h17.6v74.21h-17.6zm4.517 60.225h47.736v13.985h-47.736zM414.474.328h47.122v13.986h-47.122zm-1.345 29.868h43.746V43.59h-43.746zM473.825.328h17.6v74.21h-17.6zm4.518 60.225h47.736v13.985h-47.736zM478.26.328h47.122v13.986h-47.122zm-1.345 29.868h43.746V43.59h-43.746z"/></g></svg>