<svg xmlns="http://www.w3.org/2000/svg" viewBox="0 0 732 282"><g fill="none"><path fill="#000" fill-rule="evenodd" d="M0 91h737v100H0z"/><path fill="#000" d="M279.522 217.559h10.422v43.826h-10.422zm2.62 0h27.223v8.302h-27.223zm-.71 19.525h25.145v8.022h-25.145zm34.092-19.525h10.422v43.826h-10.422zm18.346 0h10.318v43.826H333.87zm8.082 21.312h7.089q2.787 0 4.694-.604 1.908-.605 2.909-2.026 1-1.422 1-3.785.001-3.6-2.224-5.007-2.223-1.407-6.38-1.407h-7.088v-8.483h8.849q5.503 0 9.435 1.61 3.933 1.612 6.072 4.829 2.14 3.218 2.14 8.04 0 3.588-1.47 6.41-1.472 2.82-4.168 4.669-2.696 1.846-6.378 2.55l2.972-2.541 13.72 18.134v.125h-12.316l-11.399-15.591 2.59 1.377h-10.047zm35.972 11.56h.125q3.004 1.224 6.795 1.985t7.485.761q4.488 0 6.37-1.25 1.884-1.25 1.884-3.666 0-1.995-1.508-3.006-1.507-1.011-4.899-1.754l-5.38-1.217q-5.477-1.294-8.48-4.317t-3.004-8.205q0-3.896 2.108-6.786 2.108-2.892 6.155-4.498 4.046-1.608 9.934-1.608 4.244 0 7.937.74 3.694.742 6.269 1.618v9.027h-.125q-2.462-.93-6.027-1.717-3.564-.786-7.516-.786-4.017 0-6.046 1.185t-2.028 3.358q0 1.834 1.31 2.88t4.48 1.79l5.455 1.264q4.125.933 6.772 2.47 2.647 1.539 3.95 3.927 1.304 2.39 1.304 5.986 0 3.978-1.99 7.019t-6.08 4.742-10.397 1.7q-4.14 0-8.077-.691-3.938-.692-6.776-1.937zm51.81-32.246h10.407v43.2h-10.407zm-14.709-.626h39.824v8.694h-39.824zM127.142 55.66h16q2.334 0 3.929-.552 1.594-.553 2.442-1.745.846-1.191.847-3.06 0-2.841-1.893-4.11-1.894-1.268-5.451-1.268H130.22v-7.492h11.364q3.321 0 4.853-1.282t1.532-3.742q0-1.674-.726-2.723-.726-1.05-2.143-1.54-1.418-.49-3.545-.49h-14.17v-7.91h16.108q7.208 0 11.147 2.92 3.938 2.923 3.938 8.482 0 3.867-2.146 6.726t-6.027 3.736l.577-1.65q4.876.669 7.485 3.414t2.608 7.412q0 3.97-1.928 6.851-1.926 2.88-5.569 4.407t-8.811 1.527h-17.625zm-2.808-35.915h10.227v43.826h-10.227zm42.413 0h10.394v43.826h-10.394zm2.667 35.567h28.192v8.26h-28.192zm-.048-35.567h27.829v8.26h-27.829zm-.794 17.64h25.835v7.909h-25.835zm35.846-17.64h10.394v43.826h-10.394zm2.667 35.567h28.192v8.26h-28.192zm-.048-35.567h27.829v8.26h-27.829zm-.794 17.64h25.835v7.909h-25.835zm34.97 15.233h.125q3.005 1.223 6.795 1.984 3.79.762 7.485.762 4.487 0 6.37-1.25t1.883-3.667q0-1.995-1.507-3.006t-4.9-1.754l-5.38-1.217q-5.475-1.294-8.48-4.317-3.003-3.023-3.003-8.205 0-3.896 2.108-6.786 2.108-2.891 6.154-4.498 4.048-1.608 9.934-1.607 4.244 0 7.938.74 3.694.741 6.268 1.617v9.028h-.125q-2.462-.932-6.026-1.718-3.565-.786-7.517-.786-4.017 0-6.045 1.185t-2.028 3.358q0 1.834 1.31 2.88t4.479 1.79l5.456 1.264q4.125.934 6.772 2.471 2.646 1.538 3.95 3.927 1.303 2.39 1.303 5.985 0 3.979-1.99 7.02t-6.08 4.74-10.396 1.702q-4.14 0-8.078-.692t-6.775-1.936zm56.445 3.042h16q2.334 0 3.93-.552 1.593-.553 2.441-1.745.847-1.191.847-3.06 0-2.841-1.893-4.11-1.893-1.268-5.45-1.268h-12.796v-7.492H312.1q3.321 0 4.853-1.282t1.532-3.742q0-1.674-.726-2.723-.725-1.05-2.143-1.54t-3.544-.49H297.9v-7.91h16.109q7.207 0 11.146 2.92 3.939 2.923 3.939 8.482 0 3.867-2.146 6.726t-6.028 3.736l.577-1.65q4.876.669 7.485 3.414t2.608 7.412q0 3.97-1.927 6.851t-5.57 4.407q-3.64 1.527-8.81 1.527h-17.626zm-2.807-35.915h10.226v43.826h-10.226zm42.412 0h10.318v43.826h-10.318zm8.083 21.313h7.088q2.787 0 4.695-.605 1.906-.604 2.908-2.026 1-1.42 1-3.785 0-3.6-2.223-5.007-2.225-1.407-6.38-1.407h-7.088v-8.483h8.848q5.504 0 9.436 1.611 3.931 1.61 6.072 4.828t2.14 8.04q0 3.589-1.472 6.41-1.47 2.821-4.167 4.669t-6.377 2.55l2.972-2.54 13.719 18.133v.125h-12.315l-11.4-15.591 2.59 1.377h-10.046zm36.847-21.313h10.394v43.826h-10.394zm2.668 35.567h28.191v8.26h-28.191zm-.048-35.567h27.829v8.26h-27.829zm-.794 17.64h25.835v7.909h-25.835zm38.136 17.465h14.985q4.498 0 7.761-1.428t5.07-4.361 1.808-7.389q0-4.483-1.807-7.41-1.808-2.926-5.095-4.36t-7.737-1.435h-14.985v-8.722h15.837q7.416 0 12.936 2.512t8.592 7.394 3.072 12.007q0 7.11-3.048 12t-8.567 7.402q-5.52 2.511-12.985 2.511h-15.837zm-2.29-35.105h10.359v43.826h-10.36zm62.795 0h10.422v43.826H482.66zm2.62 0h27.222v8.302H485.28zm-.71 19.525h25.144v8.022H484.57zm32.256 2.388q0-5.259 1.868-9.454 1.868-4.194 5.16-7.112 3.29-2.919 7.59-4.477t9.162-1.558 9.162 1.558q4.3 1.558 7.59 4.477 3.29 2.918 5.159 7.112 1.868 4.195 1.868 9.454t-1.868 9.454-5.159 7.113q-3.29 2.919-7.59 4.477t-9.162 1.558-9.162-1.558-7.59-4.477q-3.292-2.918-5.16-7.113-1.868-4.194-1.868-9.454m10.813 0q0 2.961 1.011 5.354t2.794 4.097a12.4 12.4 0 0 0 4.12 2.61q2.339.906 5.042.906t5.041-.907a12.4 12.4 0 0 0 4.12-2.61q1.783-1.702 2.794-4.096 1.01-2.393 1.01-5.354 0-2.96-1.01-5.354t-2.794-4.096a12.4 12.4 0 0 0-4.12-2.61q-2.339-.906-5.041-.906-2.704 0-5.042.906a12.4 12.4 0 0 0-4.12 2.61q-1.783 1.702-2.794 4.096-1.01 2.394-1.01 5.354m42.835-21.913h10.317v43.826h-10.317zm8.082 21.313h7.088q2.787 0 4.695-.605 1.908-.604 2.908-2.026 1.002-1.42 1.001-3.785 0-3.6-2.224-5.007t-6.38-1.407h-7.088v-8.483h8.848q5.505 0 9.436 1.611 3.933 1.61 6.072 4.828t2.14 8.04q0 3.589-1.471 6.41t-4.168 4.669-6.377 2.55l2.972-2.54 13.72 18.133v.125h-12.316L586.013 47.98l2.59 1.377h-10.047z"/><path fill="#eb6d13" d="M14.907 141q0-5.259 1.784-9.454 1.785-4.194 5.03-7.113 3.245-2.918 7.694-4.476 4.45-1.56 9.73-1.559 4.065 0 7.345.72 3.281.72 5.854 1.834v9.186h-.125a22 22 0 0 0-3.536-1.286 34 34 0 0 0-4.07-.856 29 29 0 0 0-4.247-.313q-3.337 0-6.034.921-2.697.922-4.619 2.665a11.8 11.8 0 0 0-2.957 4.202q-1.036 2.455-1.036 5.53 0 3.071 1.036 5.529a11.8 11.8 0 0 0 2.957 4.2q1.922 1.745 4.62 2.666 2.696.921 6.033.921 2.136 0 4.247-.313a31 31 0 0 0 4.07-.88 28 28 0 0 0 3.536-1.261h.125v9.186q-2.573 1.099-5.854 1.826t-7.345.727q-5.28 0-9.73-1.558-4.448-1.56-7.694-4.477t-5.03-7.113q-1.785-4.195-1.784-9.454m41.317 21.788 21.117-43.7h6.552l21.067 43.7v.125H93.57l-5.145-11.079.28-.237-9.681-20.883h2.738l-9.73 20.835.28.285-5.193 11.08H56.224zm12.163-15.068h24.014v7.652H68.387zm41.668-28.633h10.422v43.826h-10.422zm2.268 35.132h27.832v8.694h-27.832zm33.532-35.132h7.748l18.842 29.989h-2.323l18.663-29.989h7.748v43.826h-9.935v-26.329l1.643.37-14.533 23.206h-5.042l-14.52-23.207 1.643-.369v26.33h-9.934zm84.732.626h10.407v43.2h-10.407zm-14.708-.626h39.824v8.694h-39.824zm45.19 0h10.394v43.826h-10.394zm2.667 35.567h28.192v8.26h-28.192zm-.047-35.567h27.828v8.26H263.69zm-.795 17.64h25.835v7.908h-25.835zm35.846-17.64h7.747l18.843 29.989h-2.323l18.663-29.989h7.747v43.826h-9.934v-26.329l1.643.37-14.533 23.206h-5.042l-14.52-23.207 1.643-.369v26.33h-9.934zm58.601 0h10.408v43.826h-10.408zm6.173 23.022h9.888q4.317 0 6.64-1.749 2.325-1.748 2.324-5.563 0-3.829-2.324-5.577t-6.64-1.747h-9.888v-8.386h11.073q5.44 0 9.63 1.705 4.188 1.704 6.547 5.186t2.36 8.819q0 5.337-2.384 8.813-2.385 3.475-6.548 5.155-4.165 1.68-9.605 1.68h-11.073zm35.087-23.022h10.394v43.826h-10.394zm2.668 35.567h28.191v8.26H401.27zm-.048-35.567h27.828v8.26h-27.828zm-.795 17.64h25.835v7.908h-25.835zm35.846-17.64h10.318v43.826h-10.318zm8.082 21.313h7.089q2.787 0 4.694-.605 1.908-.604 2.909-2.026t1-3.785q.001-3.6-2.224-5.007-2.223-1.407-6.38-1.407h-7.088v-8.483h8.849q5.503 0 9.435 1.61 3.933 1.612 6.073 4.829 2.14 3.218 2.14 8.04 0 3.589-1.472 6.41-1.47 2.82-4.167 4.669-2.696 1.846-6.377 2.55l2.971-2.541 13.72 18.134v.125H463.21l-11.398-15.591 2.589 1.377h-10.047zm34.019 22.388 21.117-43.7h6.55l21.069 43.7v.125h-11.391l-5.145-11.079.281-.237-9.682-20.883h2.738l-9.73 20.835.281.285-5.193 11.08h-10.895zm12.162-15.068h24.015v7.652h-24.015zm41.668-28.633h7.748l18.842 29.989h-2.322l18.662-29.989h7.748v43.826h-9.934v-26.329l1.642.37-14.533 23.206h-5.042l-14.52-23.207 1.643-.369v26.33h-9.934zm58.602 0h10.394v43.826h-10.394zm2.667 35.567h28.192v8.26h-28.192zm-.048-35.567h27.829v8.26h-27.829zm-.794 17.64h25.835v7.908H592.63zm35.846-17.64h7.288l23.71 28.493-1.878.815v-29.308h9.935v43.826h-7.287l-23.712-28.479 1.878-.815v29.294h-9.934zm59.13.626h10.407v43.2h-10.407zm-14.709-.626h39.824v8.694h-39.824z"/></g></svg>