<svg xmlns="http://www.w3.org/2000/svg" viewBox="0 0 650 282"><g fill="none"><path fill="#000" d="M11.512 134.059H18.8l23.71 28.493-1.878.815v-29.308h9.935v43.826H43.28l-23.712-28.479 1.878-.815v29.294h-9.934zm46.423 24.596V134.06h10.421v24.26q0 3.462 1.178 5.867t3.499 3.634q2.32 1.23 5.623 1.23 3.364 0 5.653-1.23 2.29-1.23 3.468-3.634 1.178-2.406 1.178-5.866v-24.261h10.06v24.596q0 6.855-2.624 11.272-2.624 4.418-7.25 6.532-4.627 2.115-10.666 2.115t-10.66-2.115-7.25-6.532q-2.63-4.417-2.63-11.272m46.612-2.683q0-5.259 1.784-9.454 1.784-4.194 5.03-7.113 3.245-2.918 7.694-4.476 4.45-1.56 9.73-1.559 4.064 0 7.345.72t5.854 1.834v9.185h-.126a22 22 0 0 0-3.535-1.285 34 34 0 0 0-4.07-.856 29 29 0 0 0-4.247-.313q-3.337 0-6.034.921-2.697.92-4.619 2.665a11.8 11.8 0 0 0-2.958 4.201q-1.036 2.457-1.036 5.53t1.036 5.53a11.8 11.8 0 0 0 2.958 4.2q1.921 1.745 4.619 2.666t6.034.921q2.136 0 4.247-.313a31 31 0 0 0 4.07-.88 28 28 0 0 0 3.535-1.261h.126v9.186q-2.574 1.099-5.854 1.826-3.282.727-7.345.727-5.28 0-9.73-1.559-4.448-1.557-7.694-4.476t-5.03-7.113q-1.785-4.195-1.784-9.454m44.146-21.913h10.423v43.826h-10.423zm2.269 35.132h27.831v8.694h-27.831zm33.531-35.132h10.394v43.826h-10.394zm2.668 35.567h28.192v8.26H187.16zm-.048-35.567h27.829v8.26h-27.829zm-.794 17.639h25.835v7.91h-25.835zm35.29 6.957V134.06h10.421v24.26q0 3.462 1.178 5.867t3.499 3.634q2.32 1.23 5.622 1.23 3.365 0 5.654-1.23t3.468-3.634q1.177-2.406 1.177-5.866v-24.261h10.06v24.596q0 6.855-2.623 11.272-2.624 4.418-7.25 6.532-4.628 2.115-10.667 2.115-6.04 0-10.66-2.115t-7.25-6.532-2.63-11.272m47.57 8.277h.126q3.004 1.222 6.795 1.984t7.485.761q4.487 0 6.37-1.25t1.883-3.666q0-1.995-1.507-3.006t-4.9-1.754l-5.38-1.217q-5.475-1.294-8.48-4.317-3.003-3.023-3.003-8.205 0-3.896 2.108-6.786 2.108-2.892 6.154-4.498 4.048-1.608 9.934-1.608 4.244 0 7.938.74 3.694.742 6.268 1.618v9.027h-.125q-2.462-.93-6.026-1.717-3.565-.786-7.517-.786-4.017 0-6.045 1.185t-2.028 3.358q0 1.835 1.31 2.88 1.31 1.046 4.479 1.79l5.456 1.264q4.125.934 6.772 2.47 2.646 1.539 3.95 3.927 1.303 2.39 1.303 5.986 0 3.978-1.99 7.019t-6.08 4.742-10.396 1.7q-4.14 0-8.078-.691-3.937-.692-6.775-1.937zm51.803-10.96q0-5.259 1.785-9.454 1.784-4.194 5.03-7.113 3.245-2.918 7.694-4.476 4.45-1.56 9.73-1.559 4.063 0 7.345.72 3.28.72 5.853 1.834v9.185h-.125a22 22 0 0 0-3.536-1.285 34 34 0 0 0-4.07-.856 29 29 0 0 0-4.246-.313q-3.337 0-6.034.921-2.697.92-4.62 2.665a11.8 11.8 0 0 0-2.957 4.201q-1.035 2.457-1.036 5.53 0 3.073 1.036 5.53a11.8 11.8 0 0 0 2.958 4.2q1.921 1.745 4.619 2.666t6.034.921q2.135 0 4.247-.313a31 31 0 0 0 4.07-.88 28 28 0 0 0 3.535-1.261h.125v9.186q-2.572 1.099-5.853 1.826-3.282.727-7.345.727-5.28 0-9.73-1.559-4.449-1.557-7.695-4.476-3.245-2.919-5.03-7.113-1.784-4.195-1.784-9.454m42.312 0q0-5.259 1.868-9.454 1.868-4.194 5.159-7.113 3.291-2.918 7.59-4.476 4.299-1.56 9.162-1.559 4.863 0 9.163 1.559t7.59 4.476 5.158 7.113 1.868 9.454-1.868 9.454-5.158 7.113-7.59 4.476q-4.3 1.56-9.163 1.559-4.863 0-9.162-1.559-4.299-1.557-7.59-4.476t-5.16-7.113q-1.867-4.195-1.867-9.454m10.813 0q0 2.96 1.01 5.354 1.012 2.394 2.794 4.097a12.4 12.4 0 0 0 4.12 2.61q2.34.906 5.042.906 2.704 0 5.041-.907a12.4 12.4 0 0 0 4.12-2.61q1.784-1.702 2.794-4.096 1.011-2.393 1.011-5.354 0-2.96-1.01-5.354-1.012-2.394-2.794-4.096a12.4 12.4 0 0 0-4.12-2.61q-2.34-.907-5.042-.907t-5.042.907a12.4 12.4 0 0 0-4.12 2.61q-1.783 1.702-2.793 4.096t-1.011 5.354m42.834-21.913h10.422v43.826h-10.422zm2.269 35.132h27.831v8.694H419.21zm31.696-13.219q0-5.259 1.868-9.454 1.868-4.194 5.159-7.113 3.291-2.918 7.59-4.476 4.299-1.56 9.162-1.559 4.864 0 9.163 1.559t7.59 4.476q3.29 2.919 5.158 7.113t1.868 9.454-1.868 9.454-5.158 7.113-7.59 4.476q-4.299 1.56-9.163 1.559-4.862 0-9.162-1.559-4.299-1.557-7.59-4.476t-5.16-7.113q-1.867-4.195-1.867-9.454m10.813 0q0 2.96 1.01 5.354 1.012 2.394 2.794 4.097a12.4 12.4 0 0 0 4.12 2.61q2.34.906 5.042.906 2.704 0 5.041-.907a12.4 12.4 0 0 0 4.12-2.61q1.784-1.702 2.794-4.096 1.011-2.393 1.011-5.354 0-2.96-1.01-5.354-1.012-2.394-2.794-4.096a12.4 12.4 0 0 0-4.12-2.61q-2.34-.907-5.042-.907-2.704 0-5.041.907a12.4 12.4 0 0 0-4.12 2.61q-1.784 1.702-2.794 4.096t-1.011 5.354m42.834-21.913h7.288l23.711 28.493-1.878.815v-29.308h9.934v43.826h-7.287l-23.712-28.479 1.878-.815v29.294h-9.934zm46.98 0h10.422v43.826h-10.423zm18.345 0h10.394v43.826h-10.394zm2.668 35.567h28.191v8.26h-28.191zm-.048-35.567h27.828v8.26h-27.828zm-.795 17.639h25.835v7.91h-25.835zm34.97 15.234h.126q3.003 1.222 6.794 1.984t7.485.761q4.488 0 6.37-1.25 1.884-1.25 1.884-3.666 0-1.995-1.508-3.006t-4.899-1.754l-5.38-1.217q-5.477-1.294-8.48-4.317t-3.004-8.205q0-3.896 2.108-6.786 2.109-2.892 6.155-4.498 4.047-1.608 9.934-1.608 4.244 0 7.937.74 3.694.742 6.269 1.618v9.027h-.125q-2.462-.93-6.027-1.717-3.564-.786-7.516-.786-4.017 0-6.046 1.185t-2.028 3.358q0 1.835 1.31 2.88 1.31 1.046 4.48 1.79l5.455 1.264q4.125.934 6.772 2.47 2.647 1.539 3.95 3.927 1.304 2.39 1.304 5.986 0 3.978-1.99 7.019t-6.08 4.742-10.397 1.7q-4.14 0-8.077-.691-3.938-.692-6.776-1.937zM51.91 250.41h.125q3.005 1.222 6.794 1.984 3.79.762 7.486.762 4.487 0 6.37-1.25t1.883-3.667q0-1.995-1.507-3.006t-4.9-1.754l-5.38-1.217q-5.475-1.294-8.48-4.317-3.004-3.022-3.004-8.205 0-3.896 2.108-6.786 2.11-2.891 6.155-4.498 4.047-1.607 9.934-1.607 4.244 0 7.938.74 3.694.741 6.268 1.617v9.028h-.125q-2.462-.932-6.027-1.718t-7.516-.786q-4.017 0-6.045 1.185t-2.029 3.358q0 1.835 1.31 2.88 1.31 1.046 4.48 1.79l5.456 1.264q4.125.934 6.772 2.471 2.645 1.538 3.95 3.927 1.303 2.39 1.303 5.985 0 3.979-1.99 7.02t-6.08 4.74-10.396 1.702q-4.14 0-8.078-.692t-6.775-1.937zm37.823-10.96q0-5.259 1.868-9.454 1.868-4.194 5.159-7.113 3.291-2.918 7.59-4.476t9.162-1.558 9.163 1.558 7.59 4.476 5.158 7.113 1.868 9.454-1.868 9.454-5.158 7.113-7.59 4.477-9.163 1.558-9.162-1.558-7.59-4.477-5.16-7.113q-1.866-4.195-1.867-9.454m10.813 0q0 2.96 1.01 5.354 1.012 2.394 2.794 4.097a12.4 12.4 0 0 0 4.12 2.61q2.34.906 5.042.906 2.704 0 5.041-.907a12.4 12.4 0 0 0 4.12-2.61q1.784-1.701 2.794-4.096t1.011-5.354q0-2.96-1.01-5.354-1.012-2.394-2.794-4.096a12.4 12.4 0 0 0-4.12-2.61q-2.34-.907-5.042-.907t-5.042.907a12.4 12.4 0 0 0-4.12 2.61q-1.783 1.702-2.793 4.096t-1.011 5.354m42.834-21.913h10.422v43.826H143.38zm2.269 35.133h27.831v8.693H145.65zm35.822-.028h14.985q4.498 0 7.761-1.428t5.07-4.361q1.809-2.932 1.808-7.389 0-4.484-1.807-7.41-1.807-2.925-5.095-4.36t-7.737-1.436h-14.985v-8.72h15.837q7.416 0 12.936 2.51 5.52 2.512 8.592 7.395 3.072 4.884 3.072 12.007 0 7.11-3.048 12t-8.567 7.402q-5.52 2.511-12.985 2.511h-15.837zm-2.29-35.105h10.359v43.826h-10.36zm62.795 0h10.422v43.826h-10.422zm2.268 35.133h27.832v8.693h-27.832zm30.703 8.568 21.116-43.7h6.552l21.068 43.7v.125h-11.391l-5.145-11.078.28-.238-9.68-20.883h2.737l-9.73 20.835.281.286-5.193 11.078h-10.895zm12.162-15.068h24.015v7.652h-24.015zm40.792 4.24h.126q3.003 1.222 6.794 1.984t7.485.762q4.488 0 6.37-1.25 1.884-1.25 1.884-3.667 0-1.995-1.508-3.006-1.507-1.011-4.899-1.754l-5.38-1.217q-5.477-1.294-8.48-4.317-3.004-3.022-3.004-8.205 0-3.896 2.108-6.786 2.108-2.891 6.155-4.498t9.934-1.607q4.244 0 7.937.74 3.694.741 6.269 1.617v9.028h-.125q-2.462-.932-6.027-1.718t-7.516-.786q-4.017 0-6.045 1.185-2.03 1.185-2.029 3.358 0 1.835 1.31 2.88 1.31 1.046 4.48 1.79l5.455 1.264q4.126.934 6.772 2.471 2.647 1.538 3.95 3.927t1.304 5.985q0 3.979-1.99 7.02t-6.08 4.74-10.397 1.702q-4.14 0-8.077-.692t-6.776-1.937zm51.81-32.247h10.407v43.2h-10.407zm-14.708-.626h39.824v8.694h-39.824zm73.59 26.264-17.25-26.139v-.125h11.932l11.615 18.426h-1.602l11.686-18.426h11.387v.125l-17.346 26.139v17.562h-10.422zm32.863-26.264h10.394v43.826h-10.394zm2.668 35.567h28.191v8.26h-28.191zm-.048-35.567h27.828v8.26h-27.828zm-.794 17.64h25.834v7.909h-25.834zm33.016 26.061 21.117-43.7h6.551l21.068 43.7v.125h-11.391l-5.145-11.078.281-.238-9.682-20.883h2.738l-9.73 20.835.281.286-5.193 11.078h-10.895zm12.163-15.068h24.014v7.652h-24.014zm41.667-28.633h10.318v43.826h-10.318zm8.082 21.313h7.089q2.787 0 4.695-.605 1.906-.604 2.908-2.026 1-1.421 1-3.785 0-3.6-2.223-5.007-2.225-1.407-6.38-1.407h-7.089v-8.483h8.849q5.503 0 9.436 1.611t6.072 4.828 2.14 8.04q0 3.589-1.472 6.41-1.47 2.82-4.167 4.669-2.696 1.846-6.377 2.55l2.972-2.54 13.719 18.133v.125h-12.316l-11.398-15.591 2.59 1.377H568.21z"/><path fill="#eb6d13" d="m183.193 25.895 3.293 3.605-17.09 10.28h-.19V24.887l23.028-14.643h6.036V76.07h-15.077zm35.72 64.965q3.86-4.152 6.422-7.922 2.563-3.77 3.773-7.396l4.06.042q-1.073.817-2.201 1.177a7.4 7.4 0 0 1-2.263.36q-3.427 0-5.67-2.18-2.245-2.181-2.245-5.448 0-3.29 2.319-5.502t5.853-2.212q3.82 0 6.06 2.498t2.24 6.647q0 4.474-1.761 9.825a48.7 48.7 0 0 1-4.806 10.302h-11.78zM248.992 72.3l21.812-24.83q3.509-4.075 5.309-6.82 1.8-2.743 2.415-4.824t.616-3.967q0-4.44-2.899-6.318-2.898-1.88-7.917-1.88-5.218 0-10.175 1.469-4.957 1.468-8.392 2.995h-.19V13.77q5.643-2.573 10.966-3.575a57 57 0 0 1 10.518-1.002q7.295 0 12.8 2.06 5.505 2.057 8.612 6.404 3.106 4.346 3.106 11.3 0 2.758-.765 5.848t-2.953 6.944-6.374 8.908l-16.1 19.726-2.388-7.31h31.416V76.07h-49.417zm59.9-29.05q0-11.075 3.644-18.658T322.55 13.1q6.369-3.908 14.49-3.908 8.215 0 14.536 3.907 6.322 3.908 9.967 11.49 3.645 7.584 3.645 18.66 0 10.89-3.645 18.474t-9.967 11.49-14.536 3.907q-8.121 0-14.49-3.907t-10.014-11.49-3.645-18.474m16.108 0q0 6.42 1.41 10.855t4.089 6.7q2.68 2.262 6.54 2.263 3.861 0 6.587-2.264 2.728-2.264 4.137-6.699 1.41-4.436 1.41-10.854 0-6.607-1.41-11.041t-4.137-6.698-6.586-2.263-6.541 2.263q-2.68 2.265-4.09 6.698-1.41 4.434-1.41 11.04m47.898 0q0-11.075 3.644-18.658t10.014-11.49q6.369-3.908 14.49-3.908 8.215 0 14.537 3.907 6.321 3.908 9.966 11.49 3.646 7.584 3.646 18.66 0 10.89-3.646 18.474t-9.966 11.49-14.537 3.907q-8.121 0-14.49-3.907t-10.014-11.49-3.644-18.474m16.108 0q0 6.42 1.41 10.855 1.408 4.435 4.09 6.7 2.679 2.262 6.54 2.263 3.86 0 6.587-2.264t4.136-6.699 1.41-10.854q0-6.607-1.41-11.041t-4.136-6.698-6.587-2.263q-3.861 0-6.54 2.263-2.682 2.265-4.09 6.698-1.41 4.434-1.41 11.04m69.835-16.348h12.423v39.19H458.84zm-13.586 13.774h39.594V52.41h-39.594z"/></g></svg>