<svg xmlns="http://www.w3.org/2000/svg" viewBox="0 0 512 512">
<g fill="none">
<path fill="#120805" d="M0 0h512v512H0z"/>
<path fill="#ec9215" d="m348.6 258.2 11.6-55-54.8-67.6-22.7 28.1 33 40.9h-22L199.5 88.2l-48.1 59.6 62.7 77.4h-22l-51.7-63.8-78.5 97.2zm13.8 17.1c-17.3 78.8-38.6 122.2-72.5 146.4C247.2 452 180 450 129.5 450c11.6-54.9 27.7-129 76.2-163.5q9-6.3 19.2-11l-198.9.2L199.5 61l72.1 89.1 33.7-41.7L365 182c3-9 8.3-16.3 15-21.7 7-5.7 15.6-9.4 24.8-11.1a72 72 0 0 1 66.7 23.5 71.8 71.8 0 0 1 9.2 70.2q-5.4 13.2-16 22c-8 6.5-18 10.4-30 10.4zm-42.6 80.4c9.5-20.7 17.6-47 25-80.3-33.8.2-61.6 1.6-84.8 6.6zm-84.2 70.5-59.6-74a412 412 0 0 0-25.3 80.6c34-.2 61.8-1.6 85-6.6m17.9-5a105 105 0 0 0 26.4-13.5c11.9-8.5 22.1-20 31.2-35.4L242 287a105 105 0 0 0-26.5 13.5 111 111 0 0 0-31 35.1zM380.3 191l-14.2 67.2h68.6c7.7 0 14.2-2.5 19.3-6.6q7.1-5.9 10.9-15.2 4-9.6 4-20.7c0-11.6-3.5-23.3-10.7-32.2A54.6 54.6 0 0 0 408 166a38 38 0 0 0-17.1 7.6 30 30 0 0 0-10.5 17.4"/>
</g>
</svg>