<svg xmlns="http://www.w3.org/2000/svg" viewBox="0 0 1309 286">
<defs>
<path id="a" d="M0 0h1309v286H0z"/>
</defs>
<g fill="none">
<use fill="#120805" fill-rule="evenodd" href="#a"/>
<path fill="#fff" d="M418.3 125.4h20.8q4 0 7.2-1 3-1 4.7-3.2a9 9 0 0 0 1.7-5.8q.1-5-3.4-7.4a18 18 0 0 0-10-2.3h-18.7v-6.4H438q5.9 0 8.6-2.3 2.7-2.4 2.7-6.8 0-3.2-1.4-5.1a8 8 0 0 0-4-2.7q-2.7-.8-6.4-.8h-18.8V75H439q9.2 0 14 3.7 4.6 3.7 4.6 10.5 0 5.3-2.9 9-3 3.7-8.1 4.5l.5-1.3a16 16 0 0 1 10.1 4.2q3.7 3.5 3.7 9.8 0 5-2.4 8.8-2.4 3.6-7.1 5.6a30 30 0 0 1-11.5 2h-21.6zM416.1 75h7.8v56.7h-7.8zm60.9 0h7.9v56.7h-8zm2 50h34.5v6.7H479zm46 6.6 28-56.9h4.5l27.8 56.9v.1h-8.6l-7.4-15.2v-.3l-15.7-32.5h3l-15.7 32.3v.3l-7.5 15.4H525zm12.6-18.8h34.7l.4 6.4h-35.4zm55.6-9.4q0-6.8 2.3-12.2 2.4-5.4 6.5-9.2t9.7-5.9 12-2a41 41 0 0 1 17.4 3.7v7.3h-.2a29 29 0 0 0-10.6-3.3q-3-.4-6-.4-5 0-9.2 1.5t-7.3 4.5a20 20 0 0 0-4.7 7 23 23 0 0 0-1.7 9q0 5 1.7 9a20 20 0 0 0 12 11.4q4.1 1.5 9.2 1.6a41 41 0 0 0 11.5-1.7q2.7-.9 5.1-2.1h.2v7.3a41 41 0 0 1-17.4 3.7q-6.4 0-12-2t-9.7-5.8a26 26 0 0 1-6.5-9.3 31 31 0 0 1-2.3-12.1m65-28.4h8v56.7h-8zm7.4 26 32.2-26h10.5v.2l-34.9 28V100l35.4 31.7v.1h-11l-32.2-29zM751 75h5.7l27 44.2h-2.6L808 75.2h5.7v56.7h-7.5v-43l1.5.4-23.3 38.3h-4L757 89.2l1.6-.4v43H751zm79.3 28.4q0-6.8 2.4-12.2 2.3-5.4 6.5-9.2 4.1-3.8 9.6-5.9a33 33 0 0 1 23.1 0q5.4 2 9.6 5.9 4.2 3.8 6.5 9.2 2.4 5.3 2.4 12.2 0 6.7-2.4 12.1a27 27 0 0 1-6.5 9.3q-4.2 3.7-9.6 5.8a33 33 0 0 1-23.1 0 30 30 0 0 1-9.6-5.8q-4.2-3.8-6.5-9.3a30 30 0 0 1-2.4-12.1m8.1 0q0 5 1.7 9a21 21 0 0 0 11.7 11.4 23 23 0 0 0 8.5 1.6q4.6 0 8.5-1.6a21 21 0 0 0 13.4-20.4 23 23 0 0 0-1.7-9A21 21 0 0 0 868.8 83a23 23 0 0 0-8.5-1.5q-4.5 0-8.5 1.5a21 21 0 0 0-13.4 20.5m67.7 4.4V75.1h8v32.7q0 5.8 2 9.7 2.1 3.9 6.1 6 4 2 9.4 2t9.4-2q3.9-2.1 6-6t2.1-9.7V75.1h7.7v32.8q0 8.4-3.3 14a20 20 0 0 1-9 8.1 30 30 0 0 1-13 2.7q-7.5 0-13.1-2.7a20 20 0 0 1-9-8.2 27 27 0 0 1-3.3-13.9m69.1-32.8h5.4l36.8 45-1.9.6V75h7.6v56.7h-5.4l-36.8-45 1.9-.5v45.5h-7.6zm84.8.8h7.9v56h-7.9zm-21.7-.8h51.3v6.7h-51.3zm54.2 56.6 27.9-56.9h4.5l27.9 56.9v.1h-8.6l-7.4-15.2-.1-.3-15.6-32.5h3l-15.7 32.3v.3l-7.5 15.4h-8.4zm12.6-18.8h34.7l.4 6.4h-35.4zm62.8-37.8h8v56.7h-8zm27.2 0h5.4l36.8 45-1.9.6V75h7.6v56.7h-5.4l-36.8-45 1.9-.5v45.5h-7.6zm-541.9 93h6v42.8h-6zm31.4 0h6v42.8h-6zm3.3 23.6h-32.4v-5h32.4zm44.4-2.2q0-5.1 1.8-9.2 1.7-4.2 4.9-7 3-3 7.2-4.4a25 25 0 0 1 17.5 0q4.2 1.5 7.3 4.4 3 2.8 4.9 7 1.8 4 1.8 9.2 0 5-1.8 9.2-1.7 4-5 7-3 2.8-7.2 4.4a25 25 0 0 1-17.5 0q-4-1.5-7.2-4.4t-5-7a23 23 0 0 1-1.7-9.2m6.1 0q0 3.8 1.3 6.8a16 16 0 0 0 8.8 8.6q3 1.2 6.5 1.2 3.4 0 6.4-1.2a16 16 0 0 0 10.1-15.4q0-3.8-1.3-6.9a16 16 0 0 0-8.8-8.6q-3-1.2-6.4-1.2t-6.5 1.2a16 16 0 0 0-10 15.5m81-21.5h4l28 34-1.5.5V168h5.7v43h-4l-28-34.1 1.5-.4v34.4h-5.7zm80 0h5.9v43h-6zm1.5 37.9h27.3v5h-27.3zm-.1-37.9h27v5h-27zm-.4 18.6H925v5h-24.6zm84.5 6.5-17.5-25h7l14.3 20.5h-1.2l14.3-20.6h6.7v.2l-17.6 25v17.7h-6zm-706.4-48.8 7.7-36.4L250 63.3l-15 18.6 21.9 27h-14.6l-62.4-77L148 71.5l41.5 51.1h-14.6l-34.2-42.2-52 64.2zm9.2 11.3c-11.5 52-25.6 80.7-48 96.7-28.3 20-72.8 18.7-106.2 18.7 7.7-36.2 18.4-85.2 50.5-108q6-4.2 12.6-7.3L65 156 179.8 14l47.8 58.9 22.3-27.6L289.4 94q3.2-9 9.9-14.3a37 37 0 0 1 16.4-7.3A48 48 0 0 1 360 87.8a47.3 47.3 0 0 1 6.1 46.4c-2.4 5.7-6 10.8-10.6 14.5a31 31 0 0 1-19.8 7zm-28.3 53.1a273 273 0 0 0 16.7-53c-22.4 0-40.9 1-56.2 4.3zm-55.6 46.6-39.5-48.9a272 272 0 0 0-16.7 53.3c22.4-.2 40.9-1 56.2-4.4m11.8-3.4a70 70 0 0 0 17.5-8.8 74 74 0 0 0 20.7-23.4L208 163.3a70 70 0 0 0-17.5 9 73 73 0 0 0-20.5 23.1zm84-152-9.5 44.4h45.5q7.6-.1 12.7-4.4 4.7-3.9 7.2-10a36 36 0 0 0 2.6-13.7c0-7.7-2.3-15.4-7-21.2a36.2 36.2 0 0 0-33.3-11.6q-6.5 1.2-11.4 5a20 20 0 0 0-6.9 11.5"/>
</g>
</svg>