<svg xmlns="http://www.w3.org/2000/svg" viewBox="0 0 1309 286">
<path fill="#120805" d="M392.4 124h23q4.8 0 8-1.2 3.5-1 5.4-3.5 1.8-2.4 1.9-6.5 0-5.5-3.8-8.2a20 20 0 0 0-11.1-2.6h-20.9v-7h19.5q6.5 0 9.5-2.7 3-2.5 3-7.5 0-3.6-1.5-5.7a9 9 0 0 0-4.5-3q-3-1-7-1h-21V68h22.5q10.2 0 15.5 4a14 14 0 0 1 5.2 11.8q0 5.8-3.2 10a14 14 0 0 1-9.1 5l.6-1.5q7.2.7 11.3 4.7 4 4 4 11 0 5.7-2.7 9.7a17 17 0 0 1-7.9 6.3 33 33 0 0 1-12.7 2.1h-24zM390 68h8.7V131H390zm67.6 0h8.7V131h-8.7zm2.2 55.7H498v7.4h-38.3zm51.1 7.2 31-63.2h5l31 63.2v.2h-9.6l-8.2-16.9v-.4l-17.4-36.1h3.3l-17.4 36v.3l-8.4 17.1H511zm14-20.8h38.6l.4 7.1h-39.3zm61.8-10.5q0-7.6 2.6-13.6 2.5-6 7.1-10.3 4.6-4.2 10.8-6.4t13.4-2.3a46 46 0 0 1 19.2 4.1v8.2h-.2a33 33 0 0 0-11.8-3.7q-3-.6-6.6-.5-5.6 0-10.2 1.7a22.2 22.2 0 0 0-13.3 12.7 26 26 0 0 0-2 10q0 5.5 2 10.1a22 22 0 0 0 13.3 12.7q4.6 1.8 10.2 1.7a46 46 0 0 0 12.8-1.8q3-1 5.7-2.3h.2v8a46 46 0 0 1-19.3 4.2q-7.2 0-13.4-2.3a32 32 0 0 1-10.8-6.4q-4.5-4.2-7.1-10.3-2.6-6-2.6-13.5M658.9 68h8.8V131h-8.8zm8.1 28.8L703 68h11.5v.2l-38.7 31v-3.5l39.3 35.2v.2h-12.3L667 99zM762 68h6.3l30 49.2h-2.9L825.2 68h6.3V131h-8.4V83.2l1.7.5-25.8 42.6h-4.5l-26-42.6 1.9-.5v48h-8.5zm88 31.6q0-7.6 2.6-13.6 2.7-6 7.3-10.3 4.5-4.2 10.6-6.4a36 36 0 0 1 25.7 0q6 2.2 10.7 6.4T914 86t2.7 13.6q0 7.5-2.7 13.5-2.6 6-7.2 10.3t-10.7 6.4a36 36 0 0 1-25.7 0q-6-2.2-10.6-6.4t-7.3-10.3-2.6-13.5m9 0q0 5.4 2 10a23 23 0 0 0 13 12.7q4.3 1.8 9.4 1.7 5 0 9.4-1.7a23 23 0 0 0 14.9-22.7q0-5.6-1.9-10.1a23 23 0 0 0-13-12.7q-4.4-1.7-9.4-1.7t-9.5 1.7a23 23 0 0 0-14.8 22.8m75.3 5V68h8.7v36.4q0 6.5 2.4 10.8 2.3 4.3 6.7 6.6t10.4 2.2 10.5-2.2q4.3-2.2 6.7-6.6 2.3-4.4 2.3-10.8V68h8.5v36.5q0 9.4-3.6 15.5t-10 9.1-14.5 3-14.5-3-10-9.1q-3.6-6-3.6-15.5M1011 68h6l40.9 50.1-2.1.6V68h8.4V131h-6l-41-50 2.2-.7v50.7h-8.4zm94.2.9h8.7V131h-8.7zm-24-1h56.8v7.5H1081zm60 63 31-63.2h5l31 63.2v.2h-9.6l-8.1-16.9-.2-.4-17.3-36.1h3.3l-17.4 36v.3l-8.4 17.1h-9.3zm14-20.8h38.6l.4 7.1h-39.3zM1225 68h8.8V131h-8.8zm30.2 0h6l41 50.1-2.2.6V68h8.4V131h-6l-40.9-50 2.2-.7v50.7h-8.5zM653.3 171.4h6.7v47.7h-6.7zm34.9 0h6.6v47.7h-6.6zm3.7 26.4h-36v-5.6h36zm49.2-2.5q0-5.7 2-10.3 2-4.5 5.5-7.7t8-5a27 27 0 0 1 19.5 0q4.5 1.8 8 5 3.6 3.1 5.5 7.7 2 4.6 2 10.3t-2 10.2-5.5 7.8-8 4.9a27 27 0 0 1-19.5 0q-4.5-1.7-8-5a23 23 0 0 1-5.5-7.7q-2-4.5-2-10.2m6.9 0q0 4.2 1.4 7.6a17 17 0 0 0 9.8 9.6q3.3 1.3 7.2 1.3 3.8 0 7.1-1.3a18 18 0 0 0 11.3-17.2q0-4.3-1.5-7.6a17 17 0 0 0-9.8-9.6q-3.3-1.3-7.1-1.3-3.9 0-7.2 1.3a18 18 0 0 0-11.2 17.2m90-23.9h4.4l31 37.9-1.6.5v-38.4h6.3v47.7h-4.5l-31-37.8 1.7-.5v38.3h-6.4zm88.7 0h6.6v47.7h-6.6zm1.7 42.1h30.3v5.6h-30.3zm0-42h29.8v5.5h-29.9zm-.5 20.6h27.3v5.5h-27.3zm93.9 7.2-19.5-27.7v-.2h7.7l16 23h-1.4l15.9-23h7.4v.2l-19.5 27.7v19.8h-6.6zM237 145l8.6-40.5L205.4 55l-16.7 20.6 24.3 30h-16.2L127.6 20 92.2 63.8l46 57h-16.1l-38-47-57.7 71.5zm10.2 12.6c-12.7 57.9-28.4 89.8-53.3 107.6-31.4 22.3-80.8 20.8-117.9 20.8 8.6-40.3 20.4-94.8 56-120.2q6.7-4.7 14.1-8.1L0 157.9 127.5 0l53.1 65.5L205.4 35l43.9 54a34 34 0 0 1 11-16 41 41 0 0 1 18.2-8 53 53 0 0 1 49 17.3 52.8 52.8 0 0 1 6.8 51.6c-2.6 6.3-6.6 12-11.7 16.1a34 34 0 0 1-22 7.7zm-31.3 59a304 304 0 0 0 18.4-59 312 312 0 0 0-62.3 4.9zM154 268.6 110.3 214a303 303 0 0 0-18.6 59.3c25-.2 45.4-1.2 62.4-5m13.2-3.6a77 77 0 0 0 19.4-9.9 82 82 0 0 0 23-26l-50.8-62.7a77 77 0 0 0-19.5 9.9 82 82 0 0 0-22.8 25.8zm93.2-169.2L250 145h50.5a22 22 0 0 0 14.1-4.8 28 28 0 0 0 8-11.2q3-7.2 3-15.3c0-8.5-2.6-17-7.8-23.6a40.2 40.2 0 0 0-37-12.9 28 28 0 0 0-12.6 5.5 22 22 0 0 0-7.7 12.9"/>
</svg>