<svg xmlns="http://www.w3.org/2000/svg" xmlns:xlink="http://www.w3.org/1999/xlink" viewBox="0 0 512 512"><defs><path id="a" d="M0 0h512v512H0Z"/></defs><g fill="none"><use xlink:href="#a" fill="#000" fill-rule="evenodd"/><path stroke="red" stroke-linecap="round" stroke-width=".5" d="M0 0h512v591H0z"/><g fill="#f2580c" fill-rule="nonzero"><path d="m125.795 106.726 15.129 18.204-62.236 35.379H78V92.987L169.807 37h29.915v237h-73.927zM329.127 112.565h15.817l-69.458 92.396-6.533-26.104H434V234.5H211.875v-26.104L352.164 37h49.514v237h-72.551z"/></g><path fill="#f2580c" d="M85.825 380.592h39.481q9.335 0 16.05-2.824 6.716-2.823 10.382-8.746 3.667-5.922 3.667-14.91 0-9.211-3.667-15.078t-10.408-8.746q-6.74-2.88-16.024-2.88h-39.48V297h43.555q19.466 0 34.068 6.57 14.604 6.57 22.79 19.273T194.425 354q0 18.345-8.16 31.102-8.162 12.758-22.763 19.328Q148.899 411 129.38 411H85.825zM78 297h37.096v114H78zm115.203 113.674L245.978 297h25.244l52.721 113.674V411h-40.6l-11.468-26.813 2.219-1.211-19.121-44.893h5.048l-19.173 44.84 2.217 1.264L231.545 411h-38.342zm38.077-39.419h53.779v24.286H231.28zm113.91-4.455-43.445-69.474V297h41.565l23.785 42.063h-4.689L386.743 297H426v.326L382.45 366.8V411h-37.26z"/><path fill="#fff" d="M81.652 466.422h15.296q1.665 0 2.702-.448t1.549-1.289.512-2.002q0-1.794-1.173-2.736-1.172-.942-3.71-.942H85.73v-8.6h9.861q2.338 0 3.315-.984.978-.982.978-2.52 0-1.083-.465-1.816-.463-.73-1.413-1.119-.949-.387-2.496-.388H81.748V434h16.716q7.052 0 11.064 2.759 4.011 2.758 4.011 8.305 0 3.68-2.031 6.378-2.033 2.7-5.756 3.786l.582-1.992q4.788.97 7.126 3.64 2.337 2.672 2.337 6.843 0 3.862-1.944 6.622-1.945 2.76-5.522 4.21-3.575 1.449-8.48 1.449H81.652zM78 434h13.4v42H78zm40.824 0h13.643v42h-13.643zm3.49 31.897h27.816V476h-27.815zM122.297 434h27.495v10.103h-27.495zm-1.091 16.138h26.212v9.331h-26.212zM154.03 434h13.642v42h-13.642zm3.49 31.897h27.816V476h-27.815zM157.504 434h27.495v10.103h-27.495zm-1.092 16.138h26.212v9.331h-26.212zM189.237 434h13.725v42h-13.725zm12.571 18.084L217.043 434h15.797v.12l-19.122 21.957.142-6.074 19.279 25.877v.12H216.23l-14.423-20.69zM235.631 434h13.643v42h-13.643zm3.491 31.897h27.815V476h-27.815zM239.103 434H266.6v10.103h-27.496zm-1.091 16.138h26.212v9.331h-26.212zM270.838 434h13.643v42h-13.643zm3.49 31.897h27.816V476H274.33zM274.31 434h27.495v10.103H274.31zm-1.092 16.138h26.213v9.331h-26.213zM306.045 434h13.683v42h-13.683zm8.195 20.803h8.501q3.155 0 4.728-1.237t1.572-3.909q0-2.712-1.572-3.949t-4.728-1.237h-8.501V434h10.24q5.33 0 9.582 1.66 4.252 1.662 6.72 5.135 2.47 3.474 2.47 8.862 0 5.389-2.48 8.842-2.478 3.453-6.72 5.105-4.242 1.65-9.571 1.651H314.24zM346.2 434h13.643v42h-13.642zm3.491 31.897h27.816V476H349.69zM349.673 434h27.495v10.103h-27.495zm-1.092 16.138h26.212v9.331h-26.212zM381.407 434h13.542v42h-13.542zm10.822 19.74h5.24q1.88 0 3.217-.415 1.337-.416 2.05-1.436.715-1.02.714-2.764 0-2.658-1.585-3.636-1.585-.98-4.395-.98h-5.241V434h6.82q5.637 0 9.751 1.57 4.114 1.572 6.373 4.765t2.259 8.06q0 3.357-1.412 6.13-1.41 2.772-4.066 4.665t-6.407 2.595l4.741-2.873L422 475.88v.12h-15.815l-8.5-13.601 2.896 1.32h-8.352z"/></g></svg>