<svg xmlns="http://www.w3.org/2000/svg" viewBox="0 0 512 591"><g fill="none" fill-rule="evenodd"><path fill="#2998a1" d="m256 0 256 147.627V442.88L256 590.507 0 442.88V147.627z"/><path fill="#fff" d="M312.433 123.604a4.096 4.096 0 0 1-2.076 5.408c-12.628 5.621-21.058 10.948-25.206 15.768-3.848 4.471-7.729 12.815-11.48 24.928a53.7 53.7 0 0 1 8.496 5.47c9.99 7.884 16.013 18.54 16.013 30.94 0 11.294-5.501 26.35-16.475 45.34 43.384-40.095 77.045-59.02 101.546-56.596 29.939 2.963 60.442 38.906 92.508 107.45q.104.215.18.44a4.1 4.1 0 0 1-.462 3.593 4 4 0 0 1-.222.303l-.14.165q-.138.154-.288.292c-20.089 18.349-47.611 25.747-82.275 22.317-28.42-2.812-65.201-13.248-110.415-31.294 26.427 24.332 39.765 49.893 39.765 76.68 0 33.776-21.203 65.6-63.107 95.472a4.1 4.1 0 0 1-4.724.022c-42.113-29.424-63.426-61.262-63.426-95.493 0-27.188 13.445-52.867 40.078-77.025-45.607 18.257-82.674 28.808-111.275 31.638-34.644 3.428-62.155-3.96-82.24-22.287a4 4 0 0 1-.463-.486l-.115-.15-.016-.024a4 4 0 0 1-.419-.726 4.07 4.07 0 0 1-.288-2.41q.074-.399.225-.778l.094-.216c32.071-68.566 62.58-104.52 92.523-107.483 23.377-2.313 55.092 14.809 95.635 51.21-6.417-12.472-9.643-24.328-9.643-35.585 0-15.746 5.79-27.86 15.777-35.994a44.2 44.2 0 0 1 7.72-5.023c-3.729-11.985-7.584-20.249-11.407-24.69-4.148-4.82-12.577-10.147-25.205-15.768a4.096 4.096 0 1 1 3.331-7.484c13.639 6.071 22.972 11.97 28.083 17.908 4.62 5.367 8.842 14.319 12.819 26.954 3.602-1.084 7.164-1.646 10.415-1.646 2.933 0 6.306.622 9.813 1.765 3.987-12.698 8.221-21.69 12.856-27.073 5.11-5.939 14.444-11.837 28.082-17.908a4.096 4.096 0 0 1 5.408 2.076M204.75 403.784c8.33 20.054 25.49 39.415 51.645 58.088 25.923-18.87 42.973-38.233 51.312-58.087zm-3.079-49.144q-2.834 9.972-2.833 20.169-.002 10.51 3.01 20.783h108.798c2.046-6.87 3.065-13.797 3.065-20.783q.001-10.166-2.885-20.169zm54.724-66.894c-26.423 18.863-43.665 38.429-51.898 58.702h103.465c-8.243-20.07-25.376-39.637-51.567-58.702m-92.108-51.304-31.482 32.08a4.096 4.096 0 0 1-5.441.362L112.18 257.05l-65.524 47.235c17.803 14.314 41.74 19.978 71.985 16.985 31.563-3.123 74.324-16.114 128.282-39.089zm183.428 0-82.638 45.74c53.958 22.974 96.719 35.965 128.282 39.088 30.244 2.993 54.182-2.67 71.984-16.985l-65.523-47.235-15.182 11.834a4.096 4.096 0 0 1-5.441-.362zm-218.158-33.427c-24.038 2.378-50.584 31.677-78.854 88.252l59.18-42.658a4.1 4.1 0 0 1 4.913.092l14.722 11.475 31.103-31.695a4.096 4.096 0 0 1 4.907-.715l67.003 37.082c-45.537-43.579-80.074-64.1-102.974-61.833m149.912 61.835 67.005-37.084a4.096 4.096 0 0 1 4.907.715l31.103 31.695 14.722-11.475a4.1 4.1 0 0 1 4.914-.092l59.18 42.658c-28.271-56.575-54.817-85.874-78.855-88.252-22.9-2.267-57.438 18.255-102.976 61.835m-23.194-91.914c-6.19 0-14.323 2.811-20.583 7.91-8.082 6.581-12.758 16.365-12.758 29.641 0 19.14 10.896 41.067 32.954 65.668 22.775-32.113 34.101-55.633 34.101-70.037 0-9.679-4.748-18.08-12.896-24.51-6.745-5.325-15.315-8.672-20.818-8.672"/></g></svg>