<svg xmlns="http://www.w3.org/2000/svg" xmlns:xlink="http://www.w3.org/1999/xlink" viewBox="0 0 512 512"><defs><path id="a" d="M0 0h512v512H0Z"/></defs><g fill="none"><use xlink:href="#a" fill="#000" fill-rule="evenodd"/><path d="M0 0h512v591H0z"/><g fill="#fff" fill-rule="nonzero"><path d="m98.869 135.197 15.469 18.589-63.635 36.124H50v-68.742L143.87 64h30.587v242H98.869zM306.77 141.159h16.172l-71.018 94.345-6.68-26.655H414v56.818H186.883v-26.655L330.325 64h50.627v242H306.77z"/></g><path fill="#fff" d="M58 338h51.557q18.58 0 32.59 6.249 14.012 6.248 21.908 18.282T171.95 392q0 17.28-7.896 29.391-7.896 12.112-21.908 18.36-14.01 6.249-32.59 6.249H58zm41.957 33.942v40.115h4.49q7.278 0 12.464-2.083 5.186-2.082 7.973-6.557 2.787-4.474 2.787-11.263 0-7.097-2.787-11.494t-7.973-6.557-12.464-2.16zM237.751 338q18.424 0 29.185 7.02t10.76 21.677q0 9.411-5.187 16.277-3.457 4.577-11.5 7.137c8.36 2.057 12.713 2.506 16.532 7.135q5.73 6.942 5.729 17.125 0 10.03-5.187 17.126-5.187 7.098-14.553 10.8Q254.162 446 241.622 446H181.24V338h56.511m96.61 0v108H292.25V338zm-112.093 65.88v13.885h9.445q3.252 0 5.032-1.002t2.555-2.623a7.95 7.95 0 0 0 .774-3.471q0-2.932-1.858-4.86t-6.812-1.929zm0-37.646v12.96h6.194q4.49 0 6.115-2.083 1.626-2.082 1.626-4.551 0-1.851-.774-3.24-.774-1.388-2.477-2.237t-4.8-.849zm108.378 17.28L363.47 338h46.912v.309l-44.28 57.548.464-18.977L411 445.691V446h-50.318l-30.036-52.611z"/><path fill="#2b97a3" fill-rule="evenodd" d="m441.5 397 21.5 12.5v25L441.5 447 420 434.5v-25z"/></g></svg>