<svg xmlns="http://www.w3.org/2000/svg" viewBox="0 0 841 200"><g fill="none"><g fill-rule="evenodd"><g fill="#f2580c" fill-rule="nonzero"><path d="m19.692 27.993 5.008 8.423L.228 48.595H0V25.716L36.652 6.138h10.244v78.54H19.692zM106.596 30.952l5.236.456-27.888 29.481-1.366-8.196h64.426v19.123H57.423v-8.651l57.823-57.027h18.213v78.54h-26.863zM188.143 63.009h37.355q5.739 0 10.132-1.12t7.389-3.39a14.3 14.3 0 0 0 4.51-5.675q1.513-3.404 1.513-7.935 0-4.581-1.52-8.01a14.3 14.3 0 0 0-4.53-5.699q-3.007-2.271-7.395-3.39-4.385-1.12-10.1-1.12h-37.354V5h40.24q11.384 0 20.703 2.558 9.32 2.559 16.059 7.59 6.739 5.033 10.378 12.494t3.64 17.197q0 9.722-3.613 17.184t-10.314 12.5-16.032 7.597-20.782 2.558h-40.279zM183.222 5h28.76v79.678h-28.76zM274.161 84.45 318.132 5h20.352l43.947 79.45v.228h-32.316l-8.766-17.787.706-2.065-17.565-34.062h6.35l-17.563 33.96.706 2.089-8.872 17.865h-30.95zm31.623-28.426h44.748l.133 17.796h-45.027zM402.358 54.589 365.471 5.228V5h32.986l20.478 29.244h-2.772L436.973 5h31.333v.228l-36.933 49.361v30.089h-29.015z"/></g><g fill="#342e37" fill-rule="nonzero"><path d="M5.798 175.541H47.83q3.203 0 5.207-.794t2.973-2.295q.969-1.5.969-3.568 0-2.144-.99-3.602t-3.06-2.245-5.298-.787H16.684v-16.586H44.75q3.002 0 4.79-.794 1.785-.795 2.59-2.24.803-1.446.803-3.253 0-1.908-.878-3.209-.877-1.3-2.686-1.987t-4.762-.688H5.967v-18.815h46.254q9.272 0 15.944 2.337t10.305 7.007 3.632 11.755q0 6.997-4.075 12.03-4.076 5.036-11.225 7.057l1.065-3.651q9.315 1.716 14.101 6.699 4.785 4.982 4.785 13.12 0 7.465-3.934 12.687t-11.046 7.93-16.685 2.708H5.798zM0 114.678h28.33v79.679H0zM94.572 114.678h28.762v79.679H94.572zm5.656 59.828h68.73v19.85h-68.73zm-.024-59.828h68.099v19.85h-68.099zm-1.317 30.47h64.406v17.992H98.887zM178.195 114.678h28.763v79.679h-28.763zm5.656 59.828h68.73v19.85h-68.73zm-.023-59.828h68.098v19.85h-68.098zm-1.318 30.47h64.406v17.992H182.51zM261.819 114.678h29.002v79.679H261.82zm26.418 34.294 36.117-34.294h35.505v.228l-46.616 42.197.212-12.4 46.982 49.426v.228h-37.36l-34.84-39.28zM367.67 114.678h28.763v79.679H367.67zm5.656 59.828h68.73v19.85h-68.73zm-.023-59.828h68.098v19.85h-68.098zm-1.318 30.47h64.406v17.992h-64.406zM451.294 114.678h28.762v79.679h-28.762zm5.656 59.828h68.73v19.85h-68.73zm-.023-59.828h68.098v19.85h-68.098zm-1.318 30.47h64.406v17.992h-64.406zM534.917 114.678h28.967v79.679h-28.967zm19.221 39.857h22.47q4.884 0 7.969-1.102t4.587-3.285q1.501-2.184 1.502-5.468 0-3.372-1.502-5.55t-4.587-3.28-7.969-1.101h-22.456v-20.07h26.653q11.449 0 20.442 3.198t14.168 9.85q5.174 6.653 5.174 16.953 0 10.305-5.186 16.916t-14.168 9.8q-8.98 3.187-20.43 3.187h-26.667zM628.301 114.678h28.762v79.679h-28.762zm5.656 59.828h68.73v19.85h-68.73zm-.023-59.828h68.098v19.85h-68.098zm-1.318 30.47h64.406v17.992h-64.406zM711.924 114.678h28.642v79.679h-28.642zm24.667 37.705h17.572q4.245 0 7.071-.844t4.252-2.752 1.425-5.04q0-3.22-1.412-5.079-1.412-1.86-4.219-2.684-2.805-.825-7.012-.824H736.59v-20.482h22.585q11.588 0 19.946 2.986t12.898 9.044 4.54 15.289q0 6.45-2.852 11.78-2.853 5.33-8.273 8.929-5.421 3.6-13.149 4.873l8.841-5.371 24.926 31.92v.229h-34.101l-18.237-25.531 6.566 2.936h-23.69z"/></g><path fill="#2b97a3" d="m825.553 161 14.5 8.5v17l-14.5 8.5-14.5-8.5v-17z"/></g><path fill="#342e37" fill-rule="evenodd" d="M509 5h297v80H509z"/><path fill="#fff" d="M537.566 56.925h24.74q1.887 0 3.065-.467 1.18-.468 1.75-1.351.57-.885.57-2.1 0-1.263-.582-2.12-.583-.859-1.801-1.322-1.22-.463-3.119-.463h-18.215v-9.763h16.52q1.766 0 2.819-.468 1.052-.466 1.524-1.318.474-.852.473-1.915 0-1.123-.517-1.889-.516-.765-1.58-1.17-1.066-.404-2.803-.404h-22.745V21.1h27.226q5.458 0 9.385 1.376t6.066 4.124 2.138 6.92q0 4.118-2.399 7.08-2.4 2.963-6.607 4.154l.627-2.15q5.483 1.011 8.3 3.944t2.817 7.723q0 4.395-2.316 7.468t-6.502 4.667Q572.213 68 566.579 68h-29.013zM534.153 21.1h16.676V68h-16.676zm53.574 46.766L613.61 21.1h11.98l25.868 46.766V68h-19.022l-5.16-10.47.416-1.215-10.34-20.05h3.738l-10.338 19.99.416 1.23L605.945 68h-18.218zm18.614-16.732h26.339l.078 10.475h-26.503zm48.961 1.792h.134q1.623.51 3.87 1.002 2.248.495 4.907.914t5.575.66 5.898.242q2.888 0 4.601-.35t2.487-1.052a2.25 2.25 0 0 0 .773-1.732q0-.93-.586-1.526-.587-.595-2.003-1.03t-4.025-.792l-7.199-.967q-5.328-.83-8.699-2.594-3.37-1.765-4.96-4.5t-1.59-6.396q0-4.482 2.742-7.76t8.247-5.086q5.505-1.806 13.797-1.806 4.436 0 8.312.37 3.877.368 7.132.96 3.256.593 5.778 1.289v13.305h-.134q-2.028-.674-5.154-1.295-3.126-.622-6.905-1.039a72 72 0 0 0-7.882-.417q-2.805 0-4.514.32-1.707.32-2.485.962-.776.643-.776 1.685 0 .88.59 1.486.592.605 2.003.99 1.412.384 3.797.77l7.025.965q5.64.885 9.076 2.558 3.438 1.675 5.013 4.291t1.575 6.42q0 4.448-2.567 7.879-2.566 3.43-8.021 5.363-5.456 1.932-14.118 1.932-4.772 0-8.789-.351-4.016-.352-7.227-.97-3.21-.62-5.698-1.408zM707.293 21.1h17.072V68h-17.072zM729.7 44.55q0-5.79 2.307-10.335 2.307-4.547 6.51-7.676 4.204-3.129 9.935-4.758 5.73-1.628 12.58-1.628 6.093 0 10.92.84 4.827.843 8.492 2.156v13.398h-.142q-1.921-.718-4.684-1.312a64 64 0 0 0-5.828-.96 50 50 0 0 0-5.956-.366q-3.872 0-6.913.7-3.04.7-5.151 2.067-2.112 1.366-3.226 3.346-1.116 1.98-1.115 4.528 0 2.525 1.115 4.496t3.226 3.346 5.143 2.087q3.034.712 6.898.712 2.899 0 5.972-.354a62 62 0 0 0 5.839-.947q2.767-.594 4.695-1.278h.134v13.315q-3.702 1.325-8.53 2.172-4.827.849-10.888.848-6.866 0-12.596-1.628-5.73-1.629-9.931-4.754-4.2-3.126-6.504-7.676-2.302-4.55-2.302-10.339"/></g></svg>