<svg xmlns="http://www.w3.org/2000/svg" viewBox="0 0 841 190"><g fill="none" fill-rule="evenodd"><g fill-rule="nonzero"><g fill="#f2580c"><path d="m19.692 22.993 5.008 8.423L.228 43.595H0V20.716L36.652 1.138h10.244v78.54H19.692zM106.596 25.952l5.236.456-27.888 29.481-1.366-8.196h64.426v19.123H57.423v-8.651l57.823-57.027h18.213v78.54h-26.863zM188.143 58.009h37.355q5.739 0 10.132-1.12t7.389-3.39a14.3 14.3 0 0 0 4.51-5.675q1.513-3.404 1.513-7.935 0-4.581-1.52-8.01a14.3 14.3 0 0 0-4.53-5.699q-3.007-2.271-7.395-3.39-4.385-1.12-10.1-1.12h-37.354V0h40.24q11.384 0 20.703 2.558 9.32 2.559 16.059 7.59 6.739 5.033 10.378 12.494 3.64 7.462 3.64 17.197 0 9.722-3.613 17.184t-10.314 12.5-16.032 7.597-20.782 2.558h-40.279zM183.222 0h28.76v79.678h-28.76zM274.161 79.45 318.132 0h20.352l43.947 79.45v.228h-32.316l-8.766-17.787.706-2.065-17.565-34.062h6.35l-17.563 33.96.706 2.089-8.872 17.865h-30.95zm31.623-28.426h44.748l.133 17.796h-45.027zM402.358 49.589 365.471.228V0h32.986l20.478 29.244h-2.772L436.973 0h31.333v.228l-36.933 49.361v30.089h-29.015z"/></g><g fill="#fff"><path d="M5.798 170.541H47.83q3.203 0 5.207-.794t2.973-2.295q.969-1.5.969-3.568 0-2.144-.99-3.602t-3.06-2.245-5.298-.787H16.684v-16.586H44.75q3.002 0 4.79-.794 1.785-.795 2.59-2.24.803-1.446.803-3.253 0-1.908-.878-3.209-.877-1.3-2.686-1.987t-4.762-.688H5.967v-18.815h46.254q9.272 0 15.944 2.337t10.305 7.007 3.632 11.755q0 6.997-4.075 12.03-4.076 5.036-11.225 7.057l1.065-3.651q9.315 1.716 14.101 6.699 4.785 4.982 4.785 13.12 0 7.465-3.934 12.687t-11.046 7.93-16.685 2.708H5.798zM0 109.678h28.33v79.679H0zM94.572 109.678h28.762v79.679H94.572zm5.656 59.828h68.73v19.85h-68.73zm-.024-59.828h68.099v19.85h-68.099zm-1.317 30.47h64.406v17.992H98.887zM178.195 109.678h28.763v79.679h-28.763zm5.656 59.828h68.73v19.85h-68.73zm-.023-59.828h68.098v19.85h-68.098zm-1.318 30.47h64.406v17.992H182.51zM261.819 109.678h29.002v79.679H261.82zm26.418 34.294 36.117-34.294h35.505v.228l-46.616 42.197.212-12.4 46.982 49.426v.228h-37.36l-34.84-39.28zM367.67 109.678h28.763v79.679H367.67zm5.656 59.828h68.73v19.85h-68.73zm-.023-59.828h68.098v19.85h-68.098zm-1.318 30.47h64.406v17.992h-64.406zM451.294 109.678h28.762v79.679h-28.762zm5.656 59.828h68.73v19.85h-68.73zm-.023-59.828h68.098v19.85h-68.098zm-1.318 30.47h64.406v17.992h-64.406zM534.917 109.678h28.967v79.679h-28.967zm19.221 39.857h22.47q4.884 0 7.969-1.102t4.587-3.285q1.501-2.184 1.502-5.468 0-3.372-1.502-5.55t-4.587-3.28-7.969-1.101h-22.456v-20.07h26.653q11.449 0 20.442 3.198t14.168 9.85q5.174 6.653 5.174 16.953 0 10.305-5.186 16.916t-14.168 9.8q-8.98 3.187-20.43 3.187h-26.667zM628.301 109.678h28.762v79.679h-28.762zm5.656 59.828h68.73v19.85h-68.73zm-.023-59.828h68.098v19.85h-68.098zm-1.318 30.47h64.406v17.992h-64.406zM711.924 109.678h28.642v79.679h-28.642zm24.667 37.705h17.572q4.245 0 7.071-.844t4.252-2.752 1.425-5.04q0-3.22-1.412-5.079-1.412-1.86-4.219-2.684-2.805-.825-7.012-.824H736.59v-20.482h22.585q11.588 0 19.946 2.986t12.898 9.044 4.54 15.289q0 6.45-2.852 11.78-2.853 5.33-8.273 8.929-5.421 3.6-13.149 4.873l8.841-5.371 24.926 31.92v.229h-34.101l-18.237-25.531 6.566 2.936h-23.69z"/></g></g><path fill="#2b97a3" d="m825.553 156 14.5 8.5v17l-14.5 8.5-14.5-8.5v-17z"/></g></svg>