<svg xmlns="http://www.w3.org/2000/svg" viewBox="0 0 1117 288"><g fill="none" fill-rule="evenodd"><path fill="#2998a1" d="m125 0 125 72v144l-125 72L0 216V72z"/><path fill="#fff" d="M100.075 59.335c6.66 2.959 11.217 5.833 13.713 8.727 2.256 2.616 4.318 6.979 6.26 13.135 1.759-.527 3.498-.801 5.086-.801 1.432 0 3.079.303 4.791.86 1.948-6.188 4.016-10.57 6.279-13.194 2.496-2.894 7.053-5.768 13.712-8.727a2 2 0 1 1 1.624 3.656c-6.166 2.74-10.282 5.335-12.307 7.684-1.878 2.178-3.773 6.242-5.604 12.141a26 26 0 0 1 4.147 2.664c4.878 3.843 7.82 9.038 7.82 15.083 0 5.503-2.684 12.837-8.039 22.087 21.18-19.536 37.615-28.758 49.577-27.576 14.62 1.443 29.517 18.965 45.177 52.38l.01.02.042.1-.052-.12a2 2 0 0 1 .159 1.197l-.011.056a2 2 0 0 1-.027.116l-.01.034-.032.102-.018.046a2 2 0 0 1-.099.223 2 2 0 0 1-.131.217l-.01.013-.009.012-.07.093a2 2 0 0 1-.176.19l-.03.027c-9.808 8.942-23.246 12.548-40.171 10.876-13.874-1.37-31.83-6.454-53.901-15.246 12.895 11.855 19.404 24.308 19.404 37.36 0 16.463-10.354 31.972-30.816 46.53a2 2 0 0 1-2.303.011c-20.564-14.34-30.972-29.856-30.972-46.54 0-13.248 6.561-25.759 19.558-37.529-22.264 8.895-40.36 14.035-54.322 15.414-16.925 1.672-30.363-1.934-40.171-10.876l-.031-.028-.032-.03.063.058-.08-.077a2 2 0 0 1-.196-.233l-.019-.025-.03-.044.049.07-.072-.106a2 2 0 0 1-.178-.36l-.016-.046-.033-.102-.009-.034a2 2 0 0 1-.027-.112l-.011-.06-.016-.1-.004-.044a2 2 0 0 1-.01-.243 2 2 0 0 1 .178-.79l.01-.02c15.66-33.415 30.557-50.937 45.177-52.38 11.413-1.128 26.897 7.215 46.692 24.952-3.13-6.074-4.704-11.85-4.704-17.334 0-7.676 2.828-13.581 7.705-17.545a21.6 21.6 0 0 1 3.767-2.447c-1.82-5.837-3.701-9.862-5.567-12.025-2.026-2.349-6.142-4.945-12.308-7.684a2 2 0 0 1 1.624-3.656m-.098 137.56c4.068 9.77 12.446 19.203 25.215 28.3 12.656-9.194 20.98-18.627 25.053-28.3zm-1.506-23.95a35.7 35.7 0 0 0-1.383 9.826q0 5.12 1.47 10.124h53.125a35.2 35.2 0 0 0 1.496-10.124 35.2 35.2 0 0 0-1.408-9.826zm26.721-32.6c-12.9 9.191-21.317 18.724-25.338 28.6h50.516c-4.026-9.777-12.391-19.31-25.178-28.6m-44.975-25.002-15.373 15.635a2 2 0 0 1-2.654.177l-7.414-5.769-31.99 23.016c8.692 6.973 20.38 9.732 35.145 8.274 15.41-1.522 36.287-7.852 62.63-19.046zm89.566 0-40.346 22.286c26.344 11.195 47.221 17.525 62.632 19.047 14.765 1.458 26.452-1.3 35.144-8.273l-31.989-23.017-7.414 5.769a2 2 0 0 1-2.654-.177zM63.259 99.054c-11.737 1.16-24.697 15.434-38.499 43l28.894-20.789a2 2 0 0 1 2.397.045l7.19 5.594 15.188-15.447a2 2 0 0 1 2.393-.349l32.704 18.065C91.298 107.945 74.44 97.95 63.259 99.054m73.214 30.12 32.705-18.066a2 2 0 0 1 2.393.349l15.188 15.447 7.19-5.594a2 2 0 0 1 2.397-.045l28.893 20.787c-13.802-27.564-26.761-41.839-38.498-42.998-11.181-1.104-28.04 8.892-50.268 30.12m-11.34-44.778c-3.023 0-6.994 1.37-10.051 3.855-3.946 3.207-6.228 7.973-6.228 14.44 0 9.327 5.32 20.012 16.09 32 11.122-15.65 16.652-27.11 16.652-34.128 0-4.715-2.318-8.807-6.296-11.941-3.293-2.595-7.478-4.226-10.166-4.226"/><g fill-rule="nonzero"><g fill="#db5799"><path d="m329.692 71.993 5.008 8.423-24.472 12.179H310V69.716l36.652-19.578h10.244v78.54h-27.204zM416.596 74.952l5.236.456-27.888 29.481-1.366-8.196h64.426v19.123h-89.581v-8.651l57.823-57.027h18.213v78.54h-26.863zM498.143 107.009h37.355q5.739 0 10.132-1.12 4.394-1.12 7.389-3.39a14.3 14.3 0 0 0 4.51-5.675q1.513-3.404 1.513-7.935 0-4.581-1.52-8.01a14.3 14.3 0 0 0-4.53-5.699q-3.007-2.271-7.395-3.39-4.385-1.12-10.1-1.12h-37.354V49h40.24q11.384 0 20.703 2.558 9.32 2.559 16.059 7.59 6.738 5.033 10.378 12.494 3.64 7.462 3.64 17.197 0 9.722-3.613 17.184t-10.314 12.5-16.032 7.597-20.782 2.558h-40.279zM493.222 49h28.76v79.678h-28.76zM584.161 128.45 628.132 49h20.352l43.947 79.45v.228h-32.316l-8.766-17.787.706-2.065-17.565-34.062h6.35l-17.563 33.96.706 2.089-8.871 17.865h-30.95zm31.623-28.426h44.748l.133 17.796h-45.027zM712.358 98.589l-36.887-49.361V49h32.986l20.478 29.244h-2.772L746.973 49h31.333v.228l-36.933 49.361v30.089h-29.015z"/></g><g fill="#fff"><path d="M315.798 219.541h42.032q3.204 0 5.207-.794t2.973-2.295q.969-1.5.969-3.568 0-2.144-.99-3.602t-3.06-2.245-5.298-.787h-30.947v-16.586h28.066q3.002 0 4.79-.794 1.786-.795 2.59-2.24.803-1.447.803-3.253 0-1.908-.878-3.209-.877-1.3-2.686-1.987t-4.762-.688h-38.64v-18.815h46.254q9.272 0 15.944 2.337t10.305 7.007q3.632 4.67 3.632 11.755 0 6.998-4.075 12.03-4.076 5.036-11.225 7.057l1.065-3.651q9.315 1.716 14.101 6.699 4.785 4.982 4.785 13.12 0 7.465-3.934 12.687t-11.046 7.93-16.685 2.708h-49.29zM310 158.678h28.33v79.679H310zM404.572 158.678h28.762v79.679h-28.762zm5.656 59.828h68.73v19.85h-68.73zm-.024-59.828h68.099v19.85h-68.099zm-1.317 30.47h64.406v17.992h-64.406zM488.195 158.678h28.763v79.679h-28.763zm5.656 59.828h68.73v19.85h-68.73zm-.023-59.828h68.098v19.85h-68.098zm-1.318 30.47h64.406v17.992H492.51zM571.819 158.678h29.002v79.679H571.82zm26.418 34.294 36.117-34.294h35.505v.228l-46.616 42.197.212-12.4 46.982 49.426v.228h-37.36l-34.84-39.28zM677.67 158.678h28.763v79.679H677.67zm5.656 59.828h68.73v19.85h-68.73zm-.023-59.828h68.098v19.85h-68.098zm-1.318 30.47h64.406v17.992h-64.406zM761.294 158.678h28.762v79.679h-28.762zm5.656 59.828h68.73v19.85h-68.73zm-.023-59.828h68.098v19.85h-68.098zm-1.318 30.47h64.406v17.992h-64.406zM844.917 158.678h28.967v79.679h-28.967zm19.221 39.857h22.47q4.884 0 7.969-1.102t4.587-3.285q1.501-2.184 1.502-5.468 0-3.372-1.502-5.55t-4.587-3.28-7.969-1.101h-22.456v-20.07h26.653q11.449 0 20.442 3.198t14.168 9.85q5.174 6.653 5.174 16.953 0 10.305-5.186 16.916t-14.168 9.8q-8.98 3.187-20.43 3.187h-26.667zM938.301 158.678h28.762v79.679h-28.762zm5.656 59.828h68.73v19.85h-68.73zm-.023-59.828h68.098v19.85h-68.098zm-1.318 30.47h64.406v17.992h-64.406zM1021.924 158.678h28.642v79.679h-28.642zm24.667 37.705h17.572q4.245 0 7.071-.844t4.252-2.752 1.425-5.04q0-3.22-1.412-5.079-1.412-1.86-4.219-2.684-2.806-.825-7.012-.824h-17.677v-20.482h22.585q11.588 0 19.946 2.986t12.898 9.044 4.54 15.289q0 6.45-2.852 11.78-2.853 5.33-8.273 8.929-5.421 3.6-13.149 4.873l8.841-5.371 24.926 31.92v.229h-34.101l-18.237-25.531 6.566 2.936h-23.69z"/></g></g></g></svg>